<svg width="800" height="518" viewBox="0 0 800 518" fill="none" xmlns="http://www.w3.org/2000/svg">
<path d="M491.08 142.242L479.403 72.1815L416.348 95.535L336.946 72.1815L299.58 25.4744L276.226 2.12012L257.543 25.4744L264.55 48.8279L276.226 72.1815L318.263 118.889L355.629 165.596H369.641L390.659 118.889H416.348L432.696 188.949L425.689 259.01H371.976L318.263 329.071L322.934 352.425L329.94 375.778L306.586 399.132H276.226L280.897 375.778L271.556 352.425L252.873 375.778H229.519L220.178 399.132L248.202 469.192L294.909 515.9L341.616 492.546L371.976 422.485H392.994L411.677 399.132L442.037 352.425L493.415 329.071L486.409 375.778L477.067 422.485H500.421H514.433L526.11 399.132L537.787 375.778L551.799 352.425L579.823 329.071L556.47 212.303L491.08 142.242Z" fill="#E11E28" stroke="white" stroke-width="2"/>
</svg>
