<svg width="800" height="516" viewBox="0 0 800 516" fill="none" xmlns="http://www.w3.org/2000/svg">
<path d="M591.24 41.7615L602.657 30.344L608.366 13.2181H602.657H596.949L591.24 7.50943L579.823 1.80078L574.114 7.50943L562.697 13.2181H556.988L551.28 7.50943L534.154 18.9267L511.319 13.2181L499.902 24.6354H482.775L477.067 30.344V36.0527L465.649 41.7615L454.232 53.1788V58.8875L448.524 64.5961L431.398 58.8875L414.272 53.1788V58.8875H402.854H397.146H391.437L385.728 70.3048V76.0134L374.311 70.3048H368.602L357.185 76.0134L340.059 87.4307H322.933L317.224 81.7221H300.098L282.972 87.4307L254.429 81.7221L243.011 70.3048L231.594 58.8875L203.051 53.1788H168.799L163.09 47.4702L151.673 41.7615H140.256H128.838L117.421 36.0527L106.003 30.344L94.5862 24.6354L71.7516 30.344L48.917 41.7615V64.5961H54.6256L60.3343 76.0134V81.7221L71.7516 87.4307L88.8775 93.1393L77.4602 98.8482H71.7516V110.265L83.1689 121.683H88.8775V115.974L100.295 110.265L117.421 104.557L128.838 121.683L134.547 138.809H140.256L151.673 133.1L163.09 161.643L151.673 190.187L157.382 195.895H163.09L180.216 207.313L174.508 213.021L168.799 218.73V224.439V230.147V235.856L163.09 247.273L180.216 264.399L191.634 281.525H197.342H203.051H220.177L231.594 275.817L243.011 270.108H248.72L254.429 264.399L265.846 270.108L277.264 275.817L282.972 270.108L300.098 281.525L317.224 287.234V281.525H351.476L357.185 287.234V292.943H362.893L368.602 298.651H374.311V304.36V310.069H380.02L391.437 321.486L397.146 327.195L402.854 350.029L431.398 384.281H437.106V389.99L442.815 395.699V407.116L454.232 418.533L465.649 435.659L471.358 441.368L477.067 458.494H482.775L488.484 464.203V475.62L505.61 504.164L528.445 498.455L551.28 492.746L556.988 498.455H562.697H568.406V504.164H574.114L579.823 498.455L585.531 504.164V498.455H591.24V492.746L614.075 509.872L654.036 515.581H659.744L665.453 504.164L671.162 487.037L676.87 481.329V464.203L671.162 447.077V429.951V407.116L665.453 401.407H654.036V395.699L648.327 389.99L642.618 395.699H636.91V389.99V384.281H631.201L625.492 389.99V372.864V355.738L631.201 338.612L636.91 327.195V321.486L631.201 310.069L648.327 298.651L665.453 287.234L671.162 281.525L665.453 275.817L671.162 264.399L676.87 258.691L688.288 252.982L699.705 247.273V224.439L693.996 213.021L722.54 207.313H745.374L751.083 201.604V190.187L745.374 178.769V155.935L739.666 138.809L722.54 133.1H716.831L711.122 138.809L693.996 144.517H682.579L676.87 155.935L665.453 167.352L642.618 178.769L631.201 184.478L625.492 190.187H619.784H614.075H608.366H602.657L591.24 173.061L579.823 161.643H556.988L539.862 155.935V133.1L556.988 121.683V104.557V87.4307L562.697 81.7221L568.406 76.0134L579.823 64.5961L591.24 53.1788V47.4702V41.7615Z" fill="#E11E28" stroke="white" stroke-width="2"/>
</svg>
