<svg width="800" height="517" viewBox="0 0 800 517" fill="none" xmlns="http://www.w3.org/2000/svg">
<path d="M576.968 47.6897H565.551L554.134 36.2724L542.716 24.8551L531.299 36.2724H519.881L508.464 24.8551L485.63 2.02051L451.378 13.4378L439.96 36.2724L451.378 59.107L428.543 81.9419L417.125 70.5243H394.291H382.874L371.456 59.107L360.039 47.6897L348.622 70.5243L337.204 93.3589H325.787H314.37L302.952 104.776L291.535 116.194H257.283H211.614L188.779 127.611L177.362 139.028L154.527 127.611L131.692 139.028L154.527 161.863L177.362 184.698V196.115V218.95V230.367H143.11L165.944 287.454L200.196 333.123L211.614 367.375L223.031 401.627L234.448 413.044H245.866L268.7 424.461L280.118 435.879L325.787 424.461L360.039 413.044V424.461L348.622 435.879L405.708 515.801H428.543H451.378L474.212 504.383L485.63 481.548L542.716 492.965H554.134H565.551H576.968L588.386 481.548H599.803L611.22 492.965L634.055 458.714L645.472 435.879L634.055 413.044V401.627H611.22V390.21L645.472 367.375H668.307V344.54L645.472 333.123V310.288V287.454H634.055L622.637 276.036V241.784L611.22 196.115L599.803 207.532L576.968 218.95L542.716 207.532L519.881 173.28L531.299 161.863L542.716 150.446V139.028V116.194L565.551 104.776L588.386 81.9419V59.107V47.6897H576.968Z" fill="#E11E28" stroke="white" stroke-width="2"/>
</svg>
