<svg width="800" height="518" viewBox="0 0 800 518" fill="none" xmlns="http://www.w3.org/2000/svg">
<path d="M419.266 13.3839H405.352L393.577 2.68018L391.437 13.3839H389.296L380.733 2.68018H366.818L348.622 13.3839L359.325 34.7913L365.748 66.9028L378.592 77.6062L387.155 88.3099L373.24 99.014L363.607 120.421L366.818 152.533L377.522 173.94H405.352L427.829 195.348H409.633L386.085 206.051L380.733 259.57L376.451 302.385L337.918 313.089H298.314L300.455 323.793L311.158 334.496L306.877 345.2L303.666 355.904L314.37 366.608L321.862 377.311L285.469 388.015L275.836 420.126L280.118 430.83H284.399H292.962H301.525L309.018 441.534L316.51 452.238V462.941H319.721H322.933H327.214L325.073 473.645H327.214H334.707L341.129 462.941L372.17 484.349L373.241 495.052H374.312L386.086 484.349H389.297H391.438L389.297 495.052L396.789 484.349L407.493 473.645L413.915 484.349L412.846 495.052L404.283 505.756L400.001 516.46L412.846 505.756L425.69 495.052L455.661 473.645L486.702 462.941L492.053 473.645L472.787 388.015H479.209L492.053 409.422H513.461L524.165 334.496V248.866L502.757 227.459L485.631 206.051L474.927 216.755L464.224 206.051L473.857 173.94L492.053 152.533L487.772 120.421L477.068 88.3099L502.757 66.9028L492.053 45.495L485.631 24.0876L453.52 13.3839H419.266Z" fill="#E11E28" stroke="white" stroke-width="2"/>
</svg>
