<svg width="800" height="517" viewBox="0 0 800 517" fill="none" xmlns="http://www.w3.org/2000/svg">
<path d="M432.79 298.106V294.007H428.691V298.106L430.741 300.155L428.691 308.353L434.839 302.204V300.155L432.79 298.106ZM479.926 253.019L473.778 250.97H467.63V253.019V255.069H465.58V257.118V259.167L461.481 257.118H455.333V259.167V261.217L457.383 263.266H455.333V265.316L453.284 267.365L447.136 271.464L443.037 275.562L440.988 273.513V271.464L438.938 269.414L434.839 271.464L430.741 275.562L428.691 281.711V287.859H430.741H432.79V289.908L434.839 287.859L436.889 285.809V287.859L434.839 291.957L438.938 296.056L436.889 304.254L438.938 306.303L440.988 310.402H438.938H436.889L434.839 308.353V310.402L432.79 312.451H430.741V316.55L432.79 320.649H436.889L438.938 324.748V328.846H440.988H443.037V326.797H445.086L447.136 330.896L449.185 334.995L451.235 337.044V334.995V332.945L453.284 330.896V334.995L457.383 341.143V339.093V337.044L459.432 339.093H463.531L461.481 332.945L459.432 326.797V316.55L461.481 306.303L463.531 298.106L467.63 289.908H469.679L471.728 285.809L473.778 281.711L475.827 277.612L477.876 279.661L481.975 277.612V275.562L479.926 273.513H481.975L486.074 275.562L488.123 273.513V271.464H486.074L484.025 269.414L490.173 271.464V267.365H492.222H494.272L492.222 261.217L488.123 257.118V255.069L486.074 253.019H481.975H479.926ZM527.062 207.933L522.963 212.032V214.081H525.012V216.13L527.062 218.18H522.963L518.864 220.229H520.913L522.963 222.278V224.328L525.012 226.377L520.913 224.328L514.765 222.278L512.716 224.328L514.765 228.427H512.716H510.667H506.568L508.617 230.476V232.525H506.568L504.518 230.476V234.575L506.568 238.674L504.518 236.624L500.42 232.525L496.321 234.575V238.674V236.624L492.222 234.575L488.123 236.624L486.074 238.674L484.025 236.624L488.123 242.772L496.321 244.822V246.871H490.173H484.025L479.926 248.92V250.97H481.975H486.074L490.173 255.069L492.222 259.167L494.272 257.118V263.266L498.37 265.316L500.42 263.266V265.316L502.469 263.266L506.568 261.217L504.518 257.118V255.069V253.019L506.568 259.167H510.667L512.716 257.118L510.667 253.019L508.617 250.97V248.92L512.716 250.97L514.765 255.069V257.118L516.815 253.019L518.864 248.92L516.815 246.871V244.822H518.864V242.772H520.913V244.822V248.92V253.019L522.963 250.97L525.012 248.92L529.111 246.871L533.21 240.723L531.16 238.674V236.624H533.21V240.723L537.309 242.772L539.358 240.723L541.407 236.624L543.457 242.772L545.506 240.723V236.624H547.555V238.674V240.723L551.654 238.674V236.624L553.704 238.674L555.753 236.624V234.575L553.704 232.525H555.753H557.802L561.901 230.476L568.049 228.427V230.476L570.099 228.427H572.148L578.296 226.377H584.444H588.543H590.592H613.136L633.629 224.328L639.778 220.229L643.876 214.081L647.975 209.982L645.926 203.834L635.679 199.735L623.383 203.834V205.883L621.333 207.933H619.284V205.883H592.642L586.494 199.735L582.395 197.686L580.346 201.785L574.197 203.834H576.247V201.785H572.148L568.049 203.834L563.95 201.785H557.802L553.704 203.834H551.654H549.605V205.883H543.457V209.982L541.407 212.032L539.358 209.982L537.309 207.933L535.259 209.982L533.21 212.032L529.111 214.081V212.032L527.062 207.933ZM629.531 58.123V52.9995L625.432 51.9749L623.383 56.2786V62.4267L629.531 58.123ZM606.987 39.8835L604.938 45.007L611.086 46.0316L613.136 39.8835H606.987ZM629.531 40.7033L635.679 44.1872L637.728 42.1378L633.629 37.6292L629.531 40.7033ZM619.284 49.9255V51.565L623.383 48.9008H621.333L619.284 49.9255ZM617.234 33.5304V31.8909L615.185 31.686V33.9403V36.6045L617.234 33.5304ZM619.284 35.7847L617.234 37.4243V39.0638V41.7279L621.333 37.6292V36.3996L619.284 35.7847ZM631.58 35.9897L633.629 34.3502L627.481 27.5872L625.432 31.0712L627.481 34.5551L631.58 35.9897ZM588.543 44.802V46.2366L590.592 47.4662L592.642 44.5971V41.3181L588.543 41.1131V44.802ZM590.592 32.5057L586.494 35.1699L588.543 37.6292L590.592 35.3749V32.5057ZM574.197 2.78969V5.45388L576.247 5.86376V6.88845V8.52796V10.1675L582.395 9.96253L586.494 8.7329L588.543 8.32302V8.52796L590.592 8.93783L592.642 14.0613L594.691 12.4218V7.91314L592.642 3.60944H588.543L584.444 4.01931L582.395 3.81438L580.346 3.4045L576.247 1.56006L574.197 2.78969ZM606.987 11.602V10.3724L604.938 10.9872L600.839 11.807L598.79 12.6267V14.881V17.3403L590.592 17.5452L584.444 15.9057V17.3403L586.494 19.1847H584.444L582.395 18.1601V19.3897V21.0292V21.4391H580.346V17.9551L576.247 17.3403L574.197 20.2094V23.2835L578.296 23.0786V25.7428L576.247 26.9724L574.197 28.202L576.247 28.8168L578.296 28.6119L580.346 30.2514L582.395 28.407V29.6366L584.444 29.8415L586.494 26.7675L584.444 24.5131V24.3082L590.592 24.923L592.642 26.9724L594.691 25.5378L598.79 24.3082L611.086 23.6934L609.037 19.3897L604.938 17.9551V17.5452L606.987 16.1107L609.037 15.9057L611.086 13.8564V13.0366H606.987V11.602ZM613.136 6.0687L611.086 7.91314L613.136 8.52796L617.234 7.7082V5.65882L615.185 4.63413L613.136 6.0687ZM686.913 27.7921L691.012 31.481L693.062 28.202L688.963 24.3082L686.913 27.7921ZM670.518 59.3526L674.617 63.2464L682.815 63.6563L688.963 58.3279V57.9181L691.012 50.9502L686.913 48.9008L684.864 51.9748L682.815 54.6391L680.765 54.2292L674.617 55.0489L670.518 59.3526ZM641.827 72.4687L639.778 70.0094L635.679 73.4934L639.778 76.5674L641.827 72.4687ZM641.827 56.0736L631.58 54.844V61.1971V65.7057H633.629V64.4761L635.679 64.681L637.728 63.8613L635.679 62.4267V61.402V61.1971L641.827 62.0168L643.876 58.5329L641.827 56.0736ZM650.025 54.0242L647.975 56.0736V58.5329V60.9921L650.025 61.402V61.1971L652.074 60.9921V63.0415L654.123 65.9107L660.271 63.8613L666.42 59.1477L668.469 56.0736V52.7946L666.42 51.565H662.321L658.222 48.9008L654.123 47.8761L650.025 54.0242ZM645.926 42.9576L647.975 46.0316L652.074 44.802L650.025 41.7279L645.926 42.9576ZM641.827 48.286L639.778 47.2613L637.728 49.5156L639.778 50.1304L641.827 48.286ZM641.827 30.8662L639.778 28.407L637.728 26.3576L635.679 24.3082V22.2588L633.629 22.8736L631.58 24.3082L633.629 28.6119L635.679 33.7354L637.728 39.8835L643.876 43.1625L641.827 30.8662ZM645.926 29.4317L643.876 26.9724L641.827 27.1773L643.876 31.481V36.1946L645.926 39.8835L647.975 40.2934V31.8909L645.926 29.4317ZM652.074 29.8415L654.123 27.3823L650.025 27.1773L647.975 29.4317L652.074 29.8415ZM666.42 47.4662L670.518 43.5724L666.42 41.7279L660.271 45.007L666.42 47.4662ZM664.37 23.6934L662.321 24.923V28.202L664.37 26.9724V23.6934ZM672.568 8.52796L668.469 7.7082V7.09339L666.42 7.29833V9.14277L664.37 11.1922L668.469 13.0366L674.617 10.3724L672.568 8.52796ZM656.173 15.086V21.0292L662.321 22.0539L660.271 15.086H656.173ZM645.926 19.5946V17.1354L643.876 17.9551V22.8736L647.975 24.923H654.123L656.173 25.3329V24.923L654.123 19.3897L647.975 21.2341L645.926 19.5946ZM252.445 341.143H250.395L248.346 343.192H242.198L236.05 345.241L231.951 343.192L229.901 341.143L223.753 343.192H215.556L207.358 349.34L205.309 357.538L203.259 365.735H201.21L199.161 363.686L197.111 361.636V363.686H195.062L190.963 361.636L188.914 355.488L184.815 349.34L180.716 347.291L178.667 349.34V347.291L180.716 345.241H184.815L182.766 334.995L176.617 326.797L172.519 328.846L168.42 330.896L166.371 347.291H168.42L172.519 349.34L168.42 355.488L162.272 361.636L160.222 359.587H158.173V361.636L154.074 355.488L149.975 347.291L145.877 351.39L141.778 353.439L139.729 351.39L137.679 349.34L135.63 355.488L133.58 361.636L131.531 365.735L127.432 369.834L129.482 378.032L133.58 384.18L129.482 388.278L125.383 392.377V394.427L123.334 400.575L119.235 406.723L117.185 404.673L115.136 406.723L113.087 408.772L111.037 414.92L108.988 421.069L106.938 425.167V433.365H108.988L111.037 435.414V437.464V439.513L115.136 441.562H117.185L119.235 445.661V447.71H121.284L123.334 449.76L125.383 451.809L127.432 453.859L129.482 455.908V460.007H135.63L139.729 457.957V460.007H141.778L143.827 462.056L145.877 464.106V466.155L147.926 470.254H149.975L154.074 472.303V474.352V476.402H160.222L164.321 474.352L168.42 480.501L174.568 490.748L178.667 488.698H186.864V490.748V496.896H190.963L193.013 505.093L203.259 507.143L205.309 511.241L209.408 515.34L213.506 513.291H217.605L229.901 509.192L231.951 505.093L234 498.945L244.247 490.748L252.445 482.55L250.395 478.451L248.346 474.352H246.296L244.247 476.402H242.198H236.05L234 480.501V482.55H229.901L227.852 480.501H225.803H223.753L221.704 478.451L223.753 470.254L229.901 462.056H234L240.148 460.007L238.099 455.908V451.809L242.198 445.661V435.414L238.099 427.217V419.019L252.445 423.118L266.79 433.365V439.513L268.84 441.562L272.938 437.464L274.988 441.562L279.087 439.513H281.136V441.562L283.185 443.612L285.235 441.562H287.284L291.383 445.661L293.432 447.71L295.482 445.661L297.531 443.612V441.562L295.482 439.513L297.531 431.315L299.58 425.167L297.531 423.118H293.432L295.482 416.97L301.63 408.772L307.778 400.575L303.679 396.476L299.58 394.427H295.482L291.383 396.476V398.525H287.284V396.476L285.235 394.427L283.185 390.328L277.037 378.032L268.84 365.735V361.636V359.587L258.593 367.785L260.642 363.686L258.593 361.636L256.543 359.587L260.642 357.538L252.445 341.143Z" fill="#E11E28"/>
<path d="M455.333 265.316V263.266H457.383L455.333 261.217V259.167V257.118H461.481L465.58 259.167V257.118V255.069H467.63V253.019V250.97H473.778L479.926 253.019H481.975H486.074L488.123 255.069V257.118L492.222 261.217L494.272 267.365H492.222H490.173V271.464L484.025 269.414L486.074 271.464H488.123V273.513L486.074 275.562L481.975 273.513H479.926L481.975 275.562V277.612L477.876 279.661L475.827 277.612L473.778 281.711L471.728 285.809L469.679 289.908H467.63L463.531 298.106L461.481 306.303L459.432 316.55V326.797L461.481 332.945L463.531 339.093H459.432L457.383 337.044V339.093V341.143L453.284 334.995V330.896L451.235 332.945V334.995V337.044L449.185 334.995L447.136 330.896L445.086 326.797H443.037V328.846H440.988H438.938V324.748L436.889 320.649H432.79L430.741 316.55V312.451H432.79L434.839 310.402V308.353L436.889 310.402H438.938H440.988L438.938 306.303L436.889 304.254L438.938 296.056M455.333 265.316H457.383M455.333 265.316L453.284 267.365L447.136 271.464L443.037 275.562L440.988 273.513V271.464L438.938 269.414L434.839 271.464L430.741 275.562L428.691 281.711V287.859H430.741H432.79V289.908L434.839 287.859L436.889 285.809V287.859L434.839 291.957L438.938 296.056M438.938 296.056L440.988 294.007M533.21 240.723L529.111 246.871L525.012 248.92L522.963 250.97L520.913 253.019V248.92V244.822V242.772H518.864V244.822H516.815V246.871L518.864 248.92L516.815 253.019L514.765 257.118V255.069L512.716 250.97L508.617 248.92V250.97L510.667 253.019L512.716 257.118L510.667 259.167H506.568L504.518 253.019V255.069V257.118L506.568 261.217L502.469 263.266L500.42 265.316V263.266L498.37 265.316L494.272 263.266V257.118L492.222 259.167L490.173 255.069L486.074 250.97H481.975H479.926V248.92L484.025 246.871H490.173H496.321V244.822L488.123 242.772L484.025 236.624L486.074 238.674L488.123 236.624L492.222 234.575L496.321 236.624V238.674V234.575L500.42 232.525L504.518 236.624L506.568 238.674L504.518 234.575V230.476L506.568 232.525H508.617V230.476L506.568 228.427H510.667H512.716H514.765L512.716 224.328L514.765 222.278L520.913 224.328L525.012 226.377L522.963 224.328V222.278L520.913 220.229H518.864L522.963 218.18H527.062L525.012 216.13V214.081H522.963V212.032L527.062 207.933L529.111 212.032V214.081L533.21 212.032L535.259 209.982L537.309 207.933L539.358 209.982L541.407 212.032L543.457 209.982V205.883H549.605V203.834H551.654H553.704L557.802 201.785H563.95L568.049 203.834L572.148 201.785H576.247V203.834H574.197L580.346 201.785L582.395 197.686L586.494 199.735L592.642 205.883H619.284V207.933H621.333L623.383 205.883V203.834L635.679 199.735L645.926 203.834L647.975 209.982L643.876 214.081L639.778 220.229L633.629 224.328L613.136 226.377H590.592H588.543H584.444H578.296L572.148 228.427H570.099L568.049 230.476V228.427L561.901 230.476L557.802 232.525M533.21 240.723L531.16 238.674V236.624H533.21V240.723ZM533.21 240.723L537.309 242.772L539.358 240.723L541.407 236.624M541.407 236.624V234.575M541.407 236.624L543.457 242.772L545.506 240.723V236.624H547.555V238.674V240.723L551.654 238.674V236.624L553.704 238.674L555.753 236.624V234.575L553.704 232.525H555.753H557.802M557.802 232.525L559.852 230.476M201.21 365.735H203.259L205.309 357.538L207.358 349.34L215.556 343.192H223.753L229.901 341.143L231.951 343.192L236.05 345.241L242.198 343.192H248.346L250.395 341.143H252.445L260.642 357.538L256.543 359.587M201.21 365.735L199.161 367.785M201.21 365.735L199.161 363.686L197.111 361.636V363.686H195.062L190.963 361.636L188.914 355.488L184.815 349.34L180.716 347.291L178.667 349.34V347.291L180.716 345.241H184.815L182.766 334.995L176.617 326.797L172.519 328.846L168.42 330.896L166.371 347.291H168.42L172.519 349.34L168.42 355.488L162.272 361.636L160.222 359.587H158.173V361.636L154.074 355.488L149.975 347.291L145.877 351.39L141.778 353.439L139.729 351.39L137.679 349.34L135.63 355.488L133.58 361.636L131.531 365.735L127.432 369.834L129.482 378.032L133.58 384.18L129.482 388.278L125.383 392.377V394.427L123.334 400.575L119.235 406.723L117.185 404.673L115.136 406.723L113.087 408.772L111.037 414.92L108.988 421.069L106.938 425.167V433.365H108.988L111.037 435.414V437.464V439.513L115.136 441.562H117.185L119.235 445.661V447.71H121.284L123.334 449.76L125.383 451.809L127.432 453.859L129.482 455.908V460.007H135.63L139.729 457.957V460.007H141.778L143.827 462.056L145.877 464.106V466.155L147.926 470.254H149.975L154.074 472.303V474.352V476.402H160.222L164.321 474.352L168.42 480.501L174.568 490.748L178.667 488.698H186.864V490.748V496.896H190.963L193.013 505.093L203.259 507.143L205.309 511.241L209.408 515.34L213.506 513.291H217.605L229.901 509.192L231.951 505.093L234 498.945L244.247 490.748L252.445 482.55L250.395 478.451L248.346 474.352H246.296L244.247 476.402H242.198H236.05L234 480.501V482.55H229.901L227.852 480.501H225.803H223.753L221.704 478.451L223.753 470.254L229.901 462.056H234L240.148 460.007L238.099 455.908V451.809L242.198 445.661V435.414L238.099 427.217V419.019L252.445 423.118L266.79 433.365V439.513L268.84 441.562L272.938 437.464L274.988 441.562L279.087 439.513H281.136V441.562L283.185 443.612L285.235 441.562H287.284L291.383 445.661L293.432 447.71L295.482 445.661L297.531 443.612V441.562L295.482 439.513L297.531 431.315L299.58 425.167L297.531 423.118H293.432L295.482 416.97L301.63 408.772L307.778 400.575L303.679 396.476L299.58 394.427H295.482L291.383 396.476V398.525H287.284V396.476L285.235 394.427L283.185 390.328L277.037 378.032L268.84 365.735V361.636V359.587L258.593 367.785L260.642 363.686L258.593 361.636L256.543 359.587M256.543 359.587L254.494 361.636M432.79 298.106V294.007H428.691V298.106L430.741 300.155L428.691 308.353L434.839 302.204V300.155L432.79 298.106ZM629.531 58.123V52.9995L625.432 51.9749L623.383 56.2786V62.4267L629.531 58.123ZM606.987 39.8835L604.938 45.007L611.086 46.0316L613.136 39.8835H606.987ZM629.531 40.7033L635.679 44.1872L637.728 42.1378L633.629 37.6292L629.531 40.7033ZM619.284 49.9255V51.565L623.383 48.9008H621.333L619.284 49.9255ZM617.234 33.5304V31.8909L615.185 31.686V33.9403V36.6045L617.234 33.5304ZM619.284 35.7847L617.234 37.4243V39.0638V41.7279L621.333 37.6292V36.3996L619.284 35.7847ZM631.58 35.9897L633.629 34.3502L627.481 27.5872L625.432 31.0712L627.481 34.5551L631.58 35.9897ZM588.543 44.802V46.2366L590.592 47.4662L592.642 44.5971V41.3181L588.543 41.1131V44.802ZM590.592 32.5057L586.494 35.1699L588.543 37.6292L590.592 35.3749V32.5057ZM574.197 2.78969V5.45388L576.247 5.86376V6.88845V8.52796V10.1675L582.395 9.96253L586.494 8.7329L588.543 8.32302V8.52796L590.592 8.93783L592.642 14.0613L594.691 12.4218V7.91314L592.642 3.60944H588.543L584.444 4.01931L582.395 3.81438L580.346 3.4045L576.247 1.56006L574.197 2.78969ZM606.987 11.602V10.3724L604.938 10.9872L600.839 11.807L598.79 12.6267V14.881V17.3403L590.592 17.5452L584.444 15.9057V17.3403L586.494 19.1847H584.444L582.395 18.1601V19.3897V21.0292V21.4391H580.346V17.9551L576.247 17.3403L574.197 20.2094V23.2835L578.296 23.0786V25.7428L576.247 26.9724L574.197 28.202L576.247 28.8168L578.296 28.6119L580.346 30.2514L582.395 28.407V29.6366L584.444 29.8415L586.494 26.7675L584.444 24.5131V24.3082L590.592 24.923L592.642 26.9724L594.691 25.5378L598.79 24.3082L611.086 23.6934L609.037 19.3897L604.938 17.9551V17.5452L606.987 16.1107L609.037 15.9057L611.086 13.8564V13.0366H606.987V11.602ZM613.136 6.0687L611.086 7.91314L613.136 8.52796L617.234 7.7082V5.65882L615.185 4.63413L613.136 6.0687ZM686.913 27.7921L691.012 31.481L693.062 28.202L688.963 24.3082L686.913 27.7921ZM670.518 59.3526L674.617 63.2464L682.815 63.6563L688.963 58.3279V57.9181L691.012 50.9502L686.913 48.9008L684.864 51.9748L682.815 54.6391L680.765 54.2292L674.617 55.0489L670.518 59.3526ZM641.827 72.4687L639.778 70.0094L635.679 73.4934L639.778 76.5674L641.827 72.4687ZM641.827 56.0736L631.58 54.844V61.1971V65.7057H633.629V64.4761L635.679 64.681L637.728 63.8613L635.679 62.4267V61.402V61.1971L641.827 62.0168L643.876 58.5329L641.827 56.0736ZM650.025 54.0242L647.975 56.0736V58.5329V60.9921L650.025 61.402V61.1971L652.074 60.9921V63.0415L654.123 65.9107L660.271 63.8613L666.42 59.1477L668.469 56.0736V52.7946L666.42 51.565H662.321L658.222 48.9008L654.123 47.8761L650.025 54.0242ZM645.926 42.9576L647.975 46.0316L652.074 44.802L650.025 41.7279L645.926 42.9576ZM641.827 48.286L639.778 47.2613L637.728 49.5156L639.778 50.1304L641.827 48.286ZM641.827 30.8662L639.778 28.407L637.728 26.3576L635.679 24.3082V22.2588L633.629 22.8736L631.58 24.3082L633.629 28.6119L635.679 33.7354L637.728 39.8835L643.876 43.1625L641.827 30.8662ZM645.926 29.4317L643.876 26.9724L641.827 27.1773L643.876 31.481V36.1946L645.926 39.8835L647.975 40.2934V31.8909L645.926 29.4317ZM652.074 29.8415L654.123 27.3823L650.025 27.1773L647.975 29.4317L652.074 29.8415ZM666.42 47.4662L670.518 43.5724L666.42 41.7279L660.271 45.007L666.42 47.4662ZM664.37 23.6934L662.321 24.923V28.202L664.37 26.9724V23.6934ZM672.568 8.52796L668.469 7.7082V7.09339L666.42 7.29833V9.14277L664.37 11.1922L668.469 13.0366L674.617 10.3724L672.568 8.52796ZM656.173 15.086V21.0292L662.321 22.0539L660.271 15.086H656.173ZM645.926 19.5946V17.1354L643.876 17.9551V22.8736L647.975 24.923H654.123L656.173 25.3329V24.923L654.123 19.3897L647.975 21.2341L645.926 19.5946Z" stroke="white" stroke-width="2"/>
</svg>
