<svg width="800" height="518" viewBox="0 0 800 518" fill="none" xmlns="http://www.w3.org/2000/svg">
<path d="M537.96 87.8702H528.445H499.902V106.899H490.388L480.873 87.8702L433.301 116.413L404.758 144.957L366.7 87.8702L376.214 78.3558L366.7 68.8414H357.185V59.327V49.8126L347.671 40.2982L338.156 11.7549V2.24023L281.07 21.2694L214.469 49.8126L204.954 59.327H176.411L147.868 49.8126H128.839L119.324 59.327L109.81 40.2982H100.295L90.7808 49.8126L71.752 68.8414L138.353 411.361L176.411 401.847V392.333V382.818H185.925H195.44V373.303L204.954 363.789L223.983 411.361L243.012 449.419L281.07 458.933L300.098 468.448H328.642H338.156V458.933H347.671H357.185H366.7L376.214 449.419L414.272 477.962L433.301 516.02H461.844V506.506V487.477V477.962L442.815 458.933L423.786 439.905L442.815 430.39L461.844 439.905V430.39H471.358L490.388 420.876H528.445H556.988L566.503 411.361L576.018 401.847H585.532H595.046L604.561 382.818L614.075 363.789L623.59 373.303L633.104 382.818H642.618H661.647L671.162 392.333L690.191 373.303L680.676 354.275L690.191 335.246L718.734 325.731V297.188L709.22 278.159L718.734 268.645V259.13L709.22 249.616L718.734 230.587L728.248 211.558H718.734L699.705 202.043L690.191 183.015V154.471L680.676 144.957L671.162 135.443L661.647 125.928V106.899H652.133L633.104 97.3846V78.3558L614.075 59.327L585.532 78.3558L576.018 87.8702H556.988L537.96 78.3558V87.8702Z" fill="#E11E28" stroke="white" stroke-width="2"/>
</svg>
