<svg width="800" height="518" viewBox="0 0 800 518" fill="none" xmlns="http://www.w3.org/2000/svg">
<path d="M553.331 258.79L579.02 242.734L582.231 210.623L567.781 178.512L553.331 162.456L456.997 114.29L381.536 82.1785L363.875 50.0669L349.425 34.0113H338.186H328.552H291.624L261.119 1.90015L203.318 98.2341L224.191 114.29L256.302 146.401L264.33 178.512L275.569 210.623L277.174 226.679L330.158 242.734L381.536 274.846H379.93H375.114L363.875 339.068V387.235L384.747 403.291L405.619 387.235L424.886 451.458L463.42 515.68L474.659 499.625L489.109 483.569L505.164 451.458L529.248 403.291H545.303L561.359 387.235L558.148 355.124V306.957H580.626L596.681 274.846H574.203L553.331 242.734V258.79Z" fill="#E11E28" stroke="white" stroke-width="2"/>
</svg>
