<svg width="800" height="517" viewBox="0 0 800 517" fill="none" xmlns="http://www.w3.org/2000/svg">
<path d="M469.32 25.9258L461.164 17.7709V9.61567H436.699L412.233 1.46021L387.767 9.61567L363.301 17.7709H346.991H330.681L298.06 34.0813L265.439 42.2365L257.283 34.0813V42.2365L249.128 50.3917L257.283 58.5469V74.8574L249.128 91.1678L240.973 99.323H224.662V107.478L216.507 123.789L200.197 156.41L192.042 180.876V205.341V229.807L200.197 237.962L208.352 246.117V254.273L216.507 262.428H224.662L216.507 286.894V303.204L224.662 319.514V327.67H216.507H208.352L216.507 352.135L224.662 376.601H232.818L249.128 360.291L273.594 368.446L257.283 392.912L240.973 409.222L249.128 417.377L257.283 425.532L240.973 466.309H249.128L257.283 482.619L265.439 490.774H281.749H298.06L314.37 498.93L322.525 507.085L355.146 515.24L371.457 482.619H387.767L395.922 466.309V458.154H404.078V449.998V441.843L420.388 425.532L428.543 417.377L453.009 376.601L477.475 335.825H485.63H493.785L510.096 327.67H518.251L534.561 335.825V343.98L542.717 327.67L567.182 303.204L583.493 278.738L542.717 270.583L493.785 278.738L485.63 270.583V262.428H469.32H453.009V254.273L436.699 197.186V189.031H444.854V180.876L453.009 172.72L477.475 164.565L501.94 180.876L493.785 197.186V213.496L510.096 205.341L518.251 213.496V221.652V229.807H526.406L534.561 221.652L542.717 205.341L559.027 213.496H567.182L575.338 205.341H583.493H591.648H607.959L599.803 197.186L591.648 189.031L607.959 156.41V131.944H599.803L575.338 115.634L542.717 99.323L534.561 91.1678H526.406V74.8574V66.7021H510.096H493.785V58.5469L485.63 34.0813H477.475L469.32 25.9258Z" fill="#E11E28" stroke="white" stroke-width="2"/>
</svg>
