<svg width="800" height="517" viewBox="0 0 800 517" fill="none" xmlns="http://www.w3.org/2000/svg">
<path d="M513.766 73.3969L495.416 91.7461H475.232H462.388H456.883H438.534H420.184L385.321 73.3969H346.787L315.593 18.3492L260.545 0L244.031 18.3492L238.526 55.0477L227.517 73.3969H214.672L187.148 110.096L157.79 146.794L141.275 183.493H128.431L143.11 201.842L139.44 220.191H150.45L196.323 238.541L231.187 220.191L247.701 238.541L258.711 275.239L293.574 293.589L322.933 311.938L366.971 366.986L372.476 422.033L348.622 458.732L344.952 513.78L379.816 477.081L412.845 513.78L425.689 495.431L434.864 477.081L445.873 495.431H453.213L499.086 477.081L519.27 458.732L563.309 440.383L568.813 403.684L576.153 366.986L605.512 385.335L645.88 366.986H658.725L666.065 348.636L623.861 275.239L642.211 238.541L671.569 220.191L653.22 128.445L642.211 55.0477L577.988 73.3969H513.766Z" fill="#E11E28" stroke="white" stroke-width="2"/>
</svg>
