<svg width="800" height="518" viewBox="0 0 800 518" fill="none" xmlns="http://www.w3.org/2000/svg">
<path d="M605.512 43.1229H595.236L584.961 32.8472V22.5716L579.823 27.7094H564.409H559.272H548.996L543.858 22.5716L538.721 17.4339L533.583 27.7094L518.169 37.985H507.894H492.48L487.342 32.8472H482.205V27.7094H477.067L466.791 32.8472L461.653 43.1229H456.516L451.378 37.985L441.102 48.2607L425.689 58.5363L430.827 84.2252H441.102V89.3632V94.5009L451.378 99.6386L456.516 109.914H451.378H446.24V120.19L435.965 161.292L441.102 202.395L456.516 145.879L466.791 125.328L482.205 120.19L477.067 186.981L466.791 258.911L461.653 264.048L456.516 269.186V264.048V253.773L451.378 248.635L446.24 258.911L441.102 269.186H446.24H456.516V279.462L451.378 289.737H446.24H441.102L430.827 305.151L415.413 325.702L353.76 351.391L348.622 366.804L343.484 382.218L307.519 402.769L286.968 407.907L281.83 413.045L266.417 428.458H245.866L240.728 433.596H235.59V423.32V413.045L230.453 402.769L220.177 397.631V387.355L215.039 377.08L179.074 346.253L173.937 351.391H168.799L163.661 341.115L158.523 325.702L132.834 310.289L112.283 294.875L107.145 279.462V269.186L81.4562 289.737L60.9051 305.151L55.7673 300.013H50.6295V310.289V325.702L45.4917 330.84V335.977V341.115L50.6295 346.253V351.391V356.529L55.7673 361.667L66.0428 366.804L102.007 387.355L132.834 402.769H137.972L143.11 407.907L163.661 413.045L179.074 418.182V449.009L209.901 484.974L256.141 495.249L297.244 484.974L307.519 479.836H312.657L333.209 484.974L353.76 490.112H364.035H369.173L384.586 500.387L394.862 510.663H405.138L415.413 515.801V495.249L425.689 479.836H435.965L446.24 469.56L435.965 464.423L425.689 454.147L430.827 443.871L441.102 433.596L435.965 418.182L441.102 407.907H461.653L477.067 413.045L487.342 402.769L502.756 392.493H518.169L528.445 397.631L533.583 392.493L543.858 382.218L554.134 371.942L564.409 366.804L574.685 361.667L579.823 346.253L584.961 341.115H590.098L600.374 346.253L605.512 335.977L615.787 330.84L641.477 325.702L667.165 305.151L656.89 274.324L646.614 253.773L656.89 248.635V243.497L687.717 217.808L713.406 192.119L723.681 186.981L733.957 181.843H744.233L754.508 176.706V140.741L728.819 120.19L713.406 109.914V94.5009V89.3632L708.268 79.0874V73.9497L703.13 63.6741V58.5363V48.2607L697.992 43.1229L692.854 37.985H687.717L697.992 32.8472L692.854 22.5716L703.13 12.2961H708.268L713.406 7.15829L687.717 2.02051L662.028 32.8472L636.339 43.1229L615.787 37.985L605.512 43.1229Z" fill="#E11E28"/>
<path d="M456.516 269.186L461.653 264.048L466.791 258.911L477.067 186.981L482.205 120.19L466.791 125.328L456.516 145.879L441.102 202.395L435.965 161.292L446.24 120.19V109.914H451.378H456.516L451.378 99.6386L441.102 94.5009V89.3632V84.2252H430.827L425.689 58.5363L441.102 48.2607L451.378 37.985L456.516 43.1229H461.653L466.791 32.8472L477.067 27.7094H482.205V32.8472H487.342L492.48 37.985H507.894H518.169L533.583 27.7094L538.721 17.4339L543.858 22.5716L548.996 27.7094H559.272H564.409H579.823L584.961 22.5716V32.8472L595.236 43.1229H605.512L615.787 37.985L636.339 43.1229L662.028 32.8472L687.717 2.02051L713.406 7.15829L708.268 12.2961H703.13L692.854 22.5716L697.992 32.8472L687.717 37.985H692.854L697.992 43.1229L703.13 48.2607V58.5363V63.6741L708.268 73.9497V79.0874L713.406 89.3632V94.5009V109.914L728.819 120.19L754.508 140.741V176.706L744.233 181.843H733.957L723.681 186.981L713.406 192.119L687.717 217.808L656.89 243.497V248.635L646.614 253.773L656.89 274.324L667.165 305.151L641.477 325.702L615.787 330.84L605.512 335.977L600.374 346.253L590.098 341.115H584.961L579.823 346.253L574.685 361.667L564.409 366.804L554.134 371.942L543.858 382.218L533.583 392.493L528.445 397.631L518.169 392.493H502.756L487.342 402.769L477.067 413.045L461.653 407.907H441.102L435.965 418.182L441.102 433.596L430.827 443.871L425.689 454.147L435.965 464.423L446.24 469.56L435.965 479.836H425.689L415.413 495.249V515.801L405.138 510.663H394.862L384.586 500.387L369.173 490.112H364.035H353.76L333.209 484.974L312.657 479.836H307.519L297.244 484.974L256.141 495.249L209.901 484.974L179.074 449.009V418.182L163.661 413.045L143.11 407.907L137.972 402.769H132.834L102.007 387.355L66.0428 366.804L55.7673 361.667L50.6295 356.529V351.391V346.253L45.4917 341.115V335.977V330.84L50.6295 325.702V310.289V300.013H55.7673L60.9051 305.151L81.4562 289.737L107.145 269.186V279.462L112.283 294.875L132.834 310.289L158.523 325.702L163.661 341.115L168.799 351.391H173.937L179.074 346.253L215.039 377.08L220.177 387.355V397.631L230.453 402.769L235.59 413.045V423.32V433.596H240.728L245.866 428.458H266.417L281.83 413.045L286.968 407.907L307.519 402.769L343.484 382.218L348.622 366.804L353.76 351.391L415.413 325.702L430.827 305.151L441.102 289.737H446.24H451.378L456.516 279.462V269.186ZM456.516 269.186V264.048V253.773L451.378 248.635L446.24 258.911L441.102 269.186H446.24H456.516Z" stroke="white" stroke-width="2"/>
</svg>
