<svg width="800" height="517" viewBox="0 0 800 517" fill="none" xmlns="http://www.w3.org/2000/svg">
<path d="M433.929 10.9342V40.016L414.541 78.792L424.235 88.4859L433.929 98.1799H414.541H404.847H395.153L385.459 107.874H375.765L356.377 98.1799L346.683 117.568L336.989 127.262H327.295V117.568V107.874L317.601 98.1799L298.213 107.874V88.4859L307.907 78.792L278.825 49.7099L249.744 59.4038L240.05 69.0981V78.792H230.356V88.4859L249.744 156.343V166.038H269.131H288.519V175.732L298.213 185.426H356.377H404.847L385.459 214.507L356.377 243.589L346.683 262.977L336.989 253.283L327.295 243.589L317.601 253.283H298.213H288.519H278.825L249.744 301.753L220.662 350.223L210.968 359.917L191.58 379.305V388.999V398.693H181.886V408.387L191.58 418.081V427.775V437.468H201.274L210.968 427.775L240.05 447.162L269.131 466.551L249.744 485.938L230.356 505.326H240.05L278.825 515.02L317.601 505.326L327.295 476.245V456.857L336.989 447.162H346.683L356.377 437.468H366.071L404.847 456.857L433.929 476.245L414.541 437.468L395.153 408.387L414.541 388.999H433.929L414.541 379.305L395.153 359.917H404.847L414.541 350.223L424.235 340.529L414.541 330.835H424.235H433.929H443.623H453.317V340.529L463.011 350.223L492.093 359.917L511.48 369.611V379.305L521.175 388.999L530.869 379.305H559.95L589.032 388.999V379.305V369.611L579.338 359.917L598.726 340.529V321.141L569.644 301.753L530.869 272.671L550.256 253.283L559.95 243.589L569.644 224.201V214.507H579.338L589.032 204.813H598.726H608.42L618.114 166.038V117.568L608.42 98.1799V88.4859L598.726 78.792L579.338 69.0981H569.644L559.95 78.792L511.48 49.7099L463.011 10.9342V1.24023H453.317H443.623L433.929 10.9342Z" fill="#E11E28" stroke="white" stroke-width="2"/>
</svg>
