<svg width="800" height="517" viewBox="0 0 800 517" fill="none" xmlns="http://www.w3.org/2000/svg">
<path d="M216.884 226.361H213.363L209.841 236.925L223.927 243.968L230.97 240.447L238.013 233.404L234.492 229.882L230.97 222.84H223.927L216.884 226.361ZM315.485 2.74865L304.921 9.79156V12.6087V14.7216L301.399 16.8345L297.878 19.6516L294.356 34.7939L297.878 50.2883L301.399 58.3876L308.442 62.6134L311.964 64.3741L319.007 45.0061L329.571 39.3718L333.092 35.8503V31.6246L340.135 16.4823L336.614 1.34009L329.571 2.39652L315.485 2.74865ZM554.944 75.9949L551.422 81.6292L547.901 85.5028L544.38 89.0243L547.901 89.7286L551.422 87.2635L558.465 89.0243L565.508 91.8414V92.5457V96.0672V99.5886H572.551L579.594 103.11H576.073H572.551V106.632V110.153H569.03L565.508 106.632L561.987 110.153H558.465H551.422V103.11L544.38 99.5886L530.294 89.3764L526.772 88.6721H523.251V88.32V91.4893V96.0672L519.73 95.0108V93.6022L516.208 89.0243L509.165 85.5028L502.122 87.6157L498.601 91.1372L509.165 92.8979L505.644 96.0672L498.601 103.11L495.079 96.0672L491.558 92.1936L488.036 95.3629L480.993 99.5886L477.472 96.0672L473.951 95.3629L463.386 99.5886L452.822 106.632L449.3 103.11H445.779L438.736 106.632L431.693 110.153L428.172 106.632L421.129 103.11L410.564 106.632L400 113.674H389.436H382.393L378.871 117.196L371.828 120.717V117.196H375.35V113.674H371.828L364.785 117.196L361.264 120.717L354.221 124.239H347.178L343.657 127.76L333.092 131.282L322.528 134.803H319.007V138.325V141.846L315.485 138.325H311.964L297.878 155.932L294.356 159.453L287.313 166.496H283.792H280.271L283.792 170.018V173.539H276.749L269.706 177.061L266.185 180.582L259.142 184.103L248.578 191.146L238.013 194.668L241.535 198.189L245.056 201.711L248.578 208.754V215.797V219.318H255.62L259.142 215.797L276.749 226.361L280.271 243.968L276.749 251.011V258.054H266.185L259.142 251.011L248.578 254.533L238.013 258.054L230.97 251.011L213.363 243.968L209.841 247.49V254.533V265.097L202.799 272.14H195.756L188.713 275.661L185.191 279.183L178.149 286.226L167.584 289.747L160.541 286.226V289.747L157.02 293.269L153.498 296.79H149.977L146.455 303.833V307.354L142.934 310.876L139.412 314.397L142.934 321.44L146.455 324.962H149.977L153.498 328.483L157.02 335.526H160.541L167.584 339.048V342.569V346.09L174.627 356.655L178.149 363.698L171.106 367.219L167.584 370.741L142.934 398.912L125.327 423.562L128.848 427.084L132.37 430.605L128.848 437.648V444.691L149.977 458.777L171.106 465.82V469.341L167.584 472.863L174.627 486.949L181.67 497.513H192.234L199.277 501.034L202.799 515.12H209.841H213.363L220.406 511.599H223.927H230.97L238.013 515.12H241.535H255.62L266.185 508.077L276.749 511.599H287.313H290.835H294.356L301.399 504.556L311.964 497.513L308.442 490.47L315.485 483.427L319.007 479.906L326.05 476.384H329.571H333.092H336.614V472.863L350.7 465.82H354.221L361.264 462.298L368.307 455.255L371.828 451.734L378.871 448.213H385.914L389.436 451.734L400 448.213L410.564 444.691H417.607L421.129 448.213H428.172H438.736L442.257 465.82L445.779 486.949L459.865 483.427H473.951L488.036 486.949L498.601 490.47H502.122L505.644 486.949H509.165L512.686 483.427V476.384V472.863H516.208L523.251 465.82L558.465 427.084L561.987 430.605L569.03 434.127L576.073 430.605H583.115V434.127L586.637 437.648L590.158 427.084V412.998L597.201 391.869L604.244 370.741H600.723H597.201V367.219L593.68 363.698H597.201V360.176L604.244 367.219L621.852 356.655L639.459 346.09L635.937 342.569V339.048V328.483L625.373 324.962L614.809 321.44V314.397L604.244 317.919L593.68 314.397L576.073 303.833L554.944 293.269L551.422 303.833L537.337 307.354L530.294 300.311L526.772 296.79L523.251 307.354V310.876H519.73H516.208V314.397V317.919L512.686 314.397L516.208 310.876H512.686H509.165H502.122V314.397L505.644 321.44L498.601 324.962L495.079 328.483L498.601 321.44L502.122 317.919V314.397L498.601 307.354H502.122L523.251 296.79L519.73 293.269V289.747H526.772H533.815L547.901 279.183L554.944 258.054L551.422 236.925L544.38 215.797H533.815L519.73 212.275L516.208 201.711L519.73 194.668H516.208L512.686 191.146L519.73 187.625L523.251 191.146V184.103V177.061L530.294 187.625L533.815 198.189H540.858L544.38 194.668H547.901L554.944 208.754L558.465 205.232L561.987 201.711L569.03 184.103L576.073 173.539L583.115 170.018L593.68 166.496L604.244 173.539L611.287 177.061L625.373 173.539L635.937 166.496L639.459 162.975L642.98 159.453L653.545 162.975L664.109 159.453V155.932V152.41L660.588 148.889V145.368L667.631 152.41L671.152 155.932L674.673 148.889L667.631 141.846H671.152L674.673 138.325V134.803H667.631L660.588 138.325L657.066 134.803L653.545 131.282V134.803H650.023L653.545 127.76V113.674L650.023 110.153L646.502 106.632L639.459 103.11H635.937H632.416H625.373H621.852L628.894 99.5886L635.937 96.0672L642.98 90.0807L646.502 82.3335V79.8685L639.459 80.9249L632.416 78.4599L639.459 75.9949L650.023 69.6563L642.98 65.0784L639.459 61.5569V49.9361V41.4847L635.937 42.5411L632.416 45.3583L628.894 46.0625L625.373 46.4147L614.809 49.2318L607.766 51.6969L590.158 52.049H579.594L572.551 60.8526L569.03 69.6563L565.508 72.4734V72.1213V73.1777L569.03 75.9949V78.812L561.987 76.6992L558.465 73.1777L554.944 75.9949Z" fill="#E11E28"/>
<path d="M516.208 310.876H519.73H523.251V307.354L526.772 296.79L530.294 300.311L537.337 307.354L551.422 303.833L554.944 293.269L576.073 303.833L593.68 314.397L604.244 317.919L614.809 314.397V321.44L625.373 324.962L635.937 328.483V339.048V342.569L639.459 346.09L621.852 356.655L604.244 367.219L597.201 360.176V363.698H593.68L597.201 367.219V370.741H600.723H604.244L597.201 391.869L590.158 412.998V427.084L586.637 437.648L583.115 434.127V430.605H576.073L569.03 434.127L561.987 430.605L558.465 427.084L523.251 465.82L516.208 472.863H512.686V476.384V483.427L509.165 486.949H505.644L502.122 490.47H498.601L488.036 486.949L473.951 483.427H459.865L445.779 486.949L442.257 465.82L438.736 448.213H428.172H421.129L417.607 444.691H410.564L400 448.213L389.436 451.734L385.914 448.213H378.871L371.828 451.734L368.307 455.255L361.264 462.298L354.221 465.82H350.7L336.614 472.863V476.384H333.092H329.571H326.05L319.007 479.906L315.485 483.427L308.442 490.47L311.964 497.513L301.399 504.556L294.356 511.599H290.835H287.313H276.749L266.185 508.077L255.62 515.12H241.535H238.013L230.97 511.599H223.927H220.406L213.363 515.12H209.841H202.799L199.277 501.034L192.234 497.513H181.67L174.627 486.949L167.584 472.863L171.106 469.341V465.82L149.977 458.777L128.848 444.691V437.648L132.37 430.605L128.848 427.084L125.327 423.562L142.934 398.912L167.584 370.741L171.106 367.219L178.149 363.698L174.627 356.655L167.584 346.09V342.569V339.048L160.541 335.526H157.02L153.498 328.483L149.977 324.962H146.455L142.934 321.44L139.412 314.397L142.934 310.876L146.455 307.354V303.833L149.977 296.79H153.498L157.02 293.269L160.541 289.747V286.226L167.584 289.747L178.149 286.226L185.191 279.183L188.713 275.661L195.756 272.14H202.799L209.841 265.097V254.533V247.49L213.363 243.968L230.97 251.011L238.013 258.054L248.578 254.533L259.142 251.011L266.185 258.054H276.749V251.011L280.271 243.968L276.749 226.361L259.142 215.797L255.62 219.318H248.578V215.797V208.754L245.056 201.711L241.535 198.189L238.013 194.668L248.578 191.146L259.142 184.103L266.185 180.582L269.706 177.061L276.749 173.539H283.792V170.018L280.271 166.496H283.792H287.313L294.356 159.453L297.878 155.932L311.964 138.325H315.485L319.007 141.846V138.325V134.803H322.528L333.092 131.282L343.657 127.76L347.178 124.239H354.221L361.264 120.717L364.785 117.196L371.828 113.674H375.35V117.196H371.828V120.717L378.871 117.196L382.393 113.674H389.436H400L410.564 106.632L421.129 103.11L428.172 106.632L431.693 110.153L438.736 106.632L445.779 103.11H449.3L452.822 106.632L463.386 99.5886L473.951 95.3629L477.472 96.0672L480.993 99.5886L488.036 95.3629L491.558 92.1936L495.079 96.0672L498.601 103.11L505.644 96.0672L509.165 92.8979L498.601 91.1372L502.122 87.6157L509.165 85.5028L516.208 89.0243L519.73 93.6022V95.0108L523.251 96.0672V91.4893V88.32V88.6721H526.772L530.294 89.3764L544.38 99.5886L551.422 103.11V110.153H558.465H561.987L565.508 106.632L569.03 110.153H572.551V106.632V103.11H576.073H579.594L572.551 99.5886H565.508V96.0672V92.5457V91.8414L558.465 89.0243L551.422 87.2635L547.901 89.7286L544.38 89.0243L547.901 85.5028L551.422 81.6292L554.944 75.9949L558.465 73.1777L561.987 76.6992L569.03 78.812V75.9949L565.508 73.1777V72.1213V72.4734L569.03 69.6563L572.551 60.8526L579.594 52.049H590.158L607.766 51.6969L614.809 49.2318L625.373 46.4147L628.894 46.0625L632.416 45.3583L635.937 42.5411L639.459 41.4847V49.9361V61.5569L642.98 65.0784L650.023 69.6563L639.459 75.9949L632.416 78.4599L639.459 80.9249L646.502 79.8685V82.3335L642.98 90.0807L635.937 96.0672L628.894 99.5886L621.852 103.11H625.373H632.416H635.937H639.459L646.502 106.632L650.023 110.153L653.545 113.674V127.76L650.023 134.803H653.545V131.282L657.066 134.803L660.588 138.325L667.631 134.803H674.673V138.325L671.152 141.846H667.631L674.673 148.889L671.152 155.932L667.631 152.41L660.588 145.368V148.889L664.109 152.41V155.932V159.453L653.545 162.975L642.98 159.453L639.459 162.975L635.937 166.496L625.373 173.539L611.287 177.061L604.244 173.539L593.68 166.496L583.115 170.018L576.073 173.539L569.03 184.103L561.987 201.711L558.465 205.232L554.944 208.754L547.901 194.668H544.38L540.858 198.189H533.815L530.294 187.625L523.251 177.061V184.103V191.146L519.73 187.625L512.686 191.146L516.208 194.668H519.73L516.208 201.711L519.73 212.275L533.815 215.797H544.38L551.422 236.925L554.944 258.054L547.901 279.183L533.815 289.747H526.772H519.73V293.269L523.251 296.79L502.122 307.354H498.601L502.122 314.397M516.208 310.876V314.397V317.919L512.686 314.397L516.208 310.876ZM516.208 310.876H512.686H509.165H502.122V314.397M502.122 314.397L505.644 321.44L498.601 324.962L495.079 328.483L498.601 321.44L502.122 317.919V314.397ZM216.884 226.361H213.363L209.841 236.925L223.927 243.968L230.97 240.447L238.013 233.404L234.492 229.882L230.97 222.84H223.927L216.884 226.361ZM315.485 2.74865L304.921 9.79156V12.6087V14.7216L301.399 16.8345L297.878 19.6516L294.356 34.7939L297.878 50.2883L301.399 58.3876L308.442 62.6134L311.964 64.3741L319.007 45.0061L329.571 39.3718L333.092 35.8503V31.6246L340.135 16.4823L336.614 1.34009L329.571 2.39652L315.485 2.74865Z" stroke="white" stroke-width="2"/>
</svg>
