<svg width="800" height="520" viewBox="0 0 800 520" fill="none" xmlns="http://www.w3.org/2000/svg">
<path d="M186.411 221.231L236.586 148.456L197.667 51.2501L159.842 30.0395L155.596 4.58804L243.108 8.98424L334.699 27.4748L396.244 79.0559L385.213 4.12012L433.922 60.3911L440.055 86.1308L497.217 137.889L524.719 208.556L502.486 266.091L492.405 374.718L528.263 384.5L554.72 380.722L562.647 413.374L597.764 421.041L644.405 482.78L587.801 483.535L567.223 517.9L487.462 451.664L469.109 406.195L425.3 402.089L335.07 366.956L273.976 347.753L194.332 350.106L186.411 221.231Z" fill="#E11E28" stroke="white" stroke-width="2"/>
</svg>
