<svg width="800" height="518" viewBox="0 0 800 518" fill="none" xmlns="http://www.w3.org/2000/svg">
<path d="M452.73 28.9411L441.913 1.90015L401.352 28.9411L341.862 55.9821H317.525L339.157 83.023L398.648 110.065L341.862 245.27H339.157H336.453L325.637 272.311L239.106 299.352L163.391 272.311L152.574 245.27H136.35H101.196H87.6758L95.7881 272.311L90.3799 299.352H128.237L171.503 353.434L185.023 407.516L190.432 434.557L220.177 461.598L249.922 515.68L306.708 488.639H366.199L395.944 515.68L406.76 488.639H420.281H460.842H504.108L531.149 434.557L577.119 353.434L644.721 326.393L704.212 299.352L712.324 245.27L698.803 191.188H652.834H606.864L609.568 164.147L617.68 137.106H582.527L544.67 110.065L541.966 83.023L536.557 55.9821H523.037H495.996H474.363L452.73 28.9411Z" fill="#E11E28" stroke="white" stroke-width="2"/>
</svg>
