<svg width="800" height="517" viewBox="0 0 800 517" fill="none" xmlns="http://www.w3.org/2000/svg">
<path d="M549.601 102.641L528.445 72.4188L498.223 22.0483L482.104 11.9739L475.052 1.90015L456.919 11.9739L428.711 32.1224L414.608 22.0483L399.496 32.1224H405.541L403.526 52.2706H384.385H369.274L384.385 62.3447L379.348 92.5669H384.385L386.4 102.641L387.407 112.715L401.511 122.79H414.608L411.585 132.864L410.578 142.938H427.704H444.83L449.867 163.086L446.845 183.234L424.682 193.308L399.496 203.382L382.37 233.605L372.296 253.753H356.178H341.066H336.029L332 263.827L320.918 253.753H298.755L277.6 263.827L265.511 273.901L250.399 294.049L270.548 344.42L296.74 384.716L303.792 455.235L325.955 515.68H350.133L376.326 505.606H410.578L439.793 485.458V394.791L449.867 304.124L507.289 253.753L532.475 243.679L528.445 233.605H517.364H514.341L518.371 203.382L522.401 173.16L507.289 122.79L549.601 102.641Z" fill="#E11E28" stroke="white" stroke-width="2"/>
</svg>
