<svg width="800" height="517" viewBox="0 0 800 517" fill="none" xmlns="http://www.w3.org/2000/svg">
<path d="M668.567 235.096L621.859 211.743L575.152 188.389L551.798 141.681L528.445 94.9743L505.091 118.328L458.384 141.681L294.908 48.2672L178.14 1.56006L61.3721 48.2672L84.7256 118.328L61.3721 211.743H108.079H154.787L178.14 258.45L201.494 305.157L271.555 375.218H294.908V421.925V445.279L341.616 468.633L388.323 491.987H411.677L435.03 515.34L458.384 491.987L505.091 445.279L551.798 468.633L598.506 491.987L645.213 468.633L668.567 421.925L715.274 398.571H738.628V375.218L691.92 305.157H621.859L645.213 281.804L668.567 235.096Z" fill="#E11E28" stroke="white" stroke-width="2"/>
</svg>
