<svg width="800" height="516" viewBox="0 0 800 516" fill="none" xmlns="http://www.w3.org/2000/svg">
<path d="M426.423 1.02051H417.616V12.764H414.68L408.808 15.6999L405.872 18.6358L402.936 21.5717L400 18.6358H397.065H391.193V21.5717L385.321 36.2511L382.385 50.9305L385.321 56.8024L388.257 65.61L385.321 68.5459L382.385 74.4176L385.321 77.3535V83.2253L373.578 97.9047L358.898 112.584H353.026L350.09 115.52V118.456L347.154 133.135L353.026 156.622L361.834 159.558L367.706 165.43V168.366V171.302V174.238V177.174H364.77H361.834H358.898V180.11L355.962 183.045L353.026 185.981L358.898 191.853L364.77 200.661L361.834 209.468L355.962 215.34V218.276L350.09 227.084H347.154L344.219 224.148L341.283 221.212H335.411V218.276V215.34H332.475L326.603 212.404V206.533V203.597L323.667 200.661L314.86 203.597L308.988 206.533L306.052 212.404V215.34L282.565 230.02L270.822 253.507L273.757 256.443L270.822 259.378L273.757 262.314V268.186L262.014 262.314L256.142 244.699V238.827H253.206H250.27L247.334 241.763L244.398 253.507H232.655L226.783 250.571H217.976L209.168 247.635L200.36 262.314L194.489 276.994L197.424 279.93L203.296 285.801V291.673V300.481L206.232 303.417L203.296 306.353H200.36L191.553 312.224L179.809 323.968L176.873 332.776L179.809 338.647L176.873 341.583L173.937 344.519V350.391L171.001 359.199V368.006H168.065L159.258 370.942L150.45 376.814V379.75V382.686L153.386 385.622L159.258 388.557L165.13 397.365L171.001 406.173H176.873L191.553 417.916L206.232 429.66H212.104H217.976L220.911 432.596V438.467L223.847 441.403L235.591 432.596L247.334 420.852L250.27 426.724L253.206 435.532L264.95 444.339L279.629 453.147L282.565 461.955L285.501 467.826H288.437L291.373 464.89L311.924 482.506V488.378L314.86 494.249L317.796 497.185L323.667 503.057V508.929L320.732 514.801H326.603L329.539 511.865H341.283L350.09 503.057V500.121L329.539 494.249L338.347 491.313L353.026 485.442L350.09 482.506L344.219 479.57V476.634L341.283 473.698V470.762L350.09 479.57L361.834 485.442L397.065 447.275L441.103 382.686L438.167 359.199L441.103 335.711L444.039 329.84H446.975H449.911L446.975 323.968L441.103 321.032V318.096L438.167 315.16H435.231L432.295 300.481L438.167 294.609L446.975 288.737L449.911 291.673H452.846L455.782 285.801L461.654 279.93L464.59 282.866V285.801H467.526L470.462 288.737H479.269H485.141L493.949 282.866L496.885 276.994L499.821 279.93L502.756 282.866H505.692H511.564H517.436L523.308 279.93V285.801L529.179 291.673H535.051L540.923 288.737L552.667 291.673L567.346 285.801L582.025 268.186L593.769 271.122V274.058H590.833L593.769 276.994H599.641H602.577L608.448 279.93L611.384 276.994L617.256 271.122L620.192 274.058H623.128V265.25V256.443H620.192H617.256L614.32 235.891V232.955H617.256V230.02V224.148H620.192L623.128 221.212L617.256 215.34L623.128 209.468L631.935 212.404L637.807 215.34L649.551 212.404L646.615 206.533V203.597L643.679 200.661L640.743 194.789V188.917V185.981L637.807 180.11V174.238L634.871 168.366H620.192H605.513V165.43V162.494L602.577 159.558V153.687L596.705 150.751L590.833 144.879L582.025 141.943H570.282L561.474 147.815L555.602 150.751L549.731 153.687L546.795 162.494L543.859 168.366H540.923H537.987L526.244 185.981L511.564 200.661L514.5 191.853L508.628 188.917L505.692 183.045V180.11L499.821 185.981L493.949 188.917H491.013H488.077H485.141H482.205H479.269V191.853H476.333L467.526 188.917L464.59 194.789L449.911 197.725H446.975H444.039L441.103 185.981V171.302L444.039 168.366L446.975 165.43V159.558V156.622L452.846 139.007L458.718 124.328L449.911 115.52L446.975 100.841L452.846 94.9688L455.782 89.0971L449.911 80.2894L444.039 74.4176V59.7382L441.103 39.187L432.295 30.3794L420.552 27.4434L429.359 18.6358L432.295 15.6999L429.359 6.89226L426.423 1.02051Z" fill="#E11E28" stroke="white" stroke-width="2"/>
</svg>
