<svg width="800" height="518" viewBox="0 0 800 518" fill="none" xmlns="http://www.w3.org/2000/svg">
<path d="M440.007 250.808L431.585 242.385H410.528L389.472 238.174V225.54V208.694L381.049 204.483L376.838 191.849V179.215L381.049 175.004L385.26 166.581L376.838 158.159H372.626L368.415 153.947V149.736H359.993L355.781 153.947H351.57H338.936H330.513L322.091 158.159L309.457 145.525L301.034 132.891L309.457 128.679L313.668 124.468L305.246 120.257L301.034 116.045L288.4 107.623L275.766 103.412H271.555L267.344 107.623L263.132 103.412V99.2003H254.71L246.287 103.412L242.076 99.2003H237.865H233.653H229.442L225.231 90.7777L229.442 82.3551L216.808 78.1437L212.597 69.7211L216.808 61.2985H225.231L229.442 48.6646L237.865 36.0305V31.8192L233.653 27.6079V14.974L229.442 2.34009L221.019 6.55139L208.385 10.7627V14.974V19.1853H199.963L191.54 23.3966L183.117 27.6079L178.906 19.1853V14.974H170.484L162.061 19.1853H157.85L153.638 23.3966L145.216 27.6079L141.004 31.8192L136.793 57.0872L119.948 73.9324L103.103 90.7777L94.68 107.623L86.2573 128.679V132.891H90.4686L86.2573 141.313H77.8347L73.6234 153.947L69.4121 162.37V166.581L73.6234 170.793V175.004V183.427L86.2573 191.849L98.8913 200.272L111.525 229.751L115.737 238.174L124.159 250.808L115.737 267.653L111.525 284.498L107.314 292.921V305.555L115.737 309.766V318.188L111.525 335.034L107.314 351.879L119.948 360.302L132.582 368.724V385.569V406.626V415.049L136.793 419.26L149.427 423.471H162.061L166.272 415.049L174.695 410.837H178.906V415.049H191.54H204.174L212.597 419.26H216.808L221.019 415.049L225.231 410.837L242.076 406.626L250.498 393.992L254.71 389.781H263.132L267.344 398.203V402.415H279.978H284.189L296.823 406.626L301.034 410.837L305.246 415.049H309.457L317.879 427.683L322.091 444.528H326.302L330.513 448.739L326.302 452.95V457.162L334.725 465.584H338.936V478.218L334.725 486.641L347.359 495.064L359.993 499.275L364.204 503.486L368.415 507.698H381.049L389.472 516.12L406.317 499.275L423.162 482.43H435.796H448.43L461.064 461.373L465.275 444.528L469.487 440.316H473.698L477.909 431.894L473.698 423.471V419.26H477.909L482.121 423.471L498.966 427.683L515.811 431.894L520.022 436.105L524.234 440.316L532.656 436.105H536.868H541.079V444.528L549.501 452.95H566.347L583.192 448.739V457.162L587.403 465.584H595.826H604.249L608.46 469.796L616.882 474.007L621.094 469.796H625.305L637.939 461.373L646.362 457.162L658.996 465.584L667.418 469.796L705.32 461.373L730.588 444.528L726.376 436.105L709.531 427.683L705.32 398.203L696.897 381.358L688.475 372.935H680.052H671.629L663.207 360.302L654.784 347.668H646.362H637.939L625.305 335.034V330.822L621.094 322.4L600.037 330.822L578.981 339.245L570.558 335.034L562.135 330.822H545.29H532.656L524.234 322.4L520.022 305.555L498.966 292.921L482.121 280.287L461.064 276.075L452.641 271.864L444.219 263.441L435.796 250.808H440.007Z" fill="#E11E28" stroke="white" stroke-width="2"/>
</svg>
