<svg width="902" height="517" viewBox="0 0 902 517" fill="none" xmlns="http://www.w3.org/2000/svg">
<path d="M539.583 60.6152L504.15 31.0876L474.622 7.46556H462.811H451L445.094 1.56006L439.189 7.46556L427.378 13.3711L380.134 7.46556H338.795L321.078 31.0876L303.362 54.7097L297.456 72.4262H309.267L315.173 78.3317L309.267 96.0483L303.362 113.765L309.267 125.576V131.481L303.362 137.387L297.456 143.292L291.551 137.387L279.74 125.576H273.834L267.929 131.481L262.023 125.576V119.67H256.118H244.307L238.401 113.765L226.59 119.67L220.685 113.765V101.954L179.346 72.4262L138.008 54.7097V84.2373L149.819 107.859V137.387L138.008 155.103V166.915L143.913 178.726L126.196 184.631H114.385L96.6689 208.253L90.7634 231.875L96.6689 237.781H102.574L108.48 231.875L114.385 237.781L126.196 243.686V237.781L132.102 225.97L149.819 220.064L155.724 225.97L161.63 220.064H167.535L173.441 231.875L179.346 243.686L155.724 267.308L126.196 290.93L120.291 308.647L114.385 320.458L78.9524 332.269H67.1413L55.3303 338.175L37.6138 367.702V379.513V385.419L13.9918 391.324L2.18066 409.041L13.9918 420.852L19.8972 432.663V444.474L25.8027 462.19L19.8972 468.096V479.907L37.6138 468.096L49.4248 456.285H55.3303H61.2358V450.379L84.8579 462.19L102.574 468.096L126.196 462.19H143.913V468.096L155.724 462.19L149.819 444.474L161.63 414.946L197.063 426.757H202.968H208.874L220.685 438.568L214.779 450.379L232.496 462.19L244.307 456.285L256.118 474.001L267.929 479.907H279.74L297.456 474.001L303.362 479.907V485.812L309.267 479.907H321.078H326.984L332.89 485.812L344.701 479.907L362.417 474.001L397.85 509.434L456.905 515.34V509.434L468.716 503.529L474.622 491.718L480.527 474.001H492.338L498.244 462.19L492.338 456.285V450.379L504.15 426.757L515.961 403.135L539.583 379.513L563.205 355.891L569.11 320.458L575.016 314.552L586.827 308.647L592.732 302.741H598.638L610.449 296.836H622.26V302.741L628.165 314.552L639.976 308.647L651.787 302.741L663.598 296.836V290.93L681.315 285.025L693.126 279.119H710.843L722.654 285.025L740.37 267.308L758.087 261.403V255.497L769.898 243.686H787.614L811.236 237.781H817.142H823.047H828.953H834.858L840.764 231.875L846.669 220.064L876.197 208.253L899.819 190.537L893.914 172.82L882.103 155.103L888.008 131.481H893.914L899.819 125.576L888.008 119.67H882.103H876.197L870.292 125.576L858.48 131.481L846.669 137.387L834.858 143.292L823.047 149.198H817.142L811.236 143.292L805.331 155.103V161.009L763.992 172.82L728.559 178.726L722.654 172.82L716.748 166.915L539.583 60.6152Z" fill="#E11E28" stroke="white" stroke-width="2"/>
</svg>
