<svg width="800" height="518" viewBox="0 0 800 518" fill="none" xmlns="http://www.w3.org/2000/svg">
<path d="M489.013 281.675L495.879 279.38L502 283.205L515.389 281.675L510.798 277.085L505.06 278.997L496.262 275.937L497.409 272.111L490.141 277.085L489.013 281.675ZM523.558 267.759L530.308 267.904L532.598 266.412L539.489 265.8L538.916 264.461L522.848 265.991L523.558 267.759ZM403.227 199.329H398.038V201.923V207.113V217.493V227.872V230.467H400.632V227.872V222.682L403.227 217.493V214.898V212.303L405.822 209.708L408.417 204.518L403.227 199.329ZM413.607 35.8532L411.012 38.448V41.0429V46.2325H408.417H405.822L403.227 48.8274L400.632 51.4223L392.848 48.8274L382.469 46.2325H372.089L361.71 48.8274L359.115 33.2583L356.52 20.2841H348.735H343.546L340.951 17.6892H335.761L327.977 20.2841L320.192 22.8789V20.2841H317.597H312.408L307.218 22.8789L304.623 25.4738L299.433 30.6635L294.244 33.2583H291.649L281.269 35.8532V38.448L278.675 41.0429H276.08H273.485L268.295 43.6377L265.7 46.2325L260.511 48.8274L263.106 56.6119L265.7 59.2068L270.89 69.5862V74.7759V79.9656L276.08 87.7501L283.864 95.5347V100.724L286.459 105.914V108.509L289.054 113.699L294.244 118.888L304.623 124.078L307.218 131.863L304.623 134.457L307.218 137.052H309.813V142.242V144.837L312.408 147.432L315.003 152.621H317.597L320.192 150.026V147.432L322.787 150.026H327.977V142.242H320.192L315.003 131.863V126.673L312.408 124.078L309.813 116.293L317.597 111.104L320.192 103.319H327.977H330.572H333.166L327.977 108.509L325.382 118.888L330.572 126.673L335.761 134.457V139.647L338.356 144.837H340.951H343.546L346.141 152.621V157.811L348.735 160.406L351.33 163.001L348.735 168.19L343.546 173.38V178.57V181.165L340.951 183.76L338.356 188.949V196.734L340.951 199.329L338.356 214.898V227.872L335.761 230.467V233.062L333.166 243.441V253.82L335.761 256.415L338.356 259.01V261.605L335.761 264.2V271.984V279.769L333.166 290.148L330.572 300.528L327.977 305.717L325.382 308.312V310.907V316.097L320.192 318.692L315.003 321.287L320.192 323.881L325.382 331.666V347.235L322.787 360.209L327.977 375.778L335.761 391.347L372.089 440.65L418.797 487.357L426.581 500.331L436.96 510.71L444.745 515.9L447.34 502.926V489.952L449.935 487.357L452.529 479.572L449.935 456.219L444.745 451.029H442.15V448.434V445.839L439.555 440.65H436.96L434.366 438.055L436.96 435.46L442.15 438.055L449.935 419.891L455.124 417.296H457.719V414.701L444.745 404.322L439.555 388.753V375.778L447.34 362.804H449.935L452.529 365.399L457.719 355.02V347.235L449.935 342.045L442.15 336.856L434.366 318.692L436.96 300.528V297.933L434.366 295.338L436.96 290.148L439.555 292.743V300.528H444.745L447.34 292.743L434.366 282.364V279.769L431.771 282.364L429.176 284.959L421.391 277.174L416.202 269.39V261.605L413.607 253.82H408.417H403.227H400.632L398.038 256.415L400.632 259.01L395.443 261.605L390.253 259.01L382.469 235.657V222.682V220.087L379.874 217.493H382.469V214.898H379.874V212.303V209.708V207.113L377.279 204.518H374.684L372.089 191.544L377.279 181.165L379.874 178.57L377.279 175.975H385.063L390.253 178.57L392.848 170.785L387.658 168.19V165.596L392.848 155.216L395.443 144.837L398.038 147.432L408.417 163.001V155.216V144.837L411.012 131.863L418.797 116.293L429.176 111.104L442.15 105.914L452.529 111.104H460.314L457.719 103.319L452.529 95.5347L455.124 90.345L457.719 82.5604V77.3707V72.1811V69.5862L460.314 66.9913L457.719 61.8017H455.124L457.719 59.2068H460.314L457.719 56.6119L455.124 54.0171H457.719L460.314 46.2325L457.719 43.6377H455.124L457.719 41.0429L460.314 38.448V30.6635H457.719V28.0686V25.4738H460.314L462.909 20.2841V15.0944L465.504 12.4995L462.909 9.90468V7.30984H457.719L452.529 9.90468L447.34 4.715L444.745 2.12012L418.797 33.2583L413.607 35.8532Z" fill="#E11E28" stroke="white" stroke-width="2"/>
</svg>
