<svg width="887" height="518" viewBox="0 0 887 518" fill="none" xmlns="http://www.w3.org/2000/svg">
<path d="M468.084 50.727L452.028 34.6712H435.972V18.6156V2.56006L419.917 18.6156L403.861 34.6712L355.694 18.6156L307.528 2.56006L291.472 18.6156V34.6712L227.249 50.727L211.194 82.8382V98.8937L98.8044 147.06L2.4707 211.283L114.86 275.506L146.971 259.45L163.027 243.394L179.082 275.506L195.138 307.617L227.249 323.673L259.361 339.728L243.305 371.839L227.249 387.895H275.416L307.528 436.062L371.75 468.173H435.972L468.084 436.062L484.139 420.006L532.306 468.173V500.285H548.362H564.417L628.64 516.34L660.751 500.285L708.918 468.173H724.974L757.085 484.228V468.173H773.14H789.196H805.252H821.307L853.418 452.117V403.951L869.474 355.784L885.53 323.673L869.474 291.561L837.363 275.506L821.307 291.561L805.252 307.617H789.196L757.085 291.561L741.029 307.617H724.974L612.584 227.339L596.529 195.228L580.473 163.117L548.362 147.06L532.306 131.005V114.949L468.084 98.8937V66.7826V50.727Z" fill="#E11E28" stroke="white" stroke-width="2"/>
</svg>
