<svg width="800" height="517" viewBox="0 0 800 517" fill="none" xmlns="http://www.w3.org/2000/svg">
<path d="M497.202 56.7839L427.772 70.6698L386.114 84.5557L358.342 56.7839L344.457 42.898H330.571H316.685L288.913 15.1261L261.141 1.24023L219.483 15.1261L177.825 42.898V112.328L163.939 167.872H150.053H136.167L122.281 181.758H108.395V195.643L94.5093 223.415L80.6234 237.302L52.8516 265.073L108.395 306.731L150.053 334.503V362.275L122.281 376.161L136.167 390.047V403.933V417.819V431.705L205.597 445.591L275.027 459.477L302.799 473.363L316.685 487.248L330.571 473.363L344.457 459.477H372.228L413.886 473.363L427.772 487.248L538.86 501.134L649.947 515.02L663.833 501.134L677.719 487.248H691.605L719.377 501.134L733.263 487.248H747.149L719.377 431.705L705.491 390.047H691.605L663.833 376.161L649.947 362.275L636.062 320.617L608.29 278.959L594.404 265.073L580.518 278.959L566.632 265.073V251.187H538.86H524.974V223.415V195.643L497.202 181.758L469.43 167.872V112.328L483.316 84.5557L497.202 56.7839Z" fill="#E11E28" stroke="white" stroke-width="2"/>
</svg>
