<svg width="800" height="515" viewBox="0 0 800 515" fill="none" xmlns="http://www.w3.org/2000/svg">
<path d="M310.089 23.3536L284.4 46.7075H286.735L310.089 23.3536ZM541.29 93.4146L408.174 70.0607L375.479 23.3536L338.113 0L310.089 23.3536L286.735 46.7075H296.077L321.766 116.768L268.052 93.4146L197.991 70.0607L296.077 256.89L408.174 420.366L473.564 513.78H485.241H494.582L520.272 490.426L602.009 467.073L580.991 303.597L573.985 233.536L571.649 163.475L559.973 140.122H545.961H529.613L503.924 163.475L478.235 186.829L436.198 140.122L419.851 93.4146H431.528H447.875H520.272H541.29Z" fill="#E11E28"/>
<path d="M204.997 46.7075H261.046M310.089 23.3536L338.113 0L375.479 23.3536L408.174 70.0607L541.29 93.4146H520.272H447.875H431.528H419.851L436.198 140.122L478.235 186.829L503.924 163.475L529.613 140.122H545.961H559.973L571.649 163.475L573.985 233.536L580.991 303.597L602.009 467.073L520.272 490.426L494.582 513.78H485.241H473.564L408.174 420.366L296.077 256.89L197.991 70.0607L268.052 93.4146L321.766 116.768L296.077 46.7075H286.735M310.089 23.3536L284.4 46.7075H286.735M310.089 23.3536L286.735 46.7075" stroke="white" stroke-width="2"/>
</svg>
