<svg width="800" height="515" viewBox="0 0 800 515" fill="none" xmlns="http://www.w3.org/2000/svg">
<path d="M670.347 195.726L645.881 146.795L623.862 97.8626H596.95L560.251 73.3969L371.864 122.328L347.399 97.8626L325.38 73.3969L303.36 97.8626H261.769L225.07 24.4656L173.692 0L151.673 24.4656L134.547 48.9313H95.4017L53.8101 73.3969L68.4894 195.726L92.9552 293.588L53.8101 342.52L29.3442 366.985L85.6156 464.849L183.478 489.314L281.341 513.78L298.467 489.314L310.7 464.849L352.292 440.383H401.223L411.01 415.917H418.35L474.62 440.383L533.339 464.849H545.571L565.144 489.314L592.056 464.849L599.396 440.383H638.541H663.007L697.259 415.917L726.618 391.452L746.19 366.985L770.656 318.054L746.19 220.192L670.347 171.26V195.726Z" fill="#E11E28" stroke="white" stroke-width="2"/>
</svg>
