<svg width="800" height="516" viewBox="0 0 800 516" fill="none" xmlns="http://www.w3.org/2000/svg">
<path d="M445.54 93.4146L412.845 81.7379L419.851 70.0607L416.348 58.3839H401.168L387.156 70.0607L384.82 58.3839L385.988 46.7075H374.311L366.138 35.0304L346.287 11.6768L322.933 0L317.095 23.3536L311.256 35.0304L290.238 23.3536L272.723 11.6768L257.543 35.0304L248.202 70.0607L258.711 105.091L251.705 128.445L261.046 140.122L243.531 163.475L224.848 175.152L220.177 163.475H214.339L215.507 210.183L234.189 233.536L249.369 268.567H265.717L280.897 280.244L276.226 291.921H275.058H249.369L229.519 303.598L234.189 315.274H247.034L237.692 326.951L223.68 350.305H250.537L280.897 361.981L286.735 373.658L284.4 385.335L317.095 408.689H342.784L364.97 432.043L377.814 443.719H383.653L374.311 455.396H362.635L391.827 478.75L396.497 513.78L422.186 502.103L439.702 490.426L444.372 502.103L453.714 513.78H463.055H474.732L480.57 478.75L463.055 467.073H480.57H502.756L505.092 443.719H498.086L515.601 432.043L531.948 443.719L564.643 420.365L585.662 408.689L576.32 350.305L549.464 291.921L533.116 268.567L526.11 245.213L530.781 221.86L534.284 186.829L520.272 163.475L502.756 140.122L493.415 116.768L482.906 93.4146H445.54Z" fill="#E11E28" stroke="white" stroke-width="2"/>
</svg>
