<svg width="800" height="517" viewBox="0 0 800 517" fill="none" xmlns="http://www.w3.org/2000/svg">
<path d="M498.804 71.183L479.043 51.4223L459.282 61.3026H429.641L400 31.6616L370.359 2.02051L360.478 11.9009V31.6616V51.4223V61.3026L350.598 90.9437L340.717 130.465H370.359L390.119 150.226L380.239 160.107L370.359 169.987L380.239 189.748L370.359 209.509H360.478L340.717 229.269V249.03L350.598 278.671L340.717 298.432L350.598 318.193L360.478 347.834L320.957 377.475L281.435 397.236L261.675 416.996L241.914 426.877V446.638V456.518L232.033 466.398V476.279L241.914 505.92L271.555 515.801L291.316 505.92L311.076 496.04L350.598 505.92H390.119V486.159V456.518L419.761 446.638L449.402 436.757L459.282 407.116L479.043 387.355L488.923 377.475H508.684L528.445 337.954V328.073L548.205 318.193L567.966 298.432V288.551L558.086 278.671L548.205 268.791V258.91L538.325 249.03L558.086 199.628L538.325 140.346L528.445 81.0634L498.804 71.183Z" fill="#E11E28" stroke="white" stroke-width="2"/>
</svg>
