<svg width="800" height="518" viewBox="0 0 800 518" fill="none" xmlns="http://www.w3.org/2000/svg">
<path d="M448.721 72.7667V55.0502L418.603 37.3337L395.571 19.6172H351.28H344.193H333.563H324.705L312.303 37.3337L280.414 1.90015L246.752 37.3337L229.036 55.0502L197.146 37.3337L191.831 55.0502L188.287 72.7667L143.996 108.2L174.114 161.349L214.862 214.499L209.547 232.216L200.689 249.932H209.547L214.862 267.649H206.004L197.146 285.365L230.807 320.798H271.555H282.185H294.587L310.532 356.232L330.02 373.948L413.288 409.381L519.587 462.531L535.532 480.247L551.477 515.68L576.28 480.247L595.768 444.814L618.8 462.531H640.059H645.374V444.814L656.004 427.098L652.461 409.381L618.8 373.948L608.17 338.515H595.768L590.453 320.798H578.052H563.878V303.082L569.193 285.365L551.477 249.932L533.76 232.216L530.217 179.066L528.445 143.633L494.784 125.916L448.721 108.2V72.7667Z" fill="#E11E28" stroke="white" stroke-width="2"/>
</svg>
