<svg width="800" height="518" viewBox="0 0 800 518" fill="none" xmlns="http://www.w3.org/2000/svg">
<path d="M553.543 32.0876L529.921 2.56006L512.205 43.8987L488.583 73.4263H482.677H470.866L453.15 85.2374H447.244V91.1428L441.339 97.0484L423.622 102.954L417.717 120.67L423.622 126.576L417.717 132.481L400 150.198L394.094 173.82L376.378 179.726H358.661L352.756 221.064L346.85 268.308L270.079 280.119L187.401 286.025V297.836L199.212 315.552V309.647L205.118 315.552H211.023H228.74H246.456L252.362 309.647L258.268 368.702L240.551 433.663H252.362H264.173H275.984L281.89 439.568H293.701L287.795 427.757V421.852H293.701L305.512 433.663L317.323 445.474H329.134L335.039 451.379L340.945 475.001L346.85 480.907L352.756 463.19L346.85 433.663L352.756 404.135V410.041H358.661L364.567 398.23L370.472 386.419V404.135H376.378L382.283 386.419L388.189 374.608V380.513V386.419V392.324L394.094 380.513L400 374.608L394.094 392.324L382.283 415.946H388.189L394.094 404.135V410.041L405.905 415.946L417.717 392.324V386.419H411.811V380.513L405.905 386.419L411.811 368.702L417.717 350.986L423.622 404.135L394.094 445.474L388.189 463.19L382.283 486.812H388.189H394.094L405.905 498.624L423.622 516.34L429.528 510.434L435.433 504.529H441.339V510.434L453.15 492.718L459.055 475.001V469.096L470.866 457.285L482.677 445.474L470.866 427.757L464.961 404.135L476.772 392.324L482.677 380.513L488.583 362.797L494.488 345.08L500.394 350.986L506.299 356.891L518.11 350.986L529.921 339.175V327.363L535.827 315.552V303.741V297.836H529.921H524.016V280.119V268.308L529.921 262.403L553.543 232.875L559.449 221.064L565.354 203.348H571.26L577.165 209.253L588.976 197.442L594.882 191.537V197.442H600.788L606.693 162.009L594.882 126.576H600.788H612.599L606.693 114.765L600.788 102.954L606.693 97.0484H600.788L594.882 91.1428L577.165 97.0484L571.26 79.3318L577.165 61.6153L553.543 32.0876Z" fill="#E11E28"/>
<path d="M411.811 386.419H417.717V392.324L405.905 415.946L394.094 410.041V404.135L388.189 415.946H382.283L394.094 392.324L400 374.608L394.094 380.513L388.189 392.324V386.419V380.513V374.608L382.283 386.419L376.378 404.135H370.472V386.419L364.567 398.23L358.661 410.041H352.756V404.135L346.85 433.663L352.756 463.19L346.85 480.907L340.945 475.001L335.039 451.379L329.134 445.474H317.323L305.512 433.663L293.701 421.852H287.795V427.757L293.701 439.568H281.89L275.984 433.663H264.173H252.362H240.551L258.268 368.702L252.362 309.647L246.456 315.552H228.74H211.023H205.118L199.212 309.647V315.552L187.401 297.836V286.025L270.079 280.119L346.85 268.308L352.756 221.064L358.661 179.726H376.378L394.094 173.82L400 150.198L417.717 132.481L423.622 126.576L417.717 120.67L423.622 102.954L441.339 97.0484L447.244 91.1428V85.2374H453.15L470.866 73.4263H482.677H488.583L512.205 43.8987L529.921 2.56006L553.543 32.0876L577.165 61.6153L571.26 79.3318L577.165 97.0484L594.882 91.1428L600.788 97.0484H606.693L600.788 102.954L606.693 114.765L612.599 126.576H600.788H594.882L606.693 162.009L600.788 197.442H594.882V191.537L588.976 197.442L577.165 209.253L571.26 203.348H565.354L559.449 221.064L553.543 232.875L529.921 262.403L524.016 268.308V280.119V297.836H529.921H535.827V303.741V315.552L529.921 327.363V339.175L518.11 350.986L506.299 356.891L500.394 350.986L494.488 345.08L488.583 362.797L482.677 380.513L476.772 392.324L464.961 404.135L470.866 427.757L482.677 445.474L470.866 457.285L459.055 469.096V475.001L453.15 492.718L441.339 510.434V504.529H435.433L429.528 510.434L423.622 516.34L405.905 498.624L394.094 486.812H388.189H382.283L388.189 463.19L394.094 445.474L423.622 404.135L417.717 350.986L411.811 368.702L405.905 386.419L411.811 380.513V386.419ZM411.811 386.419V392.324" stroke="white" stroke-width="2"/>
</svg>
