<svg width="800" height="518" viewBox="0 0 800 518" fill="none" xmlns="http://www.w3.org/2000/svg">
<path d="M580.337 53.278L570.061 32.7269H553.62H539.235V12.1757L523.821 1.90015L516.628 22.4513L503.27 43.0024L465.25 22.4513L414.9 43.0024L408.734 53.278L426.203 63.5536H457.03L442.644 94.3803L413.872 114.932L411.817 125.207L409.762 135.483H384.073H357.356L349.136 156.034L337.833 166.31H333.722L328.585 156.034L313.171 166.31L294.675 156.034L262.821 84.105L218.636 53.278L190.892 63.5536L153.899 73.8291L161.092 84.105H171.368L170.34 94.3803L172.396 104.656L184.726 94.3803H198.085L201.167 104.656L195.002 114.932H223.774H256.655L265.903 145.758L274.124 166.31L289.537 186.861L301.868 207.412L298.785 227.963L294.675 258.79L300.841 279.341L315.226 299.893L338.86 351.27L347.081 402.649L354.274 412.924L370.715 423.2L401.541 474.578L423.12 505.404H434.423L441.616 515.68L449.837 505.404H456.002L487.856 484.853L521.766 474.578L528.959 464.302H539.235V454.026L532.042 443.751L524.849 433.475H516.628H508.408L504.297 423.2H500.187L509.435 392.373L544.372 382.097L537.179 371.822L526.904 361.546L529.986 351.27L534.097 340.995L523.821 330.719L521.766 320.444H559.786L596.778 310.168L600.888 269.066L606.026 217.688L628.632 207.412H646.101L624.522 186.861H597.806L587.53 166.31L584.447 135.483L593.695 114.932L607.054 104.656L598.833 94.3803L586.502 84.105L580.337 53.278Z" fill="#E11E28" stroke="white" stroke-width="2"/>
</svg>
