<svg width="800" height="517" viewBox="0 0 800 517" fill="none" xmlns="http://www.w3.org/2000/svg">
<path d="M317.113 157.708L318.289 160.059H321.816V156.532V153.005L317.113 157.708ZM345.33 117.734H346.505V118.91L347.681 120.086L348.857 115.383L347.681 114.207V115.383L345.33 117.734ZM352.384 29.2041V28.146L351.208 27.323L347.681 25.7946L350.032 27.6757V28.2636V29.3217L352.384 29.2041ZM372.371 2.28065L368.844 1.34009L366.492 2.39822L367.668 3.57391H368.844L371.195 4.27933L372.371 2.28065ZM492.292 105.977L493.468 107.153V108.329L495.819 109.504L494.643 105.977L493.468 104.802L492.292 105.977ZM415.872 96.5716H418.223H419.399L421.75 93.0445H419.399L418.223 94.2202L417.047 95.3959L415.872 96.5716ZM414.696 37.6692L415.872 34.2596L413.52 31.9082L409.993 30.7325L408.817 30.1447L406.466 31.5555V34.6123L408.817 35.5529L409.993 36.4935V37.9043V38.8449L414.696 37.6692ZM440.561 39.4327L437.034 33.2015L433.507 35.788L431.156 39.6678L429.98 41.0787L428.804 41.7841L429.98 40.2557L431.156 38.9624V38.7273V38.3746L429.98 38.9624L427.628 39.903L426.453 39.6678L431.156 36.9637L432.331 32.4961L428.804 31.2028L424.101 31.6731L422.926 31.9082V32.4961H421.75L420.574 32.9664L418.223 35.0826L419.399 36.4935V37.9043L418.223 38.1394L417.047 38.257L415.872 39.6678L414.696 41.4314L413.52 41.9017V42.4895V43.6652L414.696 44.0179V43.0774V42.1368L415.872 41.7841V43.4301V44.7233L417.047 44.6058L418.223 45.0761L417.047 47.3099V49.6613L418.223 50.3667V51.0721V52.0127V52.9532L419.399 54.2465H420.574L421.75 53.0708V54.2465V55.4222H422.926H425.277L427.628 57.7736L429.98 60.125L434.683 61.3007L439.385 57.7736L438.21 55.4222V53.0708L437.034 50.837V50.7194L438.21 50.6018L439.385 45.0761L440.561 39.4327ZM466.427 71.882H465.251V73.0577L464.075 74.2334H465.251L466.427 71.882ZM467.602 76.5848H469.954L471.129 75.4091L469.954 74.2334H468.778H467.602L466.427 75.4091V76.5848H467.602ZM447.615 52.483V51.3073V49.6613L446.44 50.1316L445.264 51.3073L444.088 54.2465V56.5979L445.264 57.7736H444.088L442.913 58.9493V60.125V61.3007V62.4764H441.737V61.3007L440.561 63.6521L439.385 66.0035V69.5306L437.034 73.0577L435.858 76.5848L438.21 78.9362L441.737 76.5848L444.088 74.2334H448.791L455.845 71.882L459.372 70.7063L460.548 67.1792V63.6521L459.372 61.3007H458.197V62.4764H457.021V60.125V58.9493L455.845 57.7736L454.669 56.5979V55.4222V54.2465L452.318 56.5979L449.967 60.125V61.3007H448.791V60.125L452.318 50.3667L449.967 49.0734L448.791 48.9559V51.0721L447.615 52.483ZM496.995 114.207V115.383L495.819 113.031V110.68L494.643 109.504H492.292L489.94 105.977L487.589 102.45L486.413 103.626L485.238 102.45H484.062V103.626H482.886H481.711H480.535H478.183L475.832 104.802L474.656 103.626H473.481L472.305 104.802L469.954 109.504H466.427L468.778 103.626V98.923H465.251H461.724L462.899 97.7473V96.5716L459.372 97.7473L457.021 96.5716L459.372 95.3959L461.724 93.0445L462.899 91.8689H464.075L465.251 90.6931L462.899 88.3417L459.372 87.166L458.197 85.9903V84.8146H455.845L453.494 85.9903H452.318L445.264 94.2202L440.561 102.45L441.737 103.626V107.153L434.683 109.504L433.507 108.329H431.156V109.504L433.507 113.031L434.683 115.383H432.331L431.156 113.031L428.804 114.207H427.628V115.383L426.453 116.559H425.277V117.734H422.926H421.75L420.574 118.91H418.223H419.399V117.734L418.223 116.559L415.872 117.734L414.696 118.91L415.872 116.559L417.047 115.383L409.993 113.031L402.939 114.207L401.763 115.383L404.114 116.559H406.466V117.734L404.114 118.91H401.763L397.06 120.086L393.533 121.261H391.182H387.655H386.479L384.128 122.437L379.425 124.788L377.073 127.14H373.546H370.019L371.195 128.315L373.546 129.491L372.371 130.667L370.019 131.843L368.844 134.194V136.545L366.492 134.194L362.965 133.018V134.194L366.492 137.721L368.844 140.072L367.668 141.248L366.492 140.072L365.316 138.897L364.141 140.072H362.965H361.789L364.141 142.424L367.668 145.951L366.492 147.127V151.829V154.181H365.316L362.965 155.357H361.789L362.965 154.181L364.141 153.005L365.316 151.829V150.654L360.614 149.478L357.087 150.654H351.208L344.154 149.478L337.1 148.302H335.924H334.748H333.573L331.221 147.127V148.302L330.046 150.654L328.87 151.829L330.046 153.005V154.181H328.87V156.532L330.046 157.708L328.87 161.235L327.694 163.586V164.762V165.938L326.518 167.114L330.046 170.641L333.573 172.992V176.519V180.046L337.1 182.398L338.275 187.1L335.924 190.627L333.573 194.155L334.748 196.506L333.573 207.087L331.221 208.263L328.87 209.439L332.397 217.669L333.573 222.371H332.397V221.196L330.046 220.02L328.87 218.844V216.493V214.141L327.694 211.79L326.518 210.614L331.221 198.857L330.046 196.506L327.694 195.33L328.87 194.155V192.979V191.803L332.397 189.452L335.924 184.749L332.397 182.398L326.518 181.222L325.343 177.695L324.167 174.168L320.64 169.465L317.113 165.938H314.761H313.586L314.761 168.289L315.937 170.641L318.289 172.992L320.64 175.343V178.87L318.289 181.222L317.113 182.398V181.222H314.761V183.573V185.925L317.113 188.276L319.464 190.627V196.506L318.289 202.384H315.937L313.586 201.209L311.234 203.56L306.532 207.087H305.356V208.263L303.004 209.439V210.614V212.966L304.18 215.317L305.356 218.844L308.883 221.196L311.234 223.547V224.723H312.41L314.761 223.547L317.113 221.196L318.289 222.371V223.547L319.464 224.723L320.64 225.898L319.464 232.953L318.289 240.007L315.937 245.885L311.234 248.237V249.412V250.588V252.939L312.41 255.291L310.059 257.642V258.818L311.234 261.169L312.41 263.521L313.586 269.399L312.41 274.102V282.332L313.586 285.859L317.113 287.035V288.21V289.386V291.738V294.089V295.265L315.937 297.616H314.761L315.937 301.143H318.289L319.464 303.494L321.816 304.67L324.167 303.494L325.343 307.022L324.167 314.076L319.464 321.13H317.113L315.937 322.306V324.657L317.113 325.833L319.464 327.008L318.289 329.36L317.113 330.536V331.711L315.937 334.063L312.41 338.765L306.532 343.468L307.707 351.698L312.41 354.05L314.761 356.401L306.532 361.104L297.126 363.455V372.861V378.739L303.004 381.091L306.532 379.915L311.234 381.091L314.761 382.266L317.113 383.442V384.618L318.289 385.793H319.464L321.816 388.145V391.672L322.991 394.023L326.518 395.199L328.87 398.726L326.518 399.902L324.167 402.253L321.816 405.78V409.307L326.518 414.01L330.046 419.889L328.87 421.064H327.694V423.416L326.518 424.591H325.343H324.167L321.816 429.294L320.64 431.646V432.821V433.997L321.816 435.173H320.64L319.464 437.524L320.64 438.7L321.816 439.875L322.991 450.457V451.632L319.464 452.808L315.937 456.335L319.464 459.862L322.991 463.389H326.518L328.87 462.214L331.221 464.565L334.748 465.741L335.924 472.795L338.275 479.849L335.924 485.728L337.1 486.903V488.079L338.275 489.255L339.451 490.43V491.606L337.1 493.958L334.748 495.133V496.309L332.397 501.012H330.046L328.87 502.187L326.518 504.539L325.343 508.066L327.694 509.242L328.87 511.593L335.924 513.944L344.154 515.12L352.384 510.417L358.262 502.187L360.614 501.012L362.965 499.836L364.141 496.309L365.316 493.958H367.668H368.844L370.019 492.782H371.195V493.958H372.371H373.546L374.722 492.782L378.249 493.958L384.128 491.606L381.776 488.079L379.425 484.552L377.073 483.376L375.898 482.201V481.025V479.849L379.425 477.498L382.952 476.322H384.128L385.303 472.795V469.268V466.917L386.479 465.741L387.655 464.565V462.214V458.687L392.358 453.984L395.885 451.632H397.06L398.236 450.457L397.06 449.281V445.754V443.403L395.885 441.051L393.533 439.875L395.885 433.997L399.412 428.118L402.939 429.294H406.466L408.817 430.47H413.52L414.696 425.767L415.872 424.591H417.047H418.223V425.767L420.574 433.997L425.277 436.348V433.997V432.821V431.646V430.47H424.101L428.804 421.064L438.21 415.186V414.01L439.385 411.659L442.913 409.307H445.264L446.44 410.483V411.659V414.01L448.791 415.186H451.142L449.967 416.362V417.537H452.318L453.494 418.713L454.669 419.889H455.845L458.197 416.362V415.186L460.548 412.834L461.724 409.307L459.372 405.78L457.021 403.429L458.197 402.253L459.372 401.077V399.902H460.548H461.724H462.899V398.726V397.55V396.375V395.199L460.548 392.848L457.021 391.672L454.669 382.266L455.845 376.388V375.212L458.197 374.036L459.372 372.861L465.251 368.158L469.954 362.279V359.928L468.778 358.752L469.954 356.401L471.129 355.225L469.954 351.698L468.778 348.171L469.954 343.468L473.481 337.59L472.305 336.414L474.656 335.238L475.832 336.414L477.008 337.59L478.183 336.414L479.359 335.238L481.711 334.063H482.886V329.36H478.183L473.481 328.184L472.305 327.008L471.129 325.833H469.954H468.778L466.427 321.13L468.778 317.603V314.076L471.129 310.549L472.305 309.373L473.481 307.022L471.129 304.67L468.778 302.319L467.602 299.967V296.44V294.089L466.427 291.738V287.035V283.508L465.251 282.332L464.075 281.156L466.427 278.805L469.954 276.453L471.129 263.521V255.291V247.061L468.778 243.534L467.602 238.831V237.655L468.778 235.304H469.954V234.128L472.305 235.304H474.656L477.008 232.953L480.535 231.777L484.062 232.953H486.413L488.765 229.426V224.723L491.116 223.547L492.292 222.371V220.02L493.468 216.493L498.17 212.966L502.873 209.439V208.263L501.697 204.736L499.346 200.033V195.33L498.17 190.627L495.819 188.276L493.468 187.1L492.292 185.925V183.573V182.398L491.116 181.222L489.94 176.519L491.116 171.816L489.94 170.641V169.465V168.289V167.114H488.765L487.589 165.938L489.94 163.586L491.116 160.059L492.292 158.884V156.532L493.468 155.357L491.116 156.532L489.94 157.708L487.589 156.532L484.062 158.884V160.059V162.411H486.413L489.94 161.235V162.411L488.765 163.586H487.589L485.238 167.114L482.886 168.289L481.711 167.114L480.535 169.465L478.183 170.641V172.992V174.168L475.832 172.992L474.656 171.816V172.992H473.481H469.954H466.427L465.251 176.519L461.724 180.046H460.548L461.724 177.695L464.075 175.343V172.992L465.251 170.641L468.778 169.465L469.954 165.938L468.778 164.762L466.427 163.586H465.251L472.305 164.762L477.008 160.059H478.183L479.359 157.708L480.535 155.357L482.886 153.005L485.238 150.654L486.413 147.127L493.468 142.424V141.248L494.643 140.072L496.995 136.545L500.522 133.018L501.697 127.14L499.346 125.964L498.17 123.613V124.788L496.995 125.964V122.437H498.17L500.522 123.613V124.788V125.964L501.697 123.613V117.734H500.522H499.346V114.207L496.995 111.856V114.207ZM411.169 24.7365L409.993 24.9716L408.817 25.677L409.993 26.1473L411.169 26.5L412.344 27.5581L413.52 28.7339L412.344 28.8514L411.169 28.7339V29.0866V29.5568L412.344 29.792L413.52 29.9095L414.696 31.2028L415.872 31.9082L418.223 31.0852L419.399 30.0271L428.804 28.8514L429.98 28.2636V25.3243V21.9148L432.331 20.504L433.507 19.0931V17.7999L432.331 16.5066V16.2715L431.156 15.6836L428.804 10.1578L427.628 5.80773L425.277 5.69017V7.33614L419.399 10.6281L414.696 14.3903V16.389L415.872 16.8593V17.9174L414.696 19.0931V20.3864L413.52 21.6797L412.344 22.2675L411.169 22.8554V23.7959L412.344 24.6189V24.9716H411.169V24.7365ZM408.817 4.98475L407.642 6.51316V7.57128H408.817L411.169 8.62941L413.52 5.69017L408.817 4.98475ZM418.223 111.856L415.872 110.68L417.047 113.031L419.399 114.207V113.031V111.856H418.223Z" fill="#E11E28"/>
<path d="M312.41 255.291L311.234 252.939V250.588V249.412V248.237L315.937 245.885L318.289 240.007L319.464 232.953L320.64 225.898L319.464 224.723L318.289 223.547V222.371L317.113 221.196L314.761 223.547L312.41 224.723H311.234V223.547L308.883 221.196L305.356 218.844L304.18 215.317L303.004 212.966V210.614V209.439L305.356 208.263V207.087H306.532L311.234 203.56L313.586 201.209L315.937 202.384H318.289L319.464 196.506V190.627L317.113 188.276L314.761 185.925V183.573V181.222H317.113V182.398L318.289 181.222L320.64 178.87V175.343L318.289 172.992L315.937 170.641L314.761 168.289L313.586 165.938H314.761H317.113L320.64 169.465L324.167 174.168L325.343 177.695L326.518 181.222L332.397 182.398L335.924 184.749L332.397 189.452L328.87 191.803V192.979V194.155L327.694 195.33L330.046 196.506L331.221 198.857L326.518 210.614L327.694 211.79L328.87 214.141V216.493V218.844L330.046 220.02L332.397 221.196V222.371H333.573L332.397 217.669L328.87 209.439L331.221 208.263L333.573 207.087L334.748 196.506L333.573 194.155L335.924 190.627L338.275 187.1L337.1 182.398L333.573 180.046V176.519V172.992L330.046 170.641L326.518 167.114L327.694 165.938V164.762V163.586L328.87 161.235L330.046 157.708L328.87 156.532V154.181H330.046V153.005L328.87 151.829L330.046 150.654L331.221 148.302V147.127L333.573 148.302H334.748H335.924H337.1L344.154 149.478L351.208 150.654H357.087L360.614 149.478L365.316 150.654V151.829L364.141 153.005L362.965 154.181L361.789 155.357H362.965L365.316 154.181H366.492V151.829V147.127L367.668 145.951L364.141 142.424L361.789 140.072H362.965H364.141L365.316 138.897L366.492 140.072L367.668 141.248L368.844 140.072L366.492 137.721L362.965 134.194V133.018L366.492 134.194L368.844 136.545V134.194L370.019 131.843L372.371 130.667L373.546 129.491L371.195 128.315L370.019 127.14H373.546H377.073L379.425 124.788L384.128 122.437L386.479 121.261H387.655H391.182H393.533L397.06 120.086L401.763 118.91H404.114L406.466 117.734V116.559H404.114L401.763 115.383L402.939 114.207L409.993 113.031L417.047 115.383L415.872 116.559L414.696 118.91L415.872 117.734L418.223 116.559L419.399 117.734V118.91H418.223H420.574L421.75 117.734H422.926H425.277V116.559H426.453L427.628 115.383V114.207H428.804L431.156 113.031L432.331 115.383H434.683L433.507 113.031L431.156 109.504V108.329H433.507L434.683 109.504L441.737 107.153V103.626L440.561 102.45L445.264 94.2202L452.318 85.9903H453.494L455.845 84.8146H458.197V85.9903L459.372 87.166L462.899 88.3417L465.251 90.6931L464.075 91.8689H462.899L461.724 93.0445L459.372 95.3959L457.021 96.5716L459.372 97.7473L462.899 96.5716V97.7473L461.724 98.923H465.251H468.778V103.626L466.427 109.504H469.954L472.305 104.802L473.481 103.626H474.656L475.832 104.802L478.183 103.626H480.535H481.711H482.886H484.062V102.45H485.238L486.413 103.626L487.589 102.45L489.94 105.977L492.292 109.504H494.643L495.819 110.68V113.031L496.995 115.383V114.207V111.856L499.346 114.207V117.734H500.522H501.697V123.613L500.522 125.964V124.788V123.613L498.17 122.437H496.995V125.964L498.17 124.788V123.613L499.346 125.964L501.697 127.14L500.522 133.018L496.995 136.545L494.643 140.072L493.468 141.248V142.424L486.413 147.127L485.238 150.654L482.886 153.005L480.535 155.357L479.359 157.708L478.183 160.059H477.008L472.305 164.762L465.251 163.586H466.427L468.778 164.762L469.954 165.938L468.778 169.465L465.251 170.641L464.075 172.992V175.343L461.724 177.695L460.548 180.046H461.724L465.251 176.519L466.427 172.992H469.954H473.481H474.656V171.816L475.832 172.992L478.183 174.168V172.992V170.641L480.535 169.465L481.711 167.114L482.886 168.289L485.238 167.114L487.589 163.586H488.765L489.94 162.411V161.235L486.413 162.411H484.062V160.059V158.884L487.589 156.532L489.94 157.708L491.116 156.532L493.468 155.357L492.292 156.532V158.884L491.116 160.059L489.94 163.586L487.589 165.938L488.765 167.114H489.94V168.289V169.465V170.641L491.116 171.816L489.94 176.519L491.116 181.222L492.292 182.398V183.573V185.925L493.468 187.1L495.819 188.276L498.17 190.627L499.346 195.33V200.033L501.697 204.736L502.873 208.263V209.439L498.17 212.966L493.468 216.493L492.292 220.02V222.371L491.116 223.547L488.765 224.723V229.426L486.413 232.953H484.062L480.535 231.777L477.008 232.953L474.656 235.304H472.305L469.954 234.128V235.304H468.778L467.602 237.655V238.831L468.778 243.534L471.129 247.061V255.291V263.521L469.954 276.453L466.427 278.805L464.075 281.156L465.251 282.332L466.427 283.508V287.035V291.738L467.602 294.089V296.44V299.967L468.778 302.319L471.129 304.67L473.481 307.022L472.305 309.373L471.129 310.549L468.778 314.076V317.603L466.427 321.13L468.778 325.833H469.954H471.129L472.305 327.008L473.481 328.184L478.183 329.36H482.886V334.063H481.711L479.359 335.238L478.183 336.414L477.008 337.59L475.832 336.414L474.656 335.238L472.305 336.414L473.481 337.59L469.954 343.468L468.778 348.171L469.954 351.698L471.129 355.225L469.954 356.401L468.778 358.752L469.954 359.928V362.279L465.251 368.158L459.372 372.861L458.197 374.036L455.845 375.212V376.388L454.669 382.266L457.021 391.672L460.548 392.848L462.899 395.199V396.375V397.55V398.726V399.902H461.724H460.548H459.372V401.077L458.197 402.253L457.021 403.429L459.372 405.78L461.724 409.307L460.548 412.834L458.197 415.186V416.362L455.845 419.889H454.669L453.494 418.713L452.318 417.537H449.967V416.362L451.142 415.186H448.791L446.44 414.01V411.659V410.483L445.264 409.307H442.913L439.385 411.659L438.21 414.01V415.186L428.804 421.064L424.101 430.47H425.277V431.646V432.821V433.997V436.348L420.574 433.997L418.223 425.767V424.591H417.047H415.872L414.696 425.767L413.52 430.47H408.817L406.466 429.294H402.939L399.412 428.118L395.885 433.997L393.533 439.875L395.885 441.051L397.06 443.403V445.754V449.281L398.236 450.457L397.06 451.632H395.885L392.358 453.984L387.655 458.687V462.214V464.565L386.479 465.741L385.303 466.917V469.268V472.795L384.128 476.322H382.952L379.425 477.498L375.898 479.849V481.025V482.201L377.073 483.376L379.425 484.552L381.776 488.079L384.128 491.606L378.249 493.958L374.722 492.782L373.546 493.958H372.371H371.195V492.782H370.019L368.844 493.958H367.668H365.316L364.141 496.309L362.965 499.836L360.614 501.012L358.262 502.187L352.384 510.417L344.154 515.12L335.924 513.944L328.87 511.593L327.694 509.242L325.343 508.066L326.518 504.539L328.87 502.187L330.046 501.012H332.397L334.748 496.309V495.133L337.1 493.958L339.451 491.606V490.43L338.275 489.255L337.1 488.079V486.903L335.924 485.728L338.275 479.849L335.924 472.795L334.748 465.741L331.221 464.565L328.87 462.214L326.518 463.389H322.991L319.464 459.862L315.937 456.335L319.464 452.808L322.991 451.632V450.457L321.816 439.875L320.64 438.7L319.464 437.524L320.64 435.173H321.816L320.64 433.997V432.821V431.646L321.816 429.294L324.167 424.591H325.343H326.518L327.694 423.416V421.064H328.87L330.046 419.889L326.518 414.01L321.816 409.307V405.78L324.167 402.253L326.518 399.902L328.87 398.726L326.518 395.199L322.991 394.023L321.816 391.672V388.145L319.464 385.793H318.289L317.113 384.618V383.442L314.761 382.266L311.234 381.091L306.532 379.915L303.004 381.091L297.126 378.739V372.861V363.455L306.532 361.104L314.761 356.401L312.41 354.05L307.707 351.698L306.532 343.468L312.41 338.765L315.937 334.063L317.113 331.711V330.536L318.289 329.36L319.464 327.008L317.113 325.833L315.937 324.657V322.306L317.113 321.13H319.464L324.167 314.076L325.343 307.022L324.167 303.494L321.816 304.67L319.464 303.494L318.289 301.143H315.937L314.761 297.616H315.937L317.113 295.265V294.089V291.738V289.386V288.21V287.035L313.586 285.859L312.41 282.332V274.102L313.586 269.399L312.41 263.521L311.234 261.169L310.059 258.818V257.642L312.41 255.291ZM312.41 255.291V254.115M317.113 157.708L318.289 160.059H321.816V156.532V153.005L317.113 157.708ZM345.33 117.734H346.505V118.91L347.681 120.086L348.857 115.383L347.681 114.207V115.383L345.33 117.734ZM352.384 29.2041V28.146L351.208 27.323L347.681 25.7946L350.032 27.6757V28.2636V29.3217L352.384 29.2041ZM372.371 2.28065L368.844 1.34009L366.492 2.39822L367.668 3.57391H368.844L371.195 4.27933L372.371 2.28065ZM492.292 105.977L493.468 107.153V108.329L495.819 109.504L494.643 105.977L493.468 104.802L492.292 105.977ZM415.872 96.5716H418.223H419.399L421.75 93.0445H419.399L418.223 94.2202L417.047 95.3959L415.872 96.5716ZM414.696 37.6692L415.872 34.2596L413.52 31.9082L409.993 30.7325L408.817 30.1447L406.466 31.5555V34.6123L408.817 35.5529L409.993 36.4935V37.9043V38.8449L414.696 37.6692ZM440.561 39.4327L437.034 33.2015L433.507 35.788L431.156 39.6678L429.98 41.0787L428.804 41.7841L429.98 40.2557L431.156 38.9624V38.7273V38.3746L429.98 38.9624L427.628 39.903L426.453 39.6678L431.156 36.9637L432.331 32.4961L428.804 31.2028L424.101 31.6731L422.926 31.9082V32.4961H421.75L420.574 32.9664L418.223 35.0826L419.399 36.4935V37.9043L418.223 38.1394L417.047 38.257L415.872 39.6678L414.696 41.4314L413.52 41.9017V42.4895V43.6652L414.696 44.0179V43.0774V42.1368L415.872 41.7841V43.4301V44.7233L417.047 44.6058L418.223 45.0761L417.047 47.3099V49.6613L418.223 50.3667V51.0721V52.0127V52.9532L419.399 54.2465H420.574L421.75 53.0708V54.2465V55.4222H422.926H425.277L427.628 57.7736L429.98 60.125L434.683 61.3007L439.385 57.7736L438.21 55.4222V53.0708L437.034 50.837V50.7194L438.21 50.6018L439.385 45.0761L440.561 39.4327ZM466.427 71.882H465.251V73.0577L464.075 74.2334H465.251L466.427 71.882ZM467.602 76.5848H469.954L471.129 75.4091L469.954 74.2334H468.778H467.602L466.427 75.4091V76.5848H467.602ZM447.615 52.483V51.3073V49.6613L446.44 50.1316L445.264 51.3073L444.088 54.2465V56.5979L445.264 57.7736H444.088L442.913 58.9493V60.125V61.3007V62.4764H441.737V61.3007L440.561 63.6521L439.385 66.0035V69.5306L437.034 73.0577L435.858 76.5848L438.21 78.9362L441.737 76.5848L444.088 74.2334H448.791L455.845 71.882L459.372 70.7063L460.548 67.1792V63.6521L459.372 61.3007H458.197V62.4764H457.021V60.125V58.9493L455.845 57.7736L454.669 56.5979V55.4222V54.2465L452.318 56.5979L449.967 60.125V61.3007H448.791V60.125L452.318 50.3667L449.967 49.0734L448.791 48.9559V51.0721L447.615 52.483ZM411.169 24.7365L409.993 24.9716L408.817 25.677L409.993 26.1473L411.169 26.5L412.344 27.5581L413.52 28.7339L412.344 28.8514L411.169 28.7339V29.0866V29.5568L412.344 29.792L413.52 29.9095L414.696 31.2028L415.872 31.9082L418.223 31.0852L419.399 30.0271L428.804 28.8514L429.98 28.2636V25.3243V21.9148L432.331 20.504L433.507 19.0931V17.7999L432.331 16.5066V16.2715L431.156 15.6836L428.804 10.1578L427.628 5.80773L425.277 5.69017V7.33614L419.399 10.6281L414.696 14.3903V16.389L415.872 16.8593V17.9174L414.696 19.0931V20.3864L413.52 21.6797L412.344 22.2675L411.169 22.8554V23.7959L412.344 24.6189V24.9716H411.169V24.7365ZM408.817 4.98475L407.642 6.51316V7.57128H408.817L411.169 8.62941L413.52 5.69017L408.817 4.98475ZM418.223 111.856L415.872 110.68L417.047 113.031L419.399 114.207V113.031V111.856H418.223Z" stroke="white" stroke-width="2"/>
</svg>
