<svg width="800" height="516" viewBox="0 0 800 516" fill="none" xmlns="http://www.w3.org/2000/svg">
<path d="M419.942 20.569L415.25 15.877L412.903 13.5309L410.557 15.877L408.211 18.2229L405.865 15.877H401.173L398.827 20.569L394.135 27.6071L391.789 25.2611L389.443 22.915L387.097 25.2611H382.405L370.675 20.569H361.291L358.945 34.6451V48.7213L356.599 51.0673L351.907 53.4134V55.7594V58.1054L349.561 60.4514L347.215 62.7975V65.1435V67.4896L344.869 76.8736L349.561 83.9117L351.907 95.6419L354.253 105.026L358.945 109.718L361.291 116.756L358.945 119.102L354.253 114.41L351.907 116.756L349.561 119.102L347.215 128.486L337.831 135.524L333.139 137.87H330.793L326.101 135.524L323.755 137.87V142.562V144.908L321.409 147.254L309.678 151.947L297.948 156.639H295.602H293.256L288.564 161.331L286.218 166.023L283.872 180.099L281.526 187.137L283.872 196.521H279.18H276.834L281.526 203.559L288.564 208.251L286.218 210.597L283.872 212.943V215.289V219.981L279.18 222.327L276.834 227.019H279.18H281.526L283.872 229.365L288.564 231.711L290.91 236.404V241.096L288.564 243.442H283.872V255.172L281.526 266.902L290.91 269.248L297.948 264.556L300.294 266.902H302.64L307.332 264.556L309.678 262.21L314.37 264.556L316.716 266.902H319.062H321.409L319.062 273.94L314.37 278.632V280.978V283.324L309.678 288.016L304.986 292.708L302.64 295.054L300.294 297.4V304.438V311.476L293.256 316.168V325.553L300.294 327.899H309.678L314.37 332.591L319.062 339.629H321.409H323.755H326.101H328.447L330.793 337.283L335.485 334.937L344.869 330.245L349.561 325.553L351.907 320.86H356.599L363.637 318.514L365.983 316.168H368.329V313.822L375.367 316.168L377.713 325.553V334.937L380.059 339.629V344.321L377.713 346.667H368.329L356.599 349.013L358.945 353.705V363.089L354.253 365.435L349.561 367.781L347.215 370.127L344.869 374.819V377.165V379.511L337.831 384.203L330.793 388.895L333.139 393.587V395.933L330.793 400.625L328.447 407.664V414.702V421.74L330.793 419.394L333.139 421.74V424.086H335.485L337.831 421.74L340.177 424.086V426.432H342.523L347.215 428.778V438.162V445.2L349.561 452.238V459.276L358.945 454.584H361.291L363.637 452.238L365.983 447.546H370.675L375.367 449.892L380.059 447.546H384.751L387.097 449.892L391.789 456.93H396.481L401.173 459.276H405.865H408.211L410.557 454.584H415.25H419.942H422.288L426.98 452.238L429.326 456.93L431.672 461.622L424.634 466.314L422.288 471.006L424.634 475.698L426.98 478.044L431.672 482.736L426.98 489.774L424.634 492.12V503.851L426.98 515.581L431.672 510.889V506.197L434.018 499.159L438.71 492.12H441.056L443.402 494.467L445.748 492.12L448.094 494.467V496.813V499.159L450.44 496.813L452.786 494.467L455.132 496.813L457.478 499.159L469.208 494.467L478.592 487.428V482.736V478.044L487.976 473.352L492.668 459.276H487.976H483.284L480.938 456.93V454.584L478.592 452.238L476.246 449.892V447.546H478.592H480.938L485.63 440.508L495.014 435.816V438.162L499.707 442.854L504.399 447.546L502.053 452.238V456.93L506.745 459.276H513.783L518.475 438.162L523.167 421.74V419.394L520.821 414.702V412.356V407.664V405.317L518.475 402.971V395.933L516.129 388.895L513.783 384.203L511.437 379.511V374.819V372.473L499.707 339.629V337.283V334.937L502.053 323.207L499.707 313.822L502.053 309.13L499.707 306.784L497.36 309.13L492.668 302.092V295.054H490.322L487.976 292.708L478.592 288.016H480.938H485.63L487.976 283.324L485.63 278.632H480.938L476.246 276.286L473.9 273.94H466.862L459.824 269.248V266.902L455.132 264.556H452.786L450.44 262.21H445.748L443.402 264.556L441.056 266.902L434.018 269.248H429.326H431.672L434.018 273.94V283.324V292.708L431.672 288.016V280.978V278.632L426.98 288.016L415.25 299.746V292.708L419.942 283.324H417.596L415.25 285.67H412.903L408.211 283.324L410.557 280.978L412.903 278.632V276.286L405.865 283.324L408.211 285.67V290.362V292.708H405.865H403.519V295.054L398.827 283.324L391.789 271.594L375.367 278.632L363.637 273.94L368.329 266.902L370.675 262.21L375.367 255.172L377.713 248.134L380.059 243.442L382.405 241.096L389.443 229.365L391.789 215.289L394.135 212.943L396.481 210.597V208.251L394.135 205.905L396.481 201.213V194.175L398.827 191.829L403.519 180.099L408.211 170.715L410.557 166.023V161.331L412.903 158.985L415.25 154.293V149.6V142.562L417.596 133.178L422.288 128.486L424.634 109.718L436.364 93.2959H438.71L441.056 90.9498L443.402 88.6038L445.748 86.2578L457.478 81.5657L469.208 74.5276H471.554L473.9 72.1816H476.246V76.8736L480.938 79.2197L483.284 74.5276L480.938 67.4896H485.63H490.322V62.7975V60.4514L483.284 53.4134L473.9 48.7213H464.516L457.478 46.3753V36.9912L464.516 34.6451L462.17 29.9531V27.6071V25.2611L464.516 22.915L457.478 11.1849L443.402 1.80078L434.018 4.1468L422.288 6.49282V13.5309L419.942 20.569Z" fill="#E11E28" stroke="white" stroke-width="2"/>
</svg>
