<svg width="800" height="518" viewBox="0 0 800 518" fill="none" xmlns="http://www.w3.org/2000/svg">
<path d="M429.97 10.5837H404.281H378.592H370.029L361.466 19.1467L352.903 10.5837H344.34L327.214 27.7097L318.651 36.2727H310.088L301.525 27.7097L284.399 36.2727H267.273L258.71 53.3986V61.9616L267.273 87.6505V104.777V113.34L275.836 121.903L267.273 139.029L258.71 156.154L267.273 173.281V190.406L258.71 198.97L250.147 216.096L267.273 233.221L275.836 250.347L284.399 258.91H292.962V276.037L301.525 284.6L310.088 293.163L318.651 301.726V327.414L327.214 344.54L344.34 353.104L352.903 361.667L344.34 370.23L335.777 387.355V395.918H344.34V404.481L335.777 413.044L344.34 430.17V455.859L361.466 472.985L370.029 481.548H378.592L387.155 472.985L395.718 481.548L404.281 490.111H412.844L421.407 481.548V498.674V515.801L455.659 498.674L489.911 472.985L481.348 447.297L472.785 430.17L481.348 413.044L472.785 387.355L481.348 370.23L489.911 353.104L507.037 344.54V335.977L498.474 318.851L507.037 310.288L515.6 301.726L498.474 284.6H472.785L481.348 250.347L498.474 224.659L489.911 216.096V198.97V181.844L498.474 173.281L524.163 147.592L549.852 139.029V130.466L541.289 53.3986L532.726 44.8356L524.163 36.2727L532.726 19.1467H541.289L532.726 10.5837V2.02051H498.474L472.785 19.1467L455.659 10.5837L438.533 2.02051L429.97 10.5837Z" fill="#E11E28" stroke="white" stroke-width="2"/>
</svg>
