<svg width="800" height="517" viewBox="0 0 800 517" fill="none" xmlns="http://www.w3.org/2000/svg">
<path d="M440.954 9.00612L403.723 1.56006L388.831 16.4522L359.046 38.7906L344.154 31.3445L329.262 38.7906V53.6827L336.708 61.1288H351.6H359.046L351.6 68.5749L344.154 76.0209L351.6 90.9131L336.708 105.805L329.262 120.698L321.816 143.036V165.374L306.924 172.82H299.478H292.032H284.586H277.14V180.266L262.247 172.82H254.801L232.463 187.712L217.571 195.158L239.909 224.943L262.247 254.727L254.801 262.173L239.909 269.619L225.017 277.065L195.233 262.173L187.786 269.619L180.34 284.511L172.894 291.957L165.448 299.404L172.894 306.85L180.34 314.296L187.786 329.188H210.125H217.571L225.017 336.634H232.463H239.909L247.355 344.08L262.247 351.526V358.972L269.693 351.526H284.586V358.972L277.14 373.864L284.586 381.31H292.032V396.203V403.649V411.095L299.478 418.541L292.032 425.987L284.586 433.433L306.924 440.879L299.478 463.217V478.11H306.924V485.556H299.478L306.924 507.894L321.816 515.34L329.262 493.002L336.708 463.217H351.6L359.046 455.771L366.493 425.987L381.385 403.649H396.277L403.723 411.095H418.615L433.507 403.649L448.399 358.972L478.184 344.08L493.076 358.972L507.968 366.418H515.414H522.86L530.306 373.864V381.31L537.753 388.757H552.645L560.091 381.31L574.983 373.864L582.429 351.526L589.875 344.08L574.983 329.188V306.85L612.213 284.511L634.552 254.727L604.767 232.389L574.983 202.604V195.158H552.645L522.86 202.604L500.522 195.158L470.738 180.266V187.712H463.292H455.846L440.954 202.604L418.615 217.497V202.604L426.061 195.158L418.615 172.82V157.928L411.169 143.036L396.277 128.144L411.169 105.805L440.954 98.3591V90.9131V76.0209L463.292 38.7906L448.399 23.8983L440.954 1.56006V9.00612Z" fill="#E11E28" stroke="white" stroke-width="2"/>
</svg>
