<svg width="800" height="520" viewBox="0 0 800 520" fill="none" xmlns="http://www.w3.org/2000/svg">
<path d="M564.838 121.861L516.671 100.454L483.489 89.7502L488.841 79.0465L502.756 68.3427L498.475 57.639L500.615 46.9353L488.841 36.2316H473.856V46.9353L470.645 57.639H469.575L459.941 46.9353L454.589 36.2316L439.604 25.5275H425.689L419.267 14.8238L411.774 4.12012V68.3427L414.985 121.861L409.634 111.158H404.282L403.211 89.7502V79.0465L389.296 89.7502L374.311 100.454V89.7502H378.593L371.1 79.0465L350.763 89.7502L331.496 100.454H320.792H307.948L294.033 111.158H276.907L248.007 89.7502L229.811 57.639L226.599 79.0465L228.74 89.7502L210.544 79.0465H195.559L208.403 100.454L219.107 143.269L211.614 164.677L213.755 186.084L221.248 196.788H228.74H234.092L235.162 228.899L234.092 250.307L256.57 314.529L262.992 389.455L265.133 475.085H300.455L314.37 496.493L322.933 507.196H330.426L364.678 485.789L401.071 475.085L418.197 496.493L435.323 517.9L473.856 496.493L472.786 485.789H489.912L488.841 442.974H494.193L498.475 453.678L515.601 442.974L531.656 421.566L523.093 410.863L529.516 389.455L519.882 357.344L528.445 325.233L542.36 303.825L558.416 314.529L577.682 325.233L583.034 314.529L588.386 293.121L593.738 282.418L592.668 261.01H599.09L604.442 250.307H599.09H586.245L561.627 207.491L566.979 196.788L571.26 186.084L566.979 175.38L564.838 164.677H572.331L581.964 153.973L577.682 132.565L564.838 121.861ZM416.056 261.01L421.408 293.121L451.378 325.233L462.082 378.751L449.237 389.455L442.815 400.159L437.463 410.863L432.111 421.566H425.689H414.985L419.267 400.159L422.478 378.751L398.93 389.455L385.015 410.863L376.452 421.566H366.819L352.904 442.974L331.496 464.382L310.089 442.974L297.244 410.863L301.526 400.159L312.229 389.455H320.792L325.074 400.159L322.933 410.863H336.848L347.552 400.159L344.341 389.455L342.2 368.048L366.819 346.64H391.437L394.648 314.529L387.156 282.418H375.382L365.748 303.825H359.326L342.2 282.418L322.933 261.01L317.581 250.307L314.37 239.603L322.933 228.899L333.637 239.603L350.763 261.01L387.156 271.714L416.056 261.01Z" fill="#E11E28" stroke="white" stroke-width="2"/>
</svg>
