<svg width="800" height="517" viewBox="0 0 800 517" fill="none" xmlns="http://www.w3.org/2000/svg">
<path d="M294.161 1.78003L273.61 12.0556L283.885 22.3313L294.161 32.6067H314.712L324.988 42.8825H314.712L304.436 53.158V63.4336H294.161V53.158V104.536L304.436 125.087H324.988L355.815 135.363L376.366 176.465L355.815 207.292L324.988 227.843L283.885 207.292L273.61 176.465L283.885 145.638L263.334 125.087L253.058 135.363L242.783 125.087L232.507 114.812L222.232 104.536L211.956 114.812H201.68V94.2605H189.35L182.157 104.536L166.743 114.812H171.881L159.55 135.363L141.054 125.087L123.586 135.363H105.09L115.365 166.19L123.586 186.741L133.861 207.292L143.11 227.843L135.917 268.946L151.33 299.772H166.743L187.295 289.497L201.68 299.772L211.956 320.324L232.507 310.048H263.334V320.324L283.885 330.599L304.436 320.324L324.988 310.048V320.324L335.263 330.599L345.539 340.875V361.426V381.977H366.09H386.641L396.917 392.253V402.528L417.468 433.355V453.906L427.744 474.458L448.295 505.285H479.122L499.673 515.56L509.949 505.285L520.224 495.009H540.775L551.051 484.733H540.775V474.458L551.051 464.182V453.906V443.631V433.355L581.878 412.804L612.704 402.528L633.256 381.977V371.702L643.531 361.426H664.082H674.358L694.909 351.15L684.634 340.875L674.358 299.772L664.082 289.497H643.531L622.98 268.946L602.429 248.394H592.153V258.67L602.429 279.221H581.878L571.602 268.946H551.051H530.5H509.949H499.673L489.397 258.67L468.846 279.221L438.019 289.497L417.468 258.67H386.641L366.09 248.394L355.815 238.119H366.09L376.366 217.568L386.641 197.016L407.193 145.638L438.019 104.536V83.9847V73.7092L417.468 42.8825V12.0556H345.539L294.161 1.78003Z" fill="#E11E28" stroke="white" stroke-width="2"/>
</svg>
