<svg width="800" height="517" viewBox="0 0 800 517" fill="none" xmlns="http://www.w3.org/2000/svg">
<path d="M273.61 12.0556L294.161 1.78003L345.539 12.0556H417.468V42.8825L438.019 73.7092V83.9847V104.536L407.193 145.638L386.641 197.016L376.366 217.568L366.09 238.119H355.815L366.09 248.394L386.641 258.67H417.468L438.019 289.497L468.846 279.221L489.397 258.67L499.673 268.946H509.949H530.5H551.051H571.602L581.878 279.221H602.429L592.153 258.67V248.394H602.429L622.98 268.946L643.531 289.497H664.082L674.358 299.772L684.634 340.875L694.909 351.15L674.358 361.426H664.082H643.531L633.256 371.702V381.977L612.704 402.528L581.878 412.804L551.051 433.355V443.631V453.906V464.182L540.775 474.458V484.733H551.051L540.775 495.009H520.224L509.949 505.284L499.673 515.56L479.122 505.284H448.295L427.744 474.458L417.468 453.906V433.355L396.917 402.528V392.253L386.641 381.977H366.09H345.539V361.426V340.875L335.263 330.599L324.988 320.324V310.048L304.436 320.324L283.885 330.599L263.334 320.324V310.048H232.507L211.956 320.324L201.68 299.772L187.295 289.497L166.743 299.772H151.33L135.917 268.946L143.11 227.843L133.861 207.292L123.586 186.741L115.365 166.19L105.09 135.363H123.586L141.054 125.087L159.55 135.363L171.881 114.812H166.743L182.157 104.536L189.35 94.2605H201.68V114.812H211.956L222.232 104.536L232.507 114.812L242.783 125.087L253.058 135.363L263.334 125.087L283.885 145.638L304.436 125.087L294.161 104.536V63.4336H304.436V53.158L314.712 42.8825H324.988L314.712 32.6067H294.161L283.885 22.3313L273.61 12.0556Z" fill="#E11E28"/>
<path d="M294.161 1.78003L273.61 12.0556L283.885 22.3313L294.161 32.6067H314.712L324.988 42.8825H314.712L304.436 53.158V63.4336H294.161V53.158V104.536L304.436 125.087L283.885 145.638L263.334 125.087L253.058 135.363L242.783 125.087L232.507 114.812L222.232 104.536L211.956 114.812H201.68V94.2605H189.35L182.157 104.536L166.743 114.812H171.881L159.55 135.363L141.054 125.087L123.586 135.363H105.09L115.365 166.19L123.586 186.741L133.861 207.292L143.11 227.843L135.917 268.946L151.33 299.772H166.743L187.295 289.497L201.68 299.772L211.956 320.324L232.507 310.048H263.334V320.324L283.885 330.599L304.436 320.324L324.988 310.048V320.324L335.263 330.599L345.539 340.875V361.426V381.977H366.09H386.641L396.917 392.253V402.528L417.468 433.355V453.906L427.744 474.458L448.295 505.284H479.122L499.673 515.56L509.949 505.284L520.224 495.009H540.775L551.051 484.733H540.775V474.458L551.051 464.182V453.906V443.631V433.355L581.878 412.804L612.704 402.528L633.256 381.977V371.702L643.531 361.426H664.082H674.358L694.909 351.15L684.634 340.875L674.358 299.772L664.082 289.497H643.531L622.98 268.946L602.429 248.394H592.153V258.67L602.429 279.221H581.878L571.602 268.946H551.051H530.5H509.949H499.673L489.397 258.67L468.846 279.221L438.019 289.497L417.468 258.67H386.641L366.09 248.394L355.815 238.119H366.09L376.366 217.568L386.641 197.016L407.193 145.638L438.019 104.536V83.9847V73.7092L417.468 42.8825V12.0556H345.539L294.161 1.78003Z" stroke="white" stroke-width="2"/>
</svg>
