<svg width="800" height="517" viewBox="0 0 800 517" fill="none" xmlns="http://www.w3.org/2000/svg">
<path d="M563.769 1.68018H529.517L501.687 23.0876H484.561H467.435L450.309 44.4951L441.746 65.9025H401.071L373.242 44.4951L336.849 1.68018L289.752 23.0876L246.937 44.4951L234.093 87.31L223.389 108.717L225.529 151.532L219.107 172.94L193.418 151.532L122.773 172.94L135.618 215.755L176.292 258.57L236.233 279.978L287.611 301.385V322.793H285.47L304.736 344.2H330.426L349.692 387.015L343.27 408.423L396.789 451.238L454.589 515.46L495.264 494.053L529.516 472.645L508.108 344.2L583.034 258.57L677.227 194.348L668.664 151.532L675.087 108.717L625.849 87.31H578.753V44.4951L563.769 1.68018Z" fill="#E11E28" stroke="white" stroke-width="2"/>
</svg>
