<svg width="800" height="517" viewBox="0 0 800 517" fill="none" xmlns="http://www.w3.org/2000/svg">
<path d="M346.994 15.4163L361.07 1.78003L375.146 29.4925L388.783 57.2049L430.571 70.8412L472.36 84.9174L485.996 98.9935H500.072L513.709 84.9174L541.421 98.9935H569.573H583.21L597.286 126.706L610.922 154.418L597.286 168.055L555.497 237.556L527.785 321.133L541.421 334.769L555.497 362.482L569.573 376.558L597.286 404.27L569.573 487.408H541.421L513.709 473.771V487.408H500.072H485.996H472.36H430.571L402.859 501.484H388.783L375.146 487.408L361.07 501.484L333.358 515.56H314.003L312.683 487.408L333.358 459.695H346.994L333.358 446.059V431.983V404.27V390.634H312.683L283.212 348.845L294.209 321.133L308.285 307.057L294.209 237.556L251.54 223.919L237.464 196.207L225.147 168.055H209.752L189.077 154.418L241.863 98.9935L265.176 43.1288L304.326 29.4925L333.358 15.4163H346.994Z" fill="#E11E28" stroke="white" stroke-width="2"/>
</svg>
