<svg width="800" height="517" viewBox="0 0 800 517" fill="none" xmlns="http://www.w3.org/2000/svg">
<path d="M427.83 18.4661H423.548L414.985 22.7476H410.704H402.141L397.859 5.62164L389.296 1.34009H376.452V9.90313L367.889 14.1846L363.607 27.0291L359.326 35.5921H355.044L346.481 31.3106L342.2 35.5921L337.918 39.8736L325.074 44.1551L307.948 48.4366V52.7181V56.9996H303.666H299.385H295.103V65.5627L299.385 74.1256L295.103 82.6886L290.822 91.2516V104.096L299.385 108.378L290.822 121.222V142.63L299.385 151.193L307.948 155.474L303.666 164.037V168.319H307.948V172.6V176.882H299.385L295.103 189.726L290.822 198.289L286.54 202.571L277.977 206.852V211.134L273.696 219.697L260.851 215.415L243.725 206.852L239.444 215.415L230.881 223.978H222.318L213.755 228.26L222.318 241.104L218.036 253.949L213.755 258.23L209.473 253.949L205.192 258.23L200.91 262.512L192.347 266.793H183.784L179.503 279.638L175.221 296.764L179.503 335.297L188.066 343.86L200.91 352.423V356.705L196.629 365.268L200.91 369.549V378.112L196.629 386.675V403.801L218.036 399.52L235.162 395.238L260.851 412.364L273.696 438.053H269.414V442.335V450.898L273.696 455.179L260.851 459.461V480.868H273.696H290.822L307.948 489.431L320.792 502.276V510.839V515.12L333.637 510.839H337.918L346.481 502.276L355.044 493.713H363.607L376.452 489.431L372.17 485.15H367.889V476.587H372.17V472.305V459.461L385.015 455.179L397.859 450.898H410.704V455.179H414.985H419.267V446.616L432.111 438.053L440.674 442.335L449.237 446.616L457.8 442.335H462.082V446.616H457.8L449.237 455.179L440.674 459.461L444.956 472.305H449.237L457.8 468.024L466.363 455.179L470.645 450.898H479.208L487.771 446.616V442.335V433.772L492.052 425.209L504.897 420.927H513.46L517.741 416.646V408.083H526.304H530.586L526.304 403.801H530.586L534.867 399.52L530.586 390.957L522.023 386.675L513.46 390.957L509.178 395.238V399.52L504.897 403.801H500.615V399.52V395.238V386.675H496.334L492.052 382.394V378.112L496.334 373.831H492.052V369.549V365.268V360.986V356.705V348.142L500.615 331.016L504.897 309.608L500.615 305.327V301.045V288.201L504.897 279.638L500.615 271.075L496.334 262.512L504.897 245.386L509.178 232.541H517.741L522.023 228.26L539.149 202.571H551.993L560.556 206.852L564.838 194.008V185.445L573.401 194.008L577.682 202.571V211.134V219.697L581.964 223.978L586.245 228.26V232.541L590.527 236.823L594.808 232.541L599.09 228.26L603.371 236.823L607.653 249.667L616.216 206.852L624.779 159.756H620.497L616.216 151.193L611.934 146.911V142.63V134.067H607.653L603.371 129.785V125.504V112.659L586.245 104.096L573.401 95.5331V86.9702V82.6886L569.119 74.1256V65.5627L556.275 52.7181L547.712 39.8736V31.3106V22.7476L539.149 5.62164L530.586 1.34009L522.023 5.62164L513.46 18.4661H509.178H504.897H492.052L474.926 14.1846L462.082 22.7476H449.237L440.674 18.4661H436.393H427.83Z" fill="#E11E28"/>
<path d="M410.704 450.898H397.859L385.015 455.179L372.17 459.461V472.305V476.587H367.889V485.15H372.17L376.452 489.431L363.607 493.713H355.044L346.481 502.276L337.918 510.839H333.637L320.792 515.12V510.839V502.276L307.948 489.431L290.822 480.868H273.696H260.851V459.461L273.696 455.179L269.414 450.898V442.335V438.053H273.696L260.851 412.364L235.162 395.238L218.036 399.52L196.629 403.801V386.675L200.91 378.112V369.549L196.629 365.268L200.91 356.705V352.423L188.066 343.86L179.503 335.297L175.221 296.764L179.503 279.638L183.784 266.793H192.347L200.91 262.512L205.192 258.23L209.473 253.949L213.755 258.23L218.036 253.949L222.318 241.104L213.755 228.26L222.318 223.978H230.881L239.444 215.415L243.725 206.852L260.851 215.415L273.696 219.697L277.977 211.134V206.852L286.54 202.571L290.822 198.289L295.103 189.726L299.385 176.882H307.948V172.6V168.319H303.666V164.037L307.948 155.474L299.385 151.193L290.822 142.63V121.222L299.385 108.378L290.822 104.096V91.2516L295.103 82.6886L299.385 74.1256L295.103 65.5627V56.9996H299.385H303.666H307.948V52.7181V48.4366L325.074 44.1551L337.918 39.8736L342.2 35.5921L346.481 31.3106L355.044 35.5921H359.326L363.607 27.0291L367.889 14.1846L376.452 9.90313V1.34009H389.296L397.859 5.62164L402.141 22.7476H410.704H414.985L423.548 18.4661H427.83H436.393H440.674L449.237 22.7476H462.082L474.926 14.1846L492.052 18.4661H504.897H509.178H513.46L522.023 5.62164L530.586 1.34009L539.149 5.62164L547.712 22.7476V31.3106V39.8736L556.275 52.7181L569.119 65.5627V74.1256L573.401 82.6886V86.9702V95.5331L586.245 104.096L603.371 112.659V125.504V129.785L607.653 134.067H611.934V142.63V146.911L616.216 151.193L620.497 159.756H624.779L616.216 206.852L607.653 249.667L603.371 236.823L599.09 228.26L594.808 232.541L590.527 236.823L586.245 232.541V228.26L581.964 223.978L577.682 219.697V211.134V202.571L573.401 194.008L564.838 185.445V194.008L560.556 206.852L551.993 202.571H539.149L522.023 228.26L517.741 232.541H509.178L504.897 245.386L496.334 262.512L500.615 271.075L504.897 279.638L500.615 288.201V301.045V305.327L504.897 309.608L500.615 331.016L492.052 348.142V356.705V360.986V365.268V369.549V373.831H496.334L492.052 378.112V382.394L496.334 386.675H500.615V395.238V399.52V403.801H504.897L509.178 399.52V395.238L513.46 390.957L522.023 386.675L530.586 390.957L534.867 399.52L530.586 403.801H526.304L530.586 408.083H526.304H517.741V416.646L513.46 420.927H504.897L492.052 425.209L487.771 433.772V442.335V446.616L479.208 450.898H470.645L466.363 455.179L457.8 468.024L449.237 472.305H444.956L440.674 459.461L449.237 455.179L457.8 446.616H462.082V442.335H457.8L449.237 446.616L440.674 442.335L432.111 438.053L419.267 446.616V455.179H414.985H410.704V450.898ZM410.704 450.898H414.985" stroke="white" stroke-width="2"/>
</svg>
