<svg width="800" height="517" viewBox="0 0 800 517" fill="none" xmlns="http://www.w3.org/2000/svg">
<path d="M456.304 1.56006V5.07914L442.228 15.6362L421.114 7.19055L407.038 2.2639L400 7.89434L385.924 15.6362L378.886 4.3753L371.848 3.67152L357.771 1.56011V7.89439V15.6362L329.619 29.7124L308.505 57.8648V64.9028V71.9409L301.467 107.131L294.429 135.284L273.314 142.322H245.162L202.934 177.512L231.086 212.703L252.2 247.893V269.007L259.238 290.121L280.353 283.083L287.391 290.121H294.429L301.467 297.16V283.083V269.007L308.505 254.931V247.893V240.855V226.779L322.581 254.931V261.969H315.543V276.045V297.16H322.581H329.619L336.657 332.35H329.619V339.388L336.657 346.426H343.695V360.502V381.617L357.771 402.731L378.886 430.883L400 466.074L414.076 494.226L484.457 515.34L526.685 508.302L561.876 494.226L568.914 487.188V473.112L582.99 459.036L597.066 437.921L590.028 423.845L582.99 416.807L590.028 395.693L597.066 374.578H590.028H582.99V353.464V332.35L575.952 325.312V332.35L568.914 283.083V233.817V212.703V205.664L561.876 191.588H554.838L561.876 184.55L554.838 177.512V170.474H547.8H540.762L533.723 149.36L526.685 135.284L512.609 128.246L498.533 135.284L491.495 128.246L505.571 121.207L519.647 107.131L505.571 100.093L512.609 93.0552L505.571 86.0171L491.495 78.979H498.533L505.571 71.9409L498.533 64.9028V57.8648L512.609 71.9409L533.723 78.979L526.685 57.8648L519.647 29.7124V36.7505H512.609H505.571H498.533V43.7886L491.495 36.7505V29.7124L484.457 15.6362V8.59817L477.419 15.6362V22.6743H463.343L456.304 2.2639V1.56006Z" fill="#E11E28"/>
<path d="M505.571 100.093L519.647 107.131L505.571 121.207L491.495 128.246L498.533 135.284L512.609 128.246L526.685 135.284L533.723 149.36L540.762 170.474H547.8H554.838V177.512L561.876 184.55L554.838 191.588H561.876L568.914 205.664V212.703V233.817V283.083L575.952 332.35V325.312L582.99 332.35V353.464V374.578H590.028H597.066L590.028 395.693L582.99 416.807L590.028 423.845L597.066 437.921L582.99 459.036L568.914 473.112V487.188L561.876 494.226L526.685 508.302L484.457 515.34L414.076 494.226L400 466.074L378.886 430.883L357.771 402.731L343.695 381.617V360.502V346.426H336.657L329.619 339.388V332.35H336.657L329.619 297.16H322.581H315.543V276.045V261.969H322.581V254.931L308.505 226.779V240.855V247.893V254.931L301.467 269.007V283.083V297.16L294.429 290.121H287.391L280.353 283.083L259.238 290.121L252.2 269.007V247.893L231.086 212.703L202.934 177.512L245.162 142.322H273.314L294.429 135.284L301.467 107.131L308.505 71.9409V64.9028V57.8648L329.619 29.7124L357.771 15.6362V7.89439V1.56011L371.848 3.67152L378.886 4.3753L385.924 15.6362L400 7.89434L407.038 2.2639L421.114 7.19055L442.228 15.6362L456.304 5.07914V1.56006V2.2639L463.343 22.6743H477.419V15.6362L484.457 8.59817V15.6362L491.495 29.7124V36.7505L498.533 43.7886V36.7505H505.571H512.609H519.647V29.7124L526.685 57.8648L533.723 78.979L512.609 71.9409L498.533 57.8648V64.9028L505.571 71.9409L498.533 78.979H491.495L505.571 86.0171L512.609 93.0552L505.571 100.093ZM505.571 100.093H498.533" stroke="white" stroke-width="2"/>
</svg>
