<svg width="800" height="517" viewBox="0 0 800 517" fill="none" xmlns="http://www.w3.org/2000/svg">
<path d="M644.657 246.117V221.652L595.725 197.186L571.26 172.72H546.794L522.329 197.186L497.863 172.72L473.397 148.255H400L375.534 99.3228L351.069 74.8571L326.603 50.3915L253.206 1.46021H179.808H155.343L130.877 25.9258L106.411 1.46021H81.9454L57.4798 50.3915L81.9454 99.3228H57.4798L33.0142 148.255L57.4798 172.72L33.0142 221.652H106.411L130.877 246.117L253.206 270.583L277.671 343.98V368.446L302.137 392.912V441.843L326.603 515.24H351.069H375.534L424.466 490.775H473.397H497.863V466.309H546.794H571.26H595.725L669.123 515.24L718.054 490.775L742.52 466.309L766.986 441.843L742.52 417.377V392.912V368.446V319.514H718.054L693.588 295.049L718.054 246.117V221.652H669.123L644.657 246.117Z" fill="#E11E28" stroke="white" stroke-width="2"/>
</svg>
