<svg width="800" height="518" viewBox="0 0 800 518" fill="none" xmlns="http://www.w3.org/2000/svg">
<path d="M666.771 239.809L607.488 259.57L567.967 279.331H548.206V259.57L508.684 279.331L469.163 299.092L429.642 220.048L390.12 81.7236L350.598 61.9629H311.077L291.316 42.2016L251.795 2.68018V22.4409V61.9629L212.273 81.7236L192.512 101.484H152.991H113.469L152.991 121.245L172.752 160.766L133.23 141.006H113.469V160.766L73.9478 180.527L113.469 239.809L152.991 279.331L172.752 259.57L192.512 239.809L232.034 318.853L291.316 437.417H330.838L370.359 397.895L429.642 457.177L508.684 496.699H587.727L627.249 516.46L706.292 397.895L726.053 318.853H706.292V299.092H686.531L666.771 279.331L686.531 259.57L666.771 239.809Z" fill="#E11E28" stroke="white" stroke-width="2"/>
</svg>
