<svg width="800" height="517" viewBox="0 0 800 517" fill="none" xmlns="http://www.w3.org/2000/svg">
<path d="M361.07 1.78003L346.994 15.4163H333.358L304.326 29.4925L265.176 43.1288L241.863 98.9935L189.077 154.418L209.752 168.055H225.147L237.464 196.207L251.54 223.92L294.208 237.556L308.285 307.057L294.208 321.133L283.211 348.845L312.683 390.634H333.358V404.27V431.983V446.059L346.994 459.695H333.358L312.683 487.408L314.003 515.56H333.358L361.07 501.484L375.146 487.408L388.783 501.484H402.859L430.571 487.408H472.36H485.996H500.072H513.709V473.771L541.421 487.408H569.573L597.286 404.27L569.573 376.558L555.497 362.482L541.421 334.769L527.785 321.133L555.497 237.556L597.286 168.055L610.922 154.418L597.286 126.706L583.21 98.9935H569.573H541.421L513.709 84.9174L500.072 98.9935H485.996L472.36 84.9174L430.571 70.8412L388.783 57.2049L375.146 29.4925L361.07 1.78003ZM445.527 186.97L455.644 205.884C460.648 209.871 461.794 212.985 472.36 211.603L467.961 225.239L478.958 259.99L473.24 282.863L438.049 285.943L415.176 270.547L392.302 282.863L381.305 264.828L372.507 284.623L339.956 286.382L325 267.468L304.766 282.424L298.167 249.433L321.921 241.955L329.399 212.483L354.472 240.195L372.947 222.6L411.656 239.755L416.935 211.603L433.65 202.805L445.527 186.97Z" fill="#E11E28" stroke="white" stroke-width="2"/>
</svg>
