<svg width="800" height="519" viewBox="0 0 800 519" fill="none" xmlns="http://www.w3.org/2000/svg">
<path d="M336.612 63.3923H303.25L276.56 90.0821L283.232 116.772L316.595 123.444H323.267L329.94 116.772H336.612L343.285 110.1V116.772L336.612 123.444H343.285L349.957 116.772V90.0821L336.612 63.3923ZM643.545 216.859L656.891 223.531V230.204V236.876V243.549L676.908 256.894L690.253 236.876L683.58 216.859L676.908 196.842V183.497L670.235 170.152H656.891V183.497H650.218H643.545V216.859ZM456.717 210.187L436.699 203.514L410.009 196.842L376.647 203.514L383.319 210.187V223.531H369.974L363.302 216.859V210.187L369.974 203.514L349.957 196.842H329.94H323.267L316.595 190.169L276.56 196.842L236.525 190.169L229.852 183.497V190.169H223.18V196.842V210.187L216.508 196.842L203.163 190.169L196.49 183.497L169.8 203.514L143.11 230.204L109.748 216.859L83.0583 196.842L89.7307 176.824L96.4031 163.479L89.7307 150.134L83.0583 136.789L109.748 123.444L129.766 116.772L163.128 136.789L169.8 130.117L176.473 123.444V116.772H183.145V96.7547V76.7371L163.128 50.0473L136.438 30.0299L129.766 10.0125L123.093 3.34009V23.3574V56.7198L83.0583 90.0821L49.6958 116.772V136.789V156.807L23.006 176.824L9.66113 190.169V196.842V210.187L36.3509 250.221L56.3683 290.256L63.0409 303.601L69.7134 310.274V316.946H83.0583V310.274L96.4031 303.601H109.748L123.093 310.274L136.438 323.619H183.145L236.525 330.291L249.87 323.619L256.542 316.946L263.215 323.619V330.291L276.56 323.619H289.905L323.267 350.308L363.302 383.671L563.476 503.775L570.148 510.448L576.821 517.12L616.856 510.448L663.563 497.103V490.43L670.235 477.085L676.908 483.758H683.58L696.925 477.085L710.27 470.413L723.615 463.74L736.96 457.068L743.633 450.395H750.305H756.977L770.322 457.068L783.667 437.05V423.706L776.995 417.033L763.65 397.016L770.322 390.343L776.995 383.671L790.34 370.326V356.981L770.322 323.619L743.633 296.929L710.27 270.239L703.598 263.566L696.925 256.894L690.253 263.566L683.58 270.239L676.908 263.566H670.235L663.563 270.239V310.274L656.891 350.308L650.218 343.636H643.545L630.201 350.308L616.856 343.636H610.183L603.511 356.981L583.493 363.653L576.821 350.308L583.493 336.963L596.838 330.291H603.511V316.946L596.838 303.601H603.511L556.803 296.929L516.769 303.601L503.424 283.584L463.389 270.239L436.699 276.911V283.584L430.027 290.256L423.354 276.911H410.009L403.337 283.584H396.664L403.337 276.911V270.239V263.566L389.992 256.894H376.647L383.319 250.221V243.549H389.992H396.664L410.009 250.221L416.682 236.876L423.354 223.531H430.027L436.699 216.859V210.187H430.027H443.371H456.717Z" fill="#E11E28"/>
<path d="M229.852 183.497L236.525 190.169L276.56 196.842L316.595 190.169L323.267 196.842H329.94H349.957L369.974 203.514L363.302 210.187V216.859L369.974 223.531H383.319V210.187L376.647 203.514L410.009 196.842L436.699 203.514L456.717 210.187H443.371H430.027H436.699V216.859L430.027 223.531H423.354L416.682 236.876L410.009 250.221L396.664 243.549H389.992H383.319V250.221L376.647 256.894H389.992L403.337 263.566V270.239V276.911L396.664 283.584H403.337L410.009 276.911H423.354L430.027 290.256L436.699 283.584V276.911L463.389 270.239L503.424 283.584L516.769 303.601L556.803 296.929L603.511 303.601H596.838L603.511 316.946V330.291H596.838L583.493 336.963L576.821 350.308L583.493 363.653L603.511 356.981L610.183 343.636H616.856L630.201 350.308L643.545 343.636H650.218L656.891 350.308L663.563 310.274V270.239L670.235 263.566H676.908L683.58 270.239L690.253 263.566L696.925 256.894L703.598 263.566L710.27 270.239L743.633 296.929L770.322 323.619L790.34 356.981V370.326L776.995 383.671L770.322 390.343L763.65 397.016L776.995 417.033L783.667 423.706V437.05L770.322 457.068L756.977 450.395H750.305H743.633L736.96 457.068L723.615 463.74L710.27 470.413L696.925 477.085L683.58 483.758H676.908L670.235 477.085L663.563 490.43V497.103L616.856 510.448L576.821 517.12L570.148 510.448L563.476 503.775L363.302 383.671L323.267 350.308L289.905 323.619H276.56L263.215 330.291V323.619L256.542 316.946L249.87 323.619L236.525 330.291L183.145 323.619H136.438L123.093 310.274L109.748 303.601H96.4031L83.0583 310.274V316.946H69.7134V310.274L63.0409 303.601L56.3683 290.256L36.3509 250.221L9.66113 210.187V196.842V190.169L23.006 176.824L49.6958 156.807V136.789V116.772L83.0583 90.0821L123.093 56.7198V23.3574V3.34009L129.766 10.0125L136.438 30.0299L163.128 50.0473L183.145 76.7371V96.7547V116.772H176.473V123.444L169.8 130.117L163.128 136.789L129.766 116.772L109.748 123.444L83.0583 136.789L89.7307 150.134L96.4031 163.479L89.7307 176.824L83.0583 196.842L109.748 216.859L143.11 230.204L169.8 203.514L196.49 183.497L203.163 190.169L216.508 196.842L223.18 210.187V196.842V190.169H229.852V183.497ZM229.852 183.497V176.824M336.612 63.3923H303.25L276.56 90.0821L283.232 116.772L316.595 123.444H323.267L329.94 116.772H336.612L343.285 110.1V116.772L336.612 123.444H343.285L349.957 116.772V90.0821L336.612 63.3923ZM643.545 216.859L656.891 223.531V230.204V236.876V243.549L676.908 256.894L690.253 236.876L683.58 216.859L676.908 196.842V183.497L670.235 170.152H656.891V183.497H650.218H643.545V216.859Z" stroke="white" stroke-width="2"/>
</svg>
