<svg width="816" height="517" viewBox="0 0 816 517" fill="none" xmlns="http://www.w3.org/2000/svg">
<path d="M585.532 15.7318L556.989 44.2751H499.902L442.815 15.7318V30.0034H428.544L400 44.2751L385.729 72.8187L357.185 87.0904L328.642 72.8187L300.099 58.5467L271.555 87.0904L257.284 101.362L243.012 87.0904H228.74V115.634L214.469 129.905V144.177H228.74H200.197H185.925H143.111L100.295 158.448L57.4804 186.992L0.393687 201.263V215.535V229.807H-13.8779V244.079H0.393687L28.9371 258.35V286.893L14.6655 301.165L43.2088 329.708L57.4804 343.98H86.0238L114.567 358.252L143.111 458.153L171.654 515.24L200.197 500.968L228.74 486.697V500.968H243.012L271.555 486.697L314.37 472.425L328.642 486.697L314.37 500.968L328.642 515.24H342.914H357.185V500.968L385.729 486.697H414.272H428.544L414.272 458.153V415.338L442.815 401.067L457.087 386.795L471.359 358.252L457.087 343.98L471.359 315.437H485.63L471.359 286.893L485.63 258.35H499.902L514.174 272.622L528.445 258.35L542.717 244.079L585.532 258.35L628.347 286.893L642.619 272.622L656.89 258.35L671.162 229.807L685.434 215.535L742.52 244.079L771.063 229.807L799.607 215.535L813.879 201.263L771.063 144.177L728.248 87.0904L671.162 72.8187H656.89H642.619V44.2751L599.804 1.46021L585.532 15.7318Z" fill="#E11E28" stroke="white" stroke-width="2"/>
</svg>
