<svg width="800" height="518" viewBox="0 0 800 518" fill="none" xmlns="http://www.w3.org/2000/svg">
<path d="M414.357 47.1134V32.0023H369.023L338.801 47.1134L323.689 16.8912L302.534 1.78003L273.823 16.8912H249.645L174.089 47.1134L184.667 107.558L199.778 152.892L186.178 168.003H168.044L166.532 183.114L163.51 198.225L118.177 213.336L110.621 243.559L83.4209 273.781L86.4431 304.003L106.088 334.226L127.243 349.337L211.866 379.559L294.978 394.671L323.689 409.782L338.8 424.893L384.134 409.782L429.467 394.671L444.578 379.559L459.69 364.448L505.023 394.671L535.245 440.004H550.357L565.468 455.116L595.69 470.227L610.801 455.116H625.912L656.135 470.227L671.246 500.449H686.357L716.58 515.56V470.227V424.893L701.468 409.782H686.357V394.671H671.246V364.448L686.357 319.115L656.135 273.781L641.024 243.559V198.225L610.801 168.003V152.892L595.69 137.781H565.468H535.245V107.558V77.3359L520.134 62.2246L505.023 47.1134V32.0023L474.801 47.1134L444.578 62.2246L414.357 47.1134Z" fill="#E11E28" stroke="white" stroke-width="2"/>
</svg>
