<svg width="800" height="518" viewBox="0 0 800 518" fill="none" xmlns="http://www.w3.org/2000/svg">
<path d="M271.555 27.1005L254.981 18.8137L238.408 2.24023L230.121 18.8137V27.1005L221.834 43.674V51.9607V60.2475L205.261 68.5345L196.974 85.108L205.261 101.681V118.255H196.974H172.114L155.54 126.542L138.967 143.115H130.68H122.393V159.689L130.68 167.976L114.106 184.549L105.819 225.983L114.106 242.557L122.393 267.417V275.704L114.106 283.99L105.819 300.564L97.5327 325.424H114.106H130.68L138.967 317.137L147.253 308.851L155.54 317.137H163.827H172.114H180.4L163.827 333.711L147.253 341.998L172.114 391.718L205.261 449.726L213.547 433.152L230.121 424.866L238.408 433.152V441.439L254.981 433.152H271.555L296.415 441.439H321.276L329.562 433.152L387.57 408.292L437.291 391.718V400.005L445.577 424.866L453.864 433.152V441.439V449.726H462.151L470.438 458.013L462.151 466.299H453.864L495.298 516.02L520.158 491.16L561.592 466.299V482.873H578.166V466.299H594.739H611.313H627.886H644.46L652.747 458.013L677.607 441.439L685.894 424.866L694.181 416.579V400.005L685.894 383.432L694.181 366.858L702.467 350.285L694.181 341.998V333.711V317.137L685.894 292.277V283.99L694.181 267.417H677.607H661.034H652.747L644.46 259.13L636.173 283.99L619.6 292.277H611.313V283.99L603.026 275.704L611.313 267.417L619.6 259.13V225.983V217.696V201.123H611.313H594.739L586.453 209.409V217.696L578.166 209.409H569.879H528.445L521.184 176.262L462.151 167.976L421.207 102.037L363.04 69.3094L370.782 60.7371L271.555 27.1005Z" fill="#E11E28" stroke="white" stroke-width="2"/>
</svg>
