<svg width="800" height="516" viewBox="0 0 800 516" fill="none" xmlns="http://www.w3.org/2000/svg">
<path d="M519.553 39.5214L440.51 19.7607L361.467 0L353.562 19.7607H339.73L296.256 39.5214H264.639L256.734 59.2822L250.806 98.8036L203.38 118.564L181.644 158.086L207.332 177.847L240.926 197.608V217.369V256.89L292.304 276.651L329.849 296.411L331.825 335.933L335.778 395.216L355.538 414.976L375.299 434.737L369.371 454.498V494.019H385.18H399.012L404.94 513.78H418.773L483.983 494.019L507.696 513.78L513.625 474.259L511.649 454.498L521.529 434.737L533.385 395.216L616.381 355.694L614.404 296.411L618.356 256.89L598.595 237.129L576.858 217.369L533.384 118.564L519.553 39.5214Z" fill="#E11E28" stroke="white" stroke-width="2"/>
</svg>
