<svg width="800" height="518" viewBox="0 0 800 518" fill="none" xmlns="http://www.w3.org/2000/svg">
<path d="M570.054 60.131L512.163 81.8399L461.509 67.3673H447.036L439.8 74.6036L418.091 60.131L403.618 52.8947L389.146 45.6584H374.673V31.1855L381.909 23.9492L374.673 9.47655L367.437 2.24023L345.728 16.7129L324.019 31.1855V60.131V74.6036L309.546 81.8399L302.31 89.0763L309.546 96.3126H324.019H331.255V103.549L338.491 161.44H316.782L302.31 154.203V161.44V168.676V175.912H295.073L287.837 183.149V190.385V197.621H280.6L273.364 204.858V212.094L258.892 219.33L251.655 226.567L258.892 233.803L251.655 241.039H244.419V248.276L251.655 255.512L237.183 262.749H229.946V277.221L244.419 298.93L237.183 335.112V349.585H244.419L222.71 378.53L229.946 393.002L237.183 400.239L244.419 407.475H251.655L258.892 400.239H266.128V407.475H273.364V400.239L280.6 393.002V414.712V443.657L295.073 436.421V429.184L309.546 436.421L324.019 450.893L331.255 458.13H345.728V465.366L338.491 472.602L324.019 465.366L309.546 487.075L316.782 501.548L331.255 494.311L367.437 516.02H374.673L403.618 501.548H425.327L439.8 487.075H454.273L461.509 465.366L468.745 450.893L475.982 443.657V436.421L468.745 414.712L461.509 400.239L468.745 364.057L483.218 349.585L475.982 342.348V327.875H483.218H490.455L504.927 313.403L519.4 306.166H541.109H548.345V291.694L541.109 277.221L548.345 262.749L562.818 255.512V248.276V241.039L570.054 226.567L577.291 219.33V204.858L570.054 197.621L562.818 183.149L570.054 175.912V168.676V161.44L562.818 146.967V139.731V132.494V118.022L555.581 110.785V103.549H562.818V96.3126V81.8399H570.054V67.3673V60.131Z" fill="#E11E28" stroke="white" stroke-width="2"/>
</svg>
