<svg width="800" height="517" viewBox="0 0 800 517" fill="none" xmlns="http://www.w3.org/2000/svg">
<path d="M410.14 170.467L416.901 150.186H410.14L403.38 143.426V136.665L396.62 129.905L389.86 123.145V102.864V82.5835L396.62 69.0628V62.3026L383.099 48.7821V35.2616L389.86 28.5014V21.7411H383.099L369.579 1.46021L349.298 14.9807L335.778 35.2616L322.257 42.0219L308.736 48.7821L295.216 69.0628L281.695 82.5835H268.175L261.415 89.3438L234.374 102.864L214.093 123.145L160.011 129.905V136.665L173.531 156.946V170.467L193.812 183.987H227.613V197.508V217.789L247.894 224.549L261.415 238.07L268.175 251.59V265.11L274.935 292.152L281.695 319.193L274.935 325.953V339.473L288.456 332.713L295.216 319.193L301.976 325.953H308.736V332.713V346.234L322.257 359.754L329.017 373.275H342.538H349.298L356.058 366.515L362.819 359.754L389.86 366.515L416.901 380.035L423.661 393.555V400.316H437.181L450.702 393.555L457.462 400.316L464.223 407.076H470.983H477.743L484.503 427.357L477.743 440.877L511.544 488.199H531.825L545.346 474.679L552.106 488.199V494.96L599.428 515.24L639.989 481.439L619.708 447.638L599.428 420.597H606.188V413.836L599.428 400.316V386.795H592.667L606.188 366.515L619.708 359.754L599.428 339.473L579.147 332.713L572.387 339.473H565.626V332.713V325.953L558.866 319.193L552.106 332.713H538.585L518.305 359.754L491.264 352.994V346.234L477.743 339.473H464.223H450.702L443.942 332.713L437.181 319.193H430.421L443.942 285.391L437.181 278.631L430.421 271.871L443.942 258.35L457.462 238.07L437.181 224.549L423.661 244.83H416.901L410.14 217.789L403.38 197.508L410.14 204.268H416.901V190.748L410.14 183.987V163.707V170.467Z" fill="#E11E28" stroke="white" stroke-width="2"/>
</svg>
