<svg width="800" height="517" viewBox="0 0 800 517" fill="none" xmlns="http://www.w3.org/2000/svg">
<path d="M513.334 167.903L483.112 198.125H452.889L407.555 107.458L377.333 47.0135L362.222 62.1251L347.111 77.2358L301.777 47.0135L286.666 1.68018H256.444L241.333 16.7913L226.222 47.0135L211.11 62.1251L226.222 77.2358V107.458L195.999 122.57L211.11 167.903V243.459L195.999 258.57L165.777 273.681L195.999 303.904L241.333 334.126L256.444 364.348L271.555 379.46H301.777L316.889 394.571L332 409.682V424.793L377.333 455.015H407.555L422.667 470.126V500.349L468 485.237H498.223L528.445 500.349L543.556 515.46L588.89 485.237L634.223 424.793V394.571L619.112 364.348L634.223 303.904L619.112 243.459L558.667 213.236L513.334 167.903Z" fill="#E11E28" stroke="white" stroke-width="2"/>
</svg>
