<svg width="800" height="517" viewBox="0 0 800 517" fill="none" xmlns="http://www.w3.org/2000/svg">
<path d="M414.076 85.797L400 71.7209L385.924 57.6448H371.848L357.771 50.6067L350.733 43.5685L357.771 29.4923L343.695 15.4162H336.657H329.619L287.391 1.34009L273.314 36.5304L280.352 57.6448L266.276 64.6829L294.429 99.8732L322.581 113.949L301.467 142.102L266.276 163.216V184.33L280.352 198.406L273.314 205.445L266.276 226.559L252.2 233.597L245.162 247.673L224.048 311.016L195.895 374.358L188.857 381.397L181.819 374.358V381.397L174.781 388.435H167.743L160.705 395.473V430.663L167.743 423.625H174.781L181.819 444.739L188.857 458.815L209.972 465.854H231.086V472.892L238.124 479.93L245.162 486.968H252.2L259.238 508.082V515.12H273.314H287.391L301.467 501.044L308.505 479.93V472.892H322.581L357.771 465.854L371.848 444.739L385.924 430.663L400 444.739H421.114V430.663L428.152 409.549L463.343 402.511L484.457 381.397V374.358V353.244L498.533 332.13L484.457 296.94L505.571 275.825L519.647 268.787L533.723 261.749L568.914 226.559L604.104 191.368V184.33V177.292L618.181 149.14L639.295 128.026L568.914 113.949L526.685 78.759H505.571L491.495 85.797H484.457L477.419 78.759L470.381 85.797H456.305V78.759H449.266H428.152L414.076 85.797Z" fill="#E11E28" stroke="white" stroke-width="2"/>
</svg>
