<svg width="800" height="516" viewBox="0 0 800 516" fill="none" xmlns="http://www.w3.org/2000/svg">
<path d="M545.659 54.7678H529.769L519.176 49.4711V38.8777L524.472 28.2844L519.176 17.6908L508.582 7.09747L503.286 1.80078L487.396 12.3942L471.506 28.2844H466.209H460.912V33.5811L466.209 38.8777L471.506 44.1744V49.4711L476.802 54.7678H487.396H497.989L487.396 86.5481L466.209 97.1414V107.735V118.328L445.022 134.218L418.538 144.812L413.242 139.515L407.945 134.218L402.648 139.515L397.352 144.812V139.515V134.218L392.055 128.922L386.758 134.218L381.462 128.922H376.165L365.572 144.812L360.275 160.702V171.295L349.681 181.889V208.372V240.152L344.385 250.746L349.681 261.339L344.385 266.636L339.088 277.229L344.385 293.119L333.791 303.713H291.418L275.528 309.009L270.231 330.196L259.638 335.493L254.341 340.79L259.638 351.383L264.934 361.976L280.824 393.757L286.121 425.537L291.418 430.834V436.13L286.121 473.207L270.231 478.504L264.934 489.097H270.231L275.528 494.394L280.824 504.987L286.121 515.581L291.418 504.987V499.691L286.121 494.394L280.824 489.097H302.011H307.308V483.801V478.504L312.604 457.317L323.198 441.427L317.901 436.13L323.198 430.834H328.495V436.13V446.724L333.791 441.427L339.088 436.13L344.385 430.834V425.537L349.681 441.427V452.02H354.978V446.724H360.275L365.572 452.02L370.868 446.724L381.462 452.02L386.758 457.317V446.724L392.055 452.02L402.648 446.724L413.242 436.13L445.022 404.35L466.209 367.273L471.506 361.976V351.383H476.802V346.086V330.196L482.099 314.306V303.713L492.692 293.119L497.989 266.636L508.582 234.856L519.176 203.075L529.769 176.592L535.066 150.108L540.363 118.328V107.735V91.8447L545.659 70.658V54.7678Z" fill="#E11E28" stroke="white" stroke-width="2"/>
</svg>
