<svg width="800" height="516" viewBox="0 0 800 516" fill="none" xmlns="http://www.w3.org/2000/svg">
<path d="M539.979 52.4267L531.591 31.456L521.106 0L498.038 31.456L473.922 52.4267H468.679H441.417L424.641 73.3972L431.98 83.8825L437.223 94.3678L421.495 125.824L406.815 115.338L411.01 104.853L414.155 94.3678H407.864L405.767 104.853H395.282L386.893 94.3678L368.02 104.853H348.098V115.338H352.292L351.243 125.824L340.758 157.28L316.642 178.25L290.429 188.736L292.526 199.221L293.574 209.706L267.361 241.162L232.759 283.103H231.711L232.759 293.589L241.148 304.074L251.633 314.559L247.439 325.045L246.39 335.53H255.827L269.458 356.5L256.876 387.956L248.487 398.442H264.215L272.604 408.927H290.429L309.302 461.354V482.324L314.545 492.809H336.564L351.243 513.78L378.505 492.809L404.719 471.839L411.01 440.383V419.412L420.446 408.927L429.883 398.442L424.641 387.956H423.591L438.271 377.471L455.048 366.986L452.95 346.015L471.824 325.045L477.067 304.074L508.523 293.589L510.62 283.103L511.669 272.618H524.251L533.688 262.133L523.202 230.677L515.863 188.736L568.289 167.765L552.561 136.309L559.901 94.3678L550.464 73.3972L539.979 52.4267Z" fill="#E11E28" stroke="white" stroke-width="2"/>
</svg>
