<svg width="800" height="517" viewBox="0 0 800 517" fill="none" xmlns="http://www.w3.org/2000/svg">
<path d="M501.768 21.4415L462.246 1.68018V21.4415H442.485H422.725H402.964H343.681L304.16 41.2022H284.399L264.638 21.4415L244.878 41.2022L205.356 60.9629H177.691L80.8633 219.049L94.6958 258.57V298.092H138.17L183.619 317.853L177.691 357.374L185.595 396.896L225.117 416.657H284.399L304.16 456.178L323.921 475.939H363.442L383.203 456.178L501.768 515.46H521.528H541.289L561.05 495.699V475.939L580.81 495.699H620.332L600.571 456.178H561.05L600.571 436.417H640.093L659.854 416.657L699.375 396.896V357.374L719.136 317.853V278.331L679.614 258.57H659.854L679.614 238.81V219.049V199.288L600.571 100.484L541.289 21.4415H501.768Z" fill="#E11E28" stroke="white" stroke-width="2"/>
</svg>
