<svg width="800" height="517" viewBox="0 0 800 517" fill="none" xmlns="http://www.w3.org/2000/svg">
<path d="M625.273 11.7805H617.369L610.453 21.6609L567.967 31.5412L527.457 21.6609L504.732 1.90015L473.115 31.5412L431.618 21.6609L424.701 31.5412V51.3022H432.606L438.534 61.1823H423.713H396.048L393.084 71.0629L396.048 80.9433L388.144 100.704L381.228 110.584L363.443 130.345L337.754 140.225L306.137 120.465L275.507 90.8237H264.639H254.759H236.974L219.189 80.9433L194.488 100.704L167.811 120.465L184.608 130.345L193.5 140.225L222.153 150.106L243.89 159.986L241.914 169.867H235.986L228.082 189.628L222.153 179.747H212.273L194.488 169.867H178.68L176.704 179.747L180.656 189.628L167.811 199.508L162.871 209.388L193.5 219.269L237.962 239.029L249.818 248.91L253.771 268.671L244.878 278.551H237.962L239.938 288.431L243.89 298.312L239.938 308.192L234.998 318.072L257.723 357.594H269.579H274.519L269.579 367.475H263.651L264.639 387.235L259.699 397.116L279.46 406.996L296.256 426.757L331.826 416.876L358.503 406.996L400.988 436.637L431.618 505.8L449.402 515.68L464.223 505.8L469.163 515.68H473.115L483.984 505.8L491.888 486.039H517.577H542.278L544.254 476.159H546.23L573.895 446.517L587.728 416.876H558.086L541.29 406.996L547.218 397.116L541.29 387.235L534.374 377.355H525.481H518.565L523.505 367.475V357.594H515.601H506.708L508.685 347.714L516.589 298.312L501.768 268.671L491.888 248.91L496.828 239.029H506.708L518.565 229.149L531.409 219.269L564.015 229.149L599.584 209.388L597.608 179.747L592.668 159.986L586.74 150.106H582.787L610.453 120.465L637.13 100.704L627.249 51.3022L625.273 11.7805Z" fill="#E11E28" stroke="white" stroke-width="2"/>
</svg>
