<svg width="800" height="516" viewBox="0 0 800 516" fill="none" xmlns="http://www.w3.org/2000/svg">
<path d="M510.096 466.65L501.94 470.727H497.863H493.785V474.805V478.882L489.708 495.193L485.63 511.503L489.708 515.581H493.785V499.271L497.863 482.96L506.018 474.805L510.096 470.727V466.65ZM534.562 495.193V487.038L530.484 491.115L526.406 495.193H534.562ZM563.105 385.097L559.027 376.942H554.95L550.872 389.175L546.794 397.33H538.639H530.484V401.408L534.562 405.485L530.484 413.64L526.406 421.796V429.951L522.329 438.106V442.184V446.261L518.251 454.417L522.329 458.494L526.406 438.106L530.484 434.029L534.562 429.951V425.873V421.796L542.717 413.64L546.794 401.408L554.95 393.252L563.105 385.097ZM591.648 315.778L587.57 319.855L579.415 340.243V344.321L575.338 348.398L583.493 352.476L591.648 323.933V315.778ZM624.269 254.613L620.192 242.38V254.613L616.114 262.768V266.846L624.269 254.613ZM628.347 197.526V205.682L632.424 201.604V197.526H628.347ZM632.424 136.362L628.347 128.207L632.424 132.285V136.362ZM628.347 87.4308L632.424 95.586V99.6636L636.502 95.586L632.424 83.3531L628.347 87.4308ZM644.657 9.956V1.80078H640.58L636.502 9.956H644.657ZM632.424 34.4216L624.269 50.7322L628.347 54.8098L636.502 46.6546L640.58 34.4216V22.1888L636.502 14.0336L632.424 9.956L628.347 14.0336L632.424 22.1888V34.4216ZM293.982 238.303L273.594 213.837L257.283 193.449L245.05 177.138V181.216H240.973V177.138V173.061L232.818 168.983L224.662 160.828L220.585 140.44L212.43 115.974H208.352L200.197 107.819L196.119 99.6636H200.197L204.274 103.741V107.819H208.352L192.041 87.4308L179.808 71.1202V67.0426V62.965L167.576 54.8098L163.498 50.7322V54.8098V58.8874H159.42L155.343 62.965L163.498 67.0426L175.731 75.1979V79.2756H179.808V87.4308H175.731V91.5084L179.808 95.586L175.731 107.819L171.653 103.741H167.576L159.42 107.819V115.974L163.498 124.129L167.576 128.207L175.731 156.75L183.886 185.294L200.197 197.526L220.585 213.837L224.662 226.07V242.38L232.818 250.536L236.895 258.691L261.361 332.088V336.166L277.672 348.398L285.827 364.709L289.904 376.942V393.252L298.06 401.408L302.137 409.563L310.292 442.184L326.603 466.65L330.68 462.572V454.417L326.603 434.029L330.68 417.718L334.758 421.796L346.991 417.718L355.146 421.796L363.302 425.873L367.379 434.029L371.457 438.106L363.302 417.718L355.146 401.408L351.069 405.485L342.913 401.408L334.758 397.33L326.603 389.175L310.292 376.942L298.06 356.554L293.982 332.088V311.7L289.904 303.545V295.389L293.982 291.312L298.06 283.157L318.448 279.079L338.836 287.234L346.991 291.312L351.069 295.389L342.913 287.234L330.68 279.079L322.525 270.924L318.448 262.768L293.982 238.303Z" fill="#E11E28"/>
<path d="M212.43 115.974L220.585 140.44L224.662 160.828L232.818 168.983L240.973 173.061V177.138V181.216H245.05V177.138L257.283 193.449L273.594 213.837L293.982 238.303L318.448 262.768L322.525 270.924L330.68 279.079L342.913 287.234L351.069 295.389L346.991 291.312L338.836 287.234L318.448 279.079L298.06 283.157L293.982 291.312L289.904 295.389V303.545L293.982 311.7V332.088L298.06 356.554L310.292 376.942L326.603 389.175L334.758 397.33L342.913 401.408L351.069 405.485L355.146 401.408L363.302 417.718L371.457 438.106L367.379 434.029L363.302 425.873L355.146 421.796L346.991 417.718L334.758 421.796L330.68 417.718L326.603 434.029L330.68 454.417V462.572L326.603 466.65L310.292 442.184L302.137 409.563L298.06 401.408L289.904 393.252V376.942L285.827 364.709L277.672 348.398L261.361 336.166V332.088L236.895 258.691L232.818 250.536L224.662 242.38V226.07L220.585 213.837L200.197 197.526L183.886 185.294L175.731 156.75L167.576 128.207L163.498 124.129L159.42 115.974V107.819L167.576 103.741H171.653L175.731 107.819L179.808 95.586L175.731 91.5084V87.4308H179.808V79.2756H175.731M212.43 115.974V111.896M212.43 115.974H208.352L200.197 107.819L196.119 99.6636H200.197L204.274 103.741V107.819H208.352L192.041 87.4308L179.808 71.1202V67.0426V62.965L167.576 54.8098L163.498 50.7322V54.8098V58.8874H159.42L155.343 62.965L163.498 67.0426L175.731 75.1979V79.2756M175.731 79.2756V83.3531M510.096 466.65L501.94 470.727H497.863H493.785V474.805V478.882L489.708 495.193L485.63 511.503L489.708 515.581H493.785V499.271L497.863 482.96L506.018 474.805L510.096 470.727V466.65ZM534.562 495.193V487.038L530.484 491.115L526.406 495.193H534.562ZM563.105 385.097L559.027 376.942H554.95L550.872 389.175L546.794 397.33H538.639H530.484V401.408L534.562 405.485L530.484 413.64L526.406 421.796V429.951L522.329 438.106V442.184V446.261L518.251 454.417L522.329 458.494L526.406 438.106L530.484 434.029L534.562 429.951V425.873V421.796L542.717 413.64L546.794 401.408L554.95 393.252L563.105 385.097ZM591.648 315.778L587.57 319.855L579.415 340.243V344.321L575.338 348.398L583.493 352.476L591.648 323.933V315.778ZM624.269 254.613L620.192 242.38V254.613L616.114 262.768V266.846L624.269 254.613ZM628.347 197.526V205.682L632.424 201.604V197.526H628.347ZM632.424 136.362L628.347 128.207L632.424 132.285V136.362ZM628.347 87.4308L632.424 95.586V99.6636L636.502 95.586L632.424 83.3531L628.347 87.4308ZM644.657 9.956V1.80078H640.58L636.502 9.956H644.657ZM632.424 34.4216L624.269 50.7322L628.347 54.8098L636.502 46.6546L640.58 34.4216V22.1888L636.502 14.0336L632.424 9.956L628.347 14.0336L632.424 22.1888V34.4216Z" stroke="white" stroke-width="2"/>
</svg>
