<svg width="800" height="518" viewBox="0 0 800 518" fill="none" xmlns="http://www.w3.org/2000/svg">
<path d="M210.017 98.1576H208.365H206.713V99.8096V103.114H205.061L206.713 106.418L211.669 109.722L214.973 108.07L216.626 104.766L210.017 98.1576ZM381.828 76.6812L378.524 71.7252L373.568 70.0731L376.872 73.3772L381.828 76.6812ZM365.308 38.6846V32.0765L363.656 30.4245L360.352 32.0765L363.656 37.0326V40.3367L365.308 38.6846ZM406.609 55.2049L408.261 61.813L409.913 63.465H413.217V56.8569L406.609 55.2049ZM434.693 75.0292L437.997 68.4211V66.7691L436.345 65.1171L428.085 60.161H419.825L416.521 65.1171V71.7252L414.869 75.0292L413.217 76.6812L411.565 78.3333H414.869L418.173 76.6812L421.477 75.0292H426.433L434.693 73.3772V75.0292ZM423.129 12.2522L424.781 10.6002L416.521 8.94817L409.913 7.29615L408.261 8.94817L404.957 10.6002L398.348 7.29615L393.392 5.64412V7.29615L395.044 8.94817H393.392L391.74 10.6002V12.2522L393.392 15.5563V17.2083L395.044 18.8603L390.088 17.2083L385.132 15.5563L381.828 13.9043H380.176L378.524 12.2522V10.6002L376.872 12.2522L375.22 15.5563L373.568 18.8603L371.916 20.5124L370.264 22.1644L371.916 23.8164V25.4684V28.7725L370.264 32.0765H371.916L373.568 33.7286V37.0326L375.22 40.3367L378.524 43.6407L383.48 45.2927L385.132 48.5968L386.784 50.2488H393.392H395.044V45.2927V40.3367L396.696 41.9887L398.348 43.6407L400 41.9887L401.652 40.3367L408.261 35.3806H409.913H413.217H414.869L416.521 33.7286L418.173 32.0765L419.825 30.4245L416.521 28.7725H413.217L406.609 23.8164L403.304 17.2083L408.261 12.2522V13.9043L418.173 27.1205L423.129 20.5124L421.477 13.9043L423.129 12.2522ZM462.777 2.34009L461.125 3.9921L456.169 2.34009L451.213 3.9921V5.64412L449.561 7.29615L446.257 5.64412V3.9921H441.301L437.997 5.64412V8.94817L436.345 10.6002L433.041 7.29615V5.64412L431.389 8.94817L433.041 15.5563L439.649 17.2083L447.909 18.8603L457.821 15.5563L464.429 8.94817V5.64412L462.777 2.34009ZM571.811 61.813L545.379 78.3333L537.119 88.2454L530.511 91.5495L523.902 88.2454L517.294 84.9414H513.99H512.338H509.034L502.426 83.2893V84.9414L500.774 86.5934H497.47L495.818 84.9414L497.47 81.6373L500.774 79.9853L497.47 76.6812L492.514 73.3772L485.906 75.0292L480.95 76.6812L474.342 89.8974L467.734 101.462H466.081V98.1576L464.429 96.5055L467.734 94.8535L469.386 93.2015L467.734 91.5495V88.2454L471.038 86.5934L472.69 83.2893L469.386 84.9414L461.125 89.8974L459.473 91.5495L457.821 93.2015L456.169 89.8974L461.125 84.9414H462.777L467.734 81.6373L472.69 79.9853L454.517 81.6373L436.345 88.2454H428.085L424.781 89.8974L426.433 91.5495L429.737 93.2015L428.085 98.1576L423.129 99.8096L419.825 108.07L421.477 109.722L424.781 108.07V109.722V111.374L426.433 113.026L428.085 116.33V119.634L431.389 121.286V124.59H428.085V126.242V127.894L426.433 126.242L424.781 124.59H423.129L421.477 126.242H419.825H418.173V131.198V136.154L411.565 132.85L400 131.198L395.044 137.806L388.436 142.762L381.828 141.11L376.872 137.806L375.22 134.502L378.524 132.85L375.22 131.198L373.568 146.066L371.916 164.239L370.264 165.891L368.612 164.239L366.96 162.587V164.239H365.308H363.656L362.004 162.587V160.935H360.352H357.048L353.744 155.978L350.44 151.022H348.788L347.136 149.37L348.788 147.718L350.44 146.066L348.788 142.762L345.484 141.11L347.136 142.762V144.414L345.484 146.066L342.18 142.762L340.527 139.458L332.267 134.502L328.963 132.85H330.615H333.919L337.223 136.154L340.527 139.458H345.484L348.788 136.154L347.136 131.198L343.832 127.894V124.59V121.286L342.18 117.982V116.33L338.875 113.026H337.223H335.571L325.659 104.766L322.355 106.418L319.051 108.07H317.399H314.095H310.791L305.835 104.766L299.227 103.114V104.766L297.575 106.418L294.271 114.678L295.923 121.286V127.894L292.619 126.242H287.663V127.894H286.011H284.359L281.055 129.546L279.403 131.198L274.446 129.546L271.142 127.894H266.186H261.23L257.926 126.242V122.938L261.23 119.634L259.578 117.982H257.926H254.622H251.318H246.362L243.058 116.33L241.406 117.982H239.754L236.45 116.33H233.146L231.494 117.982L229.842 119.634L226.538 121.286L221.582 122.938V126.242V127.894L218.278 124.59L219.93 121.286L218.278 116.33L214.973 113.026V114.678V117.982L213.321 119.634H208.365L203.409 116.33L201.757 117.982L200.105 122.938L196.801 126.242L198.453 127.894H200.105V129.546V131.198V132.85L201.757 134.502L200.105 141.11L201.757 147.718L203.409 149.37V151.022V154.326L205.061 155.978L208.365 157.631L211.669 160.935L213.321 167.543V174.151L216.626 180.759L218.278 185.715V187.367L211.669 192.323L205.061 197.279L203.409 202.235V205.539L201.757 207.191L198.453 208.843V215.451L195.149 220.408H191.845L186.889 218.755L181.933 220.408L178.629 223.712H175.325L172.021 222.06V223.712H170.369L168.717 227.016V228.668L170.369 235.276L173.673 240.232V251.796V263.36L172.021 281.532L167.065 284.836L163.761 288.141L165.413 289.793L167.065 291.445V298.053V303.009L168.717 306.313V309.617V314.573L170.369 317.877L173.673 321.181L176.977 324.485L175.325 327.789L173.673 329.441L170.369 334.397V339.353L167.065 344.309L170.369 350.918H172.021H173.673L175.325 352.57L176.977 354.222L183.585 355.874H190.193H195.149L196.801 359.178L198.453 364.134L196.801 365.786L193.497 370.742L198.453 374.046L205.061 377.35L206.713 388.914V397.174L210.017 400.478L211.669 405.434L210.017 410.39L206.713 412.043L208.365 420.303L213.321 425.259L210.017 433.519L206.713 443.431V446.735V448.387V450.039L205.061 451.691L203.409 459.951L205.061 466.559H206.713H208.365L216.626 464.907L218.278 461.603L223.234 463.255H224.886V461.603H226.538L228.19 463.255L229.842 461.603H231.494H234.798L236.45 459.951L239.754 456.647V458.299L243.058 461.603L244.71 463.255L243.058 468.211L251.318 459.951L257.926 450.039H259.578H261.23L262.882 446.735L264.534 441.779L267.838 440.127H271.142L276.098 435.171H282.707L287.663 436.823L290.967 440.127L294.271 441.779V445.083L295.923 446.735V448.387V450.039H304.183L312.443 451.691L314.095 453.343V456.647L315.747 459.951V461.603V464.907L317.399 468.211L319.051 469.863V471.515L320.703 474.82V481.428V484.732L324.007 491.34L325.659 489.688H327.311L328.963 496.296L333.919 502.904L340.527 499.6L347.136 497.948L350.44 499.6L353.744 501.252L357.048 502.904H362.004H363.656L366.96 504.556L368.612 506.208H378.524L386.784 507.86L390.088 511.164L393.392 514.468L401.652 516.12L406.609 514.468H411.565L414.869 516.12H418.173L423.129 512.816L426.433 511.164H429.737L431.389 512.816L433.041 511.164V507.86H434.693H437.997H439.649L441.301 506.208L444.605 507.86L449.561 509.512L451.213 507.86V506.208L454.517 502.904L457.821 501.252V499.6L459.473 497.948H464.429L467.734 494.644L469.386 486.384V479.776L472.69 478.124L474.342 476.472V473.167L472.69 469.863L469.386 468.211L467.734 466.559H466.081H464.429L466.081 463.255L469.386 461.603V458.299V456.647L471.038 454.995L472.69 453.343L467.734 450.039L464.429 445.083H466.081H469.386L467.734 438.475L469.386 433.519L471.038 423.607L472.69 420.303L475.994 416.999H477.646H479.298L487.558 413.695L495.818 410.39L497.47 408.738V407.086V405.434L499.122 402.13H500.774L502.426 403.782H504.078L507.382 402.13L515.642 397.174L517.294 390.566V388.914L518.946 387.262L522.25 390.566L523.902 388.914L522.25 383.958L520.598 380.654L517.294 374.046L515.642 365.786L512.338 360.83L513.99 354.222V352.57L515.642 350.918V349.265L517.294 347.613V345.961V344.309L520.598 342.657L522.25 341.005V331.093L523.902 321.181H530.511L538.771 324.485H542.075L543.727 322.833L545.379 324.485L547.031 326.137L550.335 321.181L553.639 317.877H556.943V319.529L558.595 317.877L560.247 316.225L561.899 317.877L565.203 321.181L566.855 316.225V311.269V304.661L568.507 301.357V298.053L566.855 296.401L568.507 293.097V291.445L565.203 288.141L560.247 284.836L558.595 269.968L560.247 263.36L561.899 258.404H565.203L568.507 256.752L570.159 255.1L571.811 253.448L573.463 255.1L575.115 253.448L576.767 248.492L573.463 243.536L576.767 241.884H580.071L583.375 238.58L585.027 235.276L591.635 238.58L596.592 240.232L598.244 236.928V235.276L601.548 233.624L603.2 231.972L604.852 228.668L608.156 223.712H609.808V222.06V220.408H608.156V218.755L609.808 215.451L608.156 213.799L603.2 210.495V202.235L606.504 197.279L603.2 195.627V190.671L604.852 187.367L606.504 184.063L604.852 180.759V177.455H606.504H608.156H609.808V175.803V174.151L616.416 172.499L621.372 170.847L623.024 169.195L624.676 167.543L627.98 169.195H629.632L631.284 165.891L632.936 160.935L636.24 159.283V155.978L632.936 151.022L629.632 144.414L631.284 142.762V141.11L621.372 137.806L611.46 131.198V127.894L613.112 124.59L611.46 122.938L609.808 121.286L618.068 109.722L629.632 96.5055L631.284 94.8535L634.588 93.2015L632.936 89.8974L629.632 84.9414V83.2893V81.6373L626.328 79.9853H624.676L623.024 76.6812L621.372 75.0292H619.72L618.068 73.3772L616.416 70.0731L614.764 73.3772V75.0292V76.6812H613.112V75.0292H611.46V79.9853V83.2893L609.808 79.9853L606.504 76.6812L601.548 78.3333H594.939L593.288 73.3772L589.983 66.7691L571.811 61.813ZM409.913 131.198L413.217 132.85L416.521 131.198V129.546L414.869 127.894L411.565 129.546L409.913 131.198Z" fill="#E11E28"/>
<path d="M340.527 139.458L342.18 142.762L345.484 146.066L347.136 144.414V142.762L345.484 141.11L348.788 142.762L350.44 146.066L348.788 147.718L347.136 149.37L348.788 151.022H350.44L353.744 155.978L357.048 160.935H360.352H362.004V162.587L363.656 164.239H365.308H366.96V162.587L368.612 164.239L370.264 165.891L371.916 164.239L373.568 146.066L375.22 131.198L378.524 132.85L375.22 134.502L376.872 137.806L381.828 141.11L388.436 142.762L395.044 137.806L400 131.198L411.565 132.85L418.173 136.154V131.198V126.242H419.825H421.477L423.129 124.59H424.781L426.433 126.242L428.085 127.894V126.242V124.59H431.389V121.286L428.085 119.634V116.33L426.433 113.026L424.781 111.374V109.722V108.07L421.477 109.722L419.825 108.07L423.129 99.8096L428.085 98.1576L429.737 93.2015L426.433 91.5495L424.781 89.8974L428.085 88.2454H436.345L454.517 81.6373L472.69 79.9853L467.734 81.6373L462.777 84.9414H461.125L456.169 89.8974L457.821 93.2015L459.473 91.5495L461.125 89.8974L469.386 84.9414L472.69 83.2893L471.038 86.5934L467.734 88.2454V91.5495L469.386 93.2015L467.734 94.8535L464.429 96.5055L466.081 98.1576V101.462H467.734L474.342 89.8974L480.95 76.6812L485.906 75.0292L492.514 73.3772L497.47 76.6812L500.774 79.9853L497.47 81.6373L495.818 84.9414L497.47 86.5934H500.774L502.426 84.9414V83.2893L509.034 84.9414H512.338H513.99H517.294L523.902 88.2454L530.511 91.5495L537.119 88.2454L545.379 78.3333L571.811 61.813L589.983 66.7691L593.288 73.3772L594.939 78.3333H601.548L606.504 76.6812L609.808 79.9853L611.46 83.2893V79.9853V75.0292H613.112V76.6812H614.764V75.0292V73.3772L616.416 70.0731L618.068 73.3772L619.72 75.0292H621.372L623.024 76.6812L624.676 79.9853H626.328L629.632 81.6373V83.2893V84.9414L632.936 89.8974L634.588 93.2015L631.284 94.8535L629.632 96.5055L618.068 109.722L609.808 121.286L611.46 122.938L613.112 124.59L611.46 127.894V131.198L621.372 137.806L631.284 141.11V142.762L629.632 144.414L632.936 151.022L636.24 155.978V159.283L632.936 160.935L631.284 165.891L629.632 169.195H627.98L624.676 167.543L623.024 169.195L621.372 170.847L616.416 172.499L609.808 174.151V175.803V177.455H608.156H606.504H604.852V180.759L606.504 184.063L604.852 187.367L603.2 190.671V195.627L606.504 197.279L603.2 202.235V210.495L608.156 213.799L609.808 215.451L608.156 218.755V220.408H609.808V222.06V223.712H608.156L604.852 228.668L603.2 231.972L601.548 233.624L598.244 235.276V236.928L596.592 240.232L591.635 238.58L585.027 235.276L583.375 238.58L580.071 241.884H576.767L573.463 243.536L576.767 248.492L575.115 253.448L573.463 255.1L571.811 253.448L570.159 255.1L568.507 256.752L565.203 258.404H561.899L560.247 263.36L558.595 269.968L560.247 284.836L565.203 288.141L568.507 291.445V293.097L566.855 296.401L568.507 298.053V301.357L566.855 304.661V311.269V316.225L565.203 321.181L561.899 317.877L560.247 316.225L558.595 317.877L556.943 319.529V317.877H553.639L550.335 321.181L547.031 326.137L545.379 324.485L543.727 322.833L542.075 324.485H538.771L530.511 321.181H523.902L522.25 331.093V341.005L520.598 342.657L517.294 344.309V345.961V347.613L515.642 349.265V350.918L513.99 352.57V354.222L512.338 360.83L515.642 365.786L517.294 374.046L520.598 380.654L522.25 383.958L523.902 388.914L522.25 390.566L518.946 387.262L517.294 388.914V390.566L515.642 397.174L507.382 402.13L504.078 403.782H502.426L500.774 402.13H499.122L497.47 405.434V407.086V408.738L495.818 410.39L487.558 413.695L479.298 416.999H477.646H475.994L472.69 420.303L471.038 423.607L469.386 433.519L467.734 438.475L469.386 445.083H466.081H464.429L467.734 450.039L472.69 453.343L471.038 454.995L469.386 456.647V458.299V461.603L466.081 463.255L464.429 466.559H466.081H467.734L469.386 468.211L472.69 469.863L474.342 473.167V476.472L472.69 478.124L469.386 479.776V486.384L467.734 494.644L464.429 497.948H459.473L457.821 499.6V501.252L454.517 502.904L451.213 506.208V507.86L449.561 509.512L444.605 507.86L441.301 506.208L439.649 507.86H437.997H434.693H433.041V511.164L431.389 512.816L429.737 511.164H426.433L423.129 512.816L418.173 516.12H414.869L411.565 514.468H406.609L401.652 516.12L393.392 514.468L390.088 511.164L386.784 507.86L378.524 506.208H368.612L366.96 504.556L363.656 502.904H362.004H357.048L353.744 501.252L350.44 499.6L347.136 497.948L340.527 499.6L333.919 502.904L328.963 496.296L327.311 489.688H325.659L324.007 491.34L320.703 484.732V481.428V474.82L319.051 471.515V469.863L317.399 468.211L315.747 464.907V461.603V459.951L314.095 456.647V453.343L312.443 451.691L304.183 450.039H295.923V448.387V446.735L294.271 445.083V441.779L290.967 440.127L287.663 436.823L282.707 435.171H276.098L271.142 440.127H267.838L264.534 441.779L262.882 446.735L261.23 450.039H259.578H257.926L251.318 459.951L243.058 468.211L244.71 463.255L243.058 461.603L239.754 458.299V456.647L236.45 459.951L234.798 461.603H231.494H229.842L228.19 463.255L226.538 461.603H224.886V463.255H223.234L218.278 461.603L216.626 464.907L208.365 466.559H206.713H205.061L203.409 459.951L205.061 451.691L206.713 450.039V448.387V446.735V443.431L210.017 433.519L213.321 425.259L208.365 420.303L206.713 412.043L210.017 410.39L211.669 405.434L210.017 400.478L206.713 397.174V388.914L205.061 377.35L198.453 374.046L193.497 370.742L196.801 365.786L198.453 364.134L196.801 359.178L195.149 355.874H190.193H183.585L176.977 354.222L175.325 352.57L173.673 350.918H172.021H170.369L167.065 344.309L170.369 339.353V334.397L173.673 329.441L175.325 327.789L176.977 324.485L173.673 321.181L170.369 317.877L168.717 314.573V309.617V306.313L167.065 303.009V298.053V291.445L165.413 289.793L163.761 288.141L167.065 284.836L172.021 281.532L173.673 263.36V251.796V240.232L170.369 235.276L168.717 228.668V227.016L170.369 223.712H172.021V222.06L175.325 223.712H178.629L181.933 220.408L186.889 218.755L191.845 220.408H195.149L198.453 215.451V208.843L201.757 207.191L203.409 205.539V202.235L205.061 197.279L211.669 192.323L218.278 187.367V185.715L216.626 180.759L213.321 174.151V167.543L211.669 160.935L208.365 157.631L205.061 155.978L203.409 154.326V151.022V149.37L201.757 147.718L200.105 141.11L201.757 134.502L200.105 132.85V131.198V129.546V127.894H198.453L196.801 126.242L200.105 122.938L201.757 117.982L203.409 116.33L208.365 119.634H213.321L214.973 117.982V114.678V113.026L218.278 116.33L219.93 121.286L218.278 124.59L221.582 127.894V126.242V122.938L226.538 121.286L229.842 119.634L231.494 117.982L233.146 116.33H236.45L239.754 117.982H241.406L243.058 116.33L246.362 117.982H251.318H254.622H257.926H259.578L261.23 119.634L257.926 122.938V126.242L261.23 127.894H266.186H271.142L274.446 129.546L279.403 131.198L281.055 129.546L284.359 127.894H286.011H287.663V126.242H292.619L295.923 127.894V121.286L294.271 114.678L297.575 106.418L299.227 104.766V103.114L305.835 104.766L310.791 108.07H314.095H317.399H319.051L322.355 106.418L325.659 104.766L335.571 113.026H337.223H338.875L342.18 116.33V117.982L343.832 121.286V124.59V127.894L347.136 131.198L348.788 136.154L345.484 139.458H340.527ZM340.527 139.458L332.267 134.502L328.963 132.85H330.615H333.919L337.223 136.154L340.527 139.458ZM210.017 98.1576H208.365H206.713V99.8096V103.114H205.061L206.713 106.418L211.669 109.722L214.973 108.07L216.626 104.766L210.017 98.1576ZM381.828 76.6812L378.524 71.7252L373.568 70.0731L376.872 73.3772L381.828 76.6812ZM365.308 38.6846V32.0765L363.656 30.4245L360.352 32.0765L363.656 37.0326V40.3367L365.308 38.6846ZM406.609 55.2049L408.261 61.813L409.913 63.465H413.217V56.8569L406.609 55.2049ZM434.693 75.0292L437.997 68.4211V66.7691L436.345 65.1171L428.085 60.161H419.825L416.521 65.1171V71.7252L414.869 75.0292L413.217 76.6812L411.565 78.3333H414.869L418.173 76.6812L421.477 75.0292H426.433L434.693 73.3772V75.0292ZM423.129 12.2522L424.781 10.6002L416.521 8.94817L409.913 7.29615L408.261 8.94817L404.957 10.6002L398.348 7.29615L393.392 5.64412V7.29615L395.044 8.94817H393.392L391.74 10.6002V12.2522L393.392 15.5563V17.2083L395.044 18.8603L390.088 17.2083L385.132 15.5563L381.828 13.9043H380.176L378.524 12.2522V10.6002L376.872 12.2522L375.22 15.5563L373.568 18.8603L371.916 20.5124L370.264 22.1644L371.916 23.8164V25.4684V28.7725L370.264 32.0765H371.916L373.568 33.7286V37.0326L375.22 40.3367L378.524 43.6407L383.48 45.2927L385.132 48.5968L386.784 50.2488H393.392H395.044V45.2927V40.3367L396.696 41.9887L398.348 43.6407L400 41.9887L401.652 40.3367L408.261 35.3806H409.913H413.217H414.869L416.521 33.7286L418.173 32.0765L419.825 30.4245L416.521 28.7725H413.217L406.609 23.8164L403.304 17.2083L408.261 12.2522V13.9043L418.173 27.1205L423.129 20.5124L421.477 13.9043L423.129 12.2522ZM462.777 2.34009L461.125 3.9921L456.169 2.34009L451.213 3.9921V5.64412L449.561 7.29615L446.257 5.64412V3.9921H441.301L437.997 5.64412V8.94817L436.345 10.6002L433.041 7.29615V5.64412L431.389 8.94817L433.041 15.5563L439.649 17.2083L447.909 18.8603L457.821 15.5563L464.429 8.94817V5.64412L462.777 2.34009ZM409.913 131.198L413.217 132.85L416.521 131.198V129.546L414.869 127.894L411.565 129.546L409.913 131.198Z" stroke="white" stroke-width="2"/>
</svg>
