<svg width="800" height="518" viewBox="0 0 800 518" fill="none" xmlns="http://www.w3.org/2000/svg">
<path d="M524.301 52.1812L491.154 2.46021L474.581 52.1812L441.434 85.3277H424.86H408.286L391.713 101.902L341.992 68.7547L308.845 35.6072H275.698L242.551 19.0337H225.977L192.83 35.6072H159.683H143.11L109.962 118.475L76.8154 168.196V184.769L93.3889 217.916V251.064L109.962 267.637L143.11 284.211V300.784V317.358V333.931H159.683V350.505V383.652L176.257 400.226L192.83 466.52L209.404 516.24L341.992 499.667L391.713 449.946L458.007 416.799L474.581 400.226H507.728L540.875 367.078L574.022 317.358L607.169 300.784L640.316 284.211L673.463 217.916L723.184 201.343L690.037 168.196H673.463V151.622V118.475L656.89 101.902L623.743 68.7547H590.595L557.448 85.3277L524.301 35.6072V52.1812Z" fill="#E11E28" stroke="white" stroke-width="2"/>
</svg>
