<svg width="800" height="518" viewBox="0 0 800 518" fill="none" xmlns="http://www.w3.org/2000/svg">
<path d="M560.556 60.0405L541.289 47.196L522.023 34.3516V21.5071V15.0849L515.601 8.66247V2.24023L502.756 8.66247V15.0849L483.489 40.7738L470.645 66.4627V72.8852V79.3074L438.534 111.419L406.422 143.53L393.578 149.952L380.733 156.374L361.467 175.641L374.311 207.752L361.467 227.019V246.286V252.708L342.2 271.975L310.089 278.397L303.666 297.664V310.508H284.4L271.555 297.664L258.711 310.508L245.866 329.775H213.755L200.91 336.197V342.619L194.488 361.886L181.644 374.731V381.153V393.997H188.066L194.488 400.42L220.177 413.264L239.444 426.109H245.866L252.288 419.687H258.711H265.133V426.109L297.244 451.798L329.355 471.065L335.777 464.642H342.2L355.044 471.065L361.467 477.487V483.909L367.889 496.754L387.156 483.909L406.422 477.487L419.267 483.909L432.111 496.754H438.534H444.956L451.378 503.176L464.222 516.02L483.489 503.176H515.601L509.178 516.02H515.601H522.023L528.445 509.598H522.023V503.176L528.445 471.065L541.289 445.376L554.134 438.953H573.401V445.376H586.245H599.09L611.934 438.953V426.109V413.264L618.357 400.42V393.997V381.153L611.934 374.731V342.619V316.931L592.668 304.086L573.401 284.819L579.823 265.552L586.245 239.864V227.019L579.823 220.597V201.33V188.486L586.245 162.797L599.09 137.108L586.245 117.841L579.823 104.996L560.556 60.0405Z" fill="#E11E28" stroke="white" stroke-width="2"/>
</svg>
