<svg width="800" height="517" viewBox="0 0 800 517" fill="none" xmlns="http://www.w3.org/2000/svg">
<path d="M409.515 134.882L400 125.368L380.972 115.853L352.428 96.8246V87.3102L342.914 77.7958L333.399 68.2814H314.37L304.856 58.7667L295.341 39.7378L266.798 30.2234L247.769 1.68018L209.712 20.709L154.528 39.7378L156.431 68.2814L143.11 106.339L148.819 144.397L171.654 163.426H200.197V172.94L209.712 182.455H228.74V191.969V201.484H238.255L247.769 210.998L257.284 239.541L238.255 268.085L219.226 277.599L228.74 287.114H238.255V296.628L247.769 306.142L257.284 296.628H266.798L276.313 306.142V325.171L295.341 334.686H314.37L323.885 363.229L342.914 401.287V410.801L371.457 458.374V515.46L419.029 496.431L428.544 467.888L438.058 439.345H447.573V448.859L457.087 458.374H476.116H504.659L514.174 448.859L523.688 429.83L599.804 448.859L618.833 439.345L637.862 429.83L647.376 439.345H656.891V429.83V420.316L647.376 382.258L637.862 353.715L628.347 344.2V325.171V315.657V306.142H618.833V296.628V287.114L599.804 277.599L590.289 268.085V249.056L580.775 220.512V210.998L571.261 201.484L514.174 191.969L485.63 153.911L476.116 144.397L457.087 134.882H438.058L409.515 144.397V125.368V134.882Z" fill="#E11E28" stroke="white" stroke-width="2"/>
</svg>
