<svg width="800" height="515" viewBox="0 0 800 515" fill="none" xmlns="http://www.w3.org/2000/svg">
<path d="M658.603 239.764L593.524 222.638L502.756 205.512L435.964 119.882L364.035 34.2519L340.059 0H304.094L281.83 17.126L244.153 51.3781L192.775 102.756H160.236L158.523 137.008L161.948 154.134H167.086L168.799 171.26H153.385L136.259 188.386L120.846 222.638L113.995 274.016L120.846 308.268L119.133 325.394L102.007 342.52L81.4561 359.646L91.7316 376.772L110.57 393.898L115.708 445.276L98.582 462.402L102.007 496.654L95.1568 513.78H102.007H113.995H132.834L149.96 496.654H209.901L269.842 479.528L298.956 462.402H326.358L338.346 445.276L353.76 428.15L389.724 445.276L415.413 496.654H444.527L459.941 479.528L475.354 496.654L492.48 513.78L624.351 479.528L689.43 411.024L718.544 342.52L696.28 325.394L670.591 291.142L663.741 274.016L658.603 239.764Z" fill="#E11E28" stroke="white" stroke-width="2"/>
</svg>
