<svg width="800" height="519" viewBox="0 0 800 519" fill="none" xmlns="http://www.w3.org/2000/svg">
<path d="M446.109 82.0637L432.935 75.4768H419.761H413.174L406.587 62.3028L400 49.129L373.653 55.7159H347.305L334.131 42.5421V29.3683H327.544H320.957L307.784 35.9552L301.196 29.3683L294.61 22.7814L268.262 16.1945L241.914 9.60741L235.327 3.02051V9.60741V22.7814L228.741 35.9552H222.153L215.567 42.5421L208.98 68.8897L189.219 101.824H176.045H149.697L123.35 128.172L97.0019 154.52V161.107V174.281H90.415V187.454V194.041H83.8281V200.628L90.415 207.215V220.389V226.976V233.563L97.0019 246.737V253.324V259.911L90.415 266.497L97.0019 279.671L103.589 286.258L116.763 299.432L129.937 306.019L208.98 332.367L202.393 338.954L248.501 365.301L281.436 417.997L327.544 424.584L334.131 450.931H373.653L380.24 457.518V450.931L386.827 444.344H400H406.587L413.174 457.518L406.587 464.105V490.453L400 497.04L393.414 503.627H400V510.214L406.587 516.801L419.761 510.214L426.348 490.453L432.935 497.04H439.522H452.696H465.87H479.043L492.217 490.453L498.804 497.04H505.391L511.978 490.453L525.152 477.279H531.739L538.326 483.866L544.913 477.279H551.5H571.26H591.021L597.608 470.692L610.782 477.279L623.956 483.866L643.717 470.692H670.064L676.651 450.931L689.825 424.584H696.412H702.999L709.586 417.997V404.823H716.173V398.236L702.999 365.301L676.651 338.954V319.193L683.238 299.432L702.999 286.258L716.173 279.671L702.999 259.911L683.238 253.324L676.651 240.15V220.389L663.477 207.215H656.89L650.304 200.628V194.041L637.13 187.454L610.782 180.867L591.021 174.281L564.674 180.867L538.326 167.694V134.759V82.0637L518.565 75.4768L498.804 62.3028L485.63 68.8897L465.87 82.0637H459.283L452.696 88.6506L439.522 82.0637H446.109Z" fill="#E11E28" stroke="white" stroke-width="2"/>
</svg>
