<svg width="800" height="517" viewBox="0 0 800 517" fill="none" xmlns="http://www.w3.org/2000/svg">
<path d="M506.609 77.0672L468.075 51.378L455.231 64.2225L442.387 77.0672L403.853 89.9116L365.32 102.756H352.475L339.631 89.9116L328.071 77.0672L257.426 64.2225L185.496 38.5336L167.514 25.6891L150.816 0L130.265 12.8447L112.283 25.6891H113.568L119.99 38.5336L108.43 51.378L96.8699 64.2225V89.9116L89.1632 115.601L55.7675 141.29L23.6562 179.823L77.6031 244.046L127.697 308.268L195.773 321.113L244.582 333.957L248.435 359.646L253.573 372.491L272.84 398.179L290.822 411.024L325.502 398.179L352.476 385.335H365.32L378.165 372.491L391.009 398.179L403.854 423.869L442.387 436.713L480.921 449.558L493.765 462.402L506.61 449.558L519.454 436.713L545.143 449.558L570.832 462.402H583.677L596.521 488.091V513.78L635.055 462.402L673.588 449.558L660.744 423.869V411.024V372.491L673.588 346.802V333.957L686.433 321.113L699.277 308.268H724.966V295.424L712.122 282.579L737.811 269.734H763.5L776.344 192.668L724.966 179.823L686.433 166.979H660.744L647.899 154.134L635.055 141.29L609.366 128.445H596.521L583.677 141.29L557.988 128.445L545.143 115.601H532.299L506.609 77.0672Z" fill="#E11E28" stroke="white" stroke-width="2"/>
</svg>
