<svg width="800" height="517" viewBox="0 0 800 517" fill="none" xmlns="http://www.w3.org/2000/svg">
<path d="M468.504 12.8775L445.669 24.2948L411.417 1.46021H400H388.583H365.748V12.8775H354.33H331.496L308.661 24.2948L297.244 12.8775H285.826L262.992 24.2948H251.575V35.7121L194.488 47.1294V58.5467L205.905 69.964L194.488 104.216H148.818L137.401 92.799H125.984L114.566 104.216V127.051L160.236 138.468L171.653 161.303L194.488 184.137H217.322H251.575L262.992 206.972V241.224L285.826 275.476L308.661 309.728L331.496 332.563L354.33 321.146H377.165L400 343.98L411.417 366.815V378.232V389.65H422.834L445.669 412.484L468.504 446.736H479.921V458.154L468.504 469.571V492.406L491.339 515.24L514.173 469.571L525.59 446.736V435.319H548.425L559.843 423.901L571.26 401.067V378.232V366.815L559.843 355.398V366.815L571.26 355.398V343.98L582.677 355.398L628.347 343.98L674.016 321.146L662.599 298.311L639.764 275.476H628.347L616.929 252.642H651.181L685.433 229.807L662.599 218.39L651.181 229.807V206.972V184.137H662.599L639.764 172.72L616.929 184.137L628.347 195.555V206.972L605.512 218.39L594.095 206.972H582.677V195.555H571.26H548.425L525.59 172.72L514.173 161.303H502.756L525.59 149.885L537.008 138.468H525.59L502.756 127.051L491.339 92.799H502.756V81.3813H491.339V58.5467L502.756 24.2948L468.504 12.8775Z" fill="#E11E28"/>
<path d="M525.59 435.319V446.736L514.173 469.571L491.339 515.24L468.504 492.406V469.571L479.921 458.154V446.736H468.504L445.669 412.484L422.834 389.65H411.417V378.232V366.815L400 343.98L377.165 321.146H354.33L331.496 332.563L308.661 309.728L285.826 275.476L262.992 241.224V206.972L251.575 184.137H217.322H194.488L171.653 161.303L160.236 138.468L114.566 127.051V104.216L125.984 92.799H137.401L148.818 104.216H194.488L205.905 69.964L194.488 58.5467V47.1294L251.575 35.7121V24.2948H262.992L285.826 12.8775H297.244L308.661 24.2948L331.496 12.8775H354.33H365.748V1.46021H388.583H400H411.417L445.669 24.2948L468.504 12.8775L502.756 24.2948L491.339 58.5467V81.3813H502.756V92.799H491.339L502.756 127.051L525.59 138.468H537.008L525.59 149.885L502.756 161.303H514.173L525.59 172.72L548.425 195.555H571.26H582.677V206.972H594.095L605.512 218.39L628.347 206.972V195.555L616.929 184.137L639.764 172.72L662.599 184.137H651.181V206.972V229.807L662.599 218.39L685.433 229.807L651.181 252.642H616.929L628.347 275.476H639.764L662.599 298.311L674.016 321.146L628.347 343.98L582.677 355.398L571.26 343.98V355.398L559.843 366.815M525.59 435.319H537.008M525.59 435.319H548.425L559.843 423.901L571.26 401.067V378.232V366.815M571.26 366.815H559.843M571.26 366.815L559.843 355.398V366.815" stroke="white" stroke-width="2"/>
</svg>
