<svg width="800" height="517" viewBox="0 0 800 517" fill="none" xmlns="http://www.w3.org/2000/svg">
<path d="M471.482 24.1182H435.741L429.039 46.4564L404.467 68.7946H386.597L375.427 46.4564L321.815 24.1182L270.437 1.78003H263.736L254.8 24.1182H210.124L172.149 46.4564L160.98 68.7946L145.343 91.1328L160.98 202.824L210.124 292.177L234.696 314.516L257.034 336.854L252.567 381.53L254.802 448.545L292.777 493.222L321.816 515.56H364.259L373.195 493.222L391.065 470.884H408.936H426.806L455.846 448.545H491.588L601.045 269.839L598.812 225.163L632.32 180.486H654.658L632.32 158.147V135.809V91.1328V68.7946H598.812L551.902 1.78003H525.096L493.822 24.1182H471.482Z" fill="#E11E28" stroke="white" stroke-width="2"/>
</svg>
