<svg width="800" height="517" viewBox="0 0 800 517" fill="none" xmlns="http://www.w3.org/2000/svg">
<path d="M541.29 56.7279L522.94 75.0772H486.242L467.892 56.7279L449.543 20.0294H394.495L357.797 1.68018L277.06 56.7279L212.837 130.125L231.187 240.221L201.828 258.57L166.964 276.919L181.643 295.269L199.993 313.618L190.818 350.316L185.313 368.666L218.342 387.015L256.876 405.365L277.06 442.063L295.409 478.762H308.254H322.933L319.263 497.111L343.117 515.46L431.194 478.762L522.94 442.063L559.639 423.714L577.988 405.365V313.618L559.639 258.57L577.988 240.221L596.338 203.522L577.988 185.173L596.338 166.823L614.687 130.125L633.036 111.776L541.29 56.7279Z" fill="#E11E28" stroke="white" stroke-width="2"/>
</svg>
