<svg width="800" height="517" viewBox="0 0 800 517" fill="none" xmlns="http://www.w3.org/2000/svg">
<path d="M433.69 34.9306L400 43.3532L391.577 51.7758V60.1984H374.732L357.887 51.7758H341.041H315.773L307.351 43.3532H298.929L282.083 51.7758L273.66 68.621H248.393L223.125 60.1984V77.0439L214.702 85.4665V102.312V119.157L197.857 127.579H181.012H164.166V119.157H138.899L122.053 127.579L105.208 161.27L96.7854 203.383V211.806H105.208L96.7854 220.228H88.3628H79.9402L71.5176 245.496V270.764L88.3628 279.187L105.208 287.609V304.455V321.3H113.631H130.476V329.722L138.899 338.145L147.321 329.722L155.744 338.145L172.589 363.413L181.012 388.681L189.434 397.103L206.279 405.526H214.702L223.125 430.794L239.97 464.484H248.393V456.062L256.815 464.484V472.907H265.238L282.083 481.33L298.929 498.175L307.351 515.02H324.196L332.619 506.598V489.752H341.041L357.887 481.33L349.464 472.907V464.484H357.887H366.309V456.062L357.887 447.639L366.309 439.217L383.154 430.794V422.371L391.577 413.949H400V405.526V397.103L408.423 388.681H416.845V380.258V371.836V363.413L433.69 371.836L458.958 363.413L450.536 304.455V296.032H442.113H425.268L416.845 287.609L425.268 279.187L442.113 270.764V245.496V220.228L467.381 203.383L492.649 186.538L501.071 194.961L509.494 211.806L501.071 220.228V237.074H517.917L534.762 245.496L551.607 253.919L576.875 270.764L585.298 262.342H602.143L661.101 279.187L728.482 253.919L711.637 237.074H686.369L677.946 228.651L669.524 220.228L644.256 203.383L627.411 194.961V178.115L635.833 152.848H618.988L602.143 136.002L610.565 127.579V119.157L602.143 110.734H593.72L585.298 77.0439L568.452 51.7758L560.03 43.3532H551.607L543.184 34.9306L517.917 26.508H509.494H492.649L484.226 18.0854L475.804 1.24023H458.958L450.536 9.66283L433.69 34.9306Z" fill="#E11E28" stroke="white" stroke-width="2"/>
</svg>
