<svg width="800" height="519" viewBox="0 0 800 519" fill="none" xmlns="http://www.w3.org/2000/svg">
<path d="M652.043 12.7144H632.655L584.185 32.1026L555.104 22.4087L545.409 32.1026H535.715H526.022V22.4087H516.328L506.634 32.1026H487.246H477.552L467.858 51.4905L458.164 80.5722L438.776 90.2662L419.388 99.9601L370.918 167.818L303.061 206.594L235.203 196.9L177.039 177.512L167.345 158.124L147.957 148.43L118.875 158.124L89.7935 167.818V196.9V216.288H51.0178L12.2418 206.594V245.37V274.451L21.9357 284.145H31.6296V303.533V322.921L51.0178 332.615V352.003H31.6296L2.54785 371.391L12.2418 381.085H21.9357V390.779L31.6296 410.167L70.4057 400.473H109.181V381.085L118.875 361.697L167.345 371.391L186.733 361.697L206.121 352.003H225.509H244.897V342.309L254.591 332.615H264.285V342.309H273.979V352.003H283.673L303.061 342.309V361.697L312.754 381.085H351.53L400 390.779L409.694 419.861L419.388 458.636L458.164 468.33L496.94 478.025H506.634L516.328 468.33L564.798 487.719H574.491H584.185L613.267 497.413L622.961 507.107L632.655 516.801L700.513 478.025L710.207 448.943L719.901 419.861H710.207L700.513 400.473V390.779V381.085V371.391L690.819 361.697L710.207 313.227L739.289 274.451H748.983L758.677 264.757L778.065 245.37L787.759 225.982V216.288V206.594L778.065 196.9V187.206V177.512L787.759 167.818V138.736V119.348H797.452V99.9601L787.759 90.2662H768.371H748.983L700.513 51.4905L652.043 3.02051V12.7144Z" fill="#E11E28" stroke="white" stroke-width="2"/>
</svg>
