<svg width="800" height="520" viewBox="0 0 800 520" fill="none" xmlns="http://www.w3.org/2000/svg">
<path d="M528.445 173.72L511.319 139.468L442.815 122.342V88.0905L391.437 53.8381L357.185 2.46021L288.681 105.216L254.429 88.0905H185.925L203.051 156.594L185.925 225.098L203.051 259.35V293.602L151.673 362.106L100.295 396.359L151.673 481.988H254.429L271.555 499.114V516.24L305.807 464.862L340.059 379.232H357.185H391.437L425.689 362.106H442.815L477.067 379.232H511.319L545.571 413.485L596.949 447.736V430.61H614.075H631.201H648.327L682.579 379.232L699.705 344.98L665.453 293.602V242.225L648.327 207.972H596.949H562.697L528.445 173.72Z" fill="#E11E28" stroke="white" stroke-width="2"/>
</svg>
