<svg width="800" height="518" viewBox="0 0 800 518" fill="none" xmlns="http://www.w3.org/2000/svg">
<path d="M611.934 92.1515L586.245 79.3071L573.401 66.4626V53.6181L560.556 40.7736H547.712H534.867L509.178 27.9292L483.489 2.24023L432.111 40.7736L406.422 104.996L380.733 117.84H355.044H342.199L316.511 104.996L290.822 143.53L277.977 194.908L265.132 207.752H239.444L226.599 259.13L213.754 297.664L226.599 310.508H213.754L188.065 323.353L200.91 336.197H213.754L239.444 361.886H265.132H277.977V374.731H290.822L303.666 387.576L329.355 374.731V361.886L316.511 349.042L342.199 336.197L367.889 349.042H355.044V374.731V400.42L367.889 387.576L393.578 400.42L355.044 426.109H316.511L329.355 451.798H342.199L367.889 477.487L380.733 503.176L406.422 516.02L432.111 503.176L470.645 490.332L509.178 477.487L496.334 451.798L483.489 413.264H470.645L457.8 426.109V361.886L470.645 349.042H483.489L496.334 336.197V323.353L509.178 336.197L522.023 323.353L573.401 207.752L611.934 92.1515Z" fill="#E11E28" stroke="white" stroke-width="2"/>
</svg>
