<svg width="800" height="519" viewBox="0 0 800 519" fill="none" xmlns="http://www.w3.org/2000/svg">
<path d="M448.167 212.504L416.056 196.448H383.945L400 132.225L383.945 84.0584L319.722 100.114L271.555 51.9473V19.8356V3.78003L223.388 84.0584L191.277 180.392L207.333 196.448L223.388 228.559L239.444 244.615L271.555 276.726L239.444 373.06L287.611 437.282L351.833 517.56L416.056 501.504L448.167 469.393H512.39H560.556V453.338H576.612H608.723H592.668V437.282L608.723 421.227V389.115L576.612 373.06L544.501 357.004V340.948V324.893V308.837H528.445L480.278 260.67L464.222 228.559L448.167 212.504Z" fill="#E11E28" stroke="white" stroke-width="2"/>
</svg>
