<svg width="800" height="517" viewBox="0 0 800 517" fill="none" xmlns="http://www.w3.org/2000/svg">
<path d="M404.994 44.715V30.4434L370.742 16.1718L330.782 1.90015L333.636 16.1718L325.073 30.4434V44.715H320.791H303.665L285.112 30.4434L269.413 58.9867L249.433 87.5299L246.579 116.073L223.744 130.345L242.297 144.617H262.278L248.006 173.16H228.026V215.975L230.88 244.518L216.608 258.79H202.337L180.929 301.605L166.657 344.42H155.24L143.823 358.692L159.522 444.322L185.211 458.594L196.628 472.865L229.453 501.409L287.967 515.68L349.335 501.409L359.325 487.137H370.742L402.14 472.865L432.111 444.322L427.829 415.779L429.257 387.235H464.936L499.188 401.507L520.596 387.235H539.149L551.994 415.779L567.692 430.05L604.799 444.322L636.197 458.594L656.177 401.507L653.322 358.692L634.769 344.42L637.624 330.149H626.206H616.216L601.945 301.605L586.246 273.062L556.275 258.79L530.586 244.518L534.868 230.247L542.003 201.703L527.732 187.432L516.314 173.16L477.781 130.345L442.102 101.802L446.383 87.5299L433.539 58.9867H416.412L403.568 44.715H404.994Z" fill="#E11E28" stroke="white" stroke-width="2"/>
</svg>
