<svg width="800" height="517" viewBox="0 0 800 517" fill="none" xmlns="http://www.w3.org/2000/svg">
<path d="M518.683 124.987V114.712H487.857L463.195 94.1606L457.03 53.0583L434.424 42.7827L407.707 32.5072L396.404 22.2316L387.156 1.68018H373.798L358.384 11.9561L333.723 1.68018H308.034L307.006 22.2316L310.088 42.7827L288.509 63.3339L265.903 73.6094L267.958 114.712L278.234 166.09L250.49 186.641L221.718 217.468H225.828L231.994 227.744L237.131 248.295L239.187 279.121L202.194 299.672L168.285 289.397L154.927 299.672L142.596 309.948H132.32L127.183 320.224L137.458 340.775L152.872 371.602L144.651 412.704L142.596 433.255H151.844H160.065V443.531L154.927 453.807H162.12H171.368L178.561 464.082L184.726 474.358L235.076 453.807L273.096 474.358L286.454 453.807L293.647 433.255L309.061 443.531V464.082H323.446H339.888L357.356 453.807H370.714L378.935 464.082H380.99L383.045 453.807L394.348 464.082H407.707H440.588L471.415 474.358L477.581 494.909L487.856 515.46L508.407 505.184L518.683 494.909H539.234H549.51V474.358L559.785 443.531L600.888 412.704L652.266 402.428L662.541 392.153L672.817 381.877V371.602L652.266 330.499L641.99 299.672H621.439L600.888 289.397V268.846L590.612 258.57H580.337L570.061 268.846L559.785 258.57V248.295H549.51L539.234 238.019L559.785 227.744L580.337 196.916L570.061 166.09L559.785 155.814H549.51V145.539V135.263H528.959L518.683 124.987Z" fill="#E11E28" stroke="white" stroke-width="2"/>
</svg>
