<svg width="800" height="518" viewBox="0 0 800 518" fill="none" xmlns="http://www.w3.org/2000/svg">
<path d="M411.677 165.035H403.892L388.323 157.251V149.466V141.682L380.538 133.897H372.754V102.759L380.538 87.19L388.323 63.8363L396.108 40.4828L372.754 17.1292L357.185 1.56006H349.4H341.616V9.34458L318.262 17.1292L287.124 24.9136L279.339 17.1292L271.555 1.56006H255.986L248.201 9.34458V17.1292L232.632 32.6981L209.279 40.4828L185.925 56.0518V63.8363V71.621V79.4055L178.14 87.19V94.9745H185.925L178.14 102.759H162.571L154.787 110.544L147.002 118.328L131.433 110.544H108.079L100.295 133.897V149.466H108.079V157.251H115.864L123.649 165.035V188.389V211.743H147.002L178.14 219.527V227.312V235.096V242.881V266.234L185.925 258.45L209.279 266.234V242.881L217.063 219.527L224.848 227.312L217.063 242.881V274.019L240.417 289.588L248.201 281.804H255.986L279.339 305.157V344.08L310.478 383.003L341.616 375.218V367.434L349.4 359.649L372.754 367.434L396.108 375.218L403.892 367.434L411.677 359.649V367.434V375.218H419.461L427.246 383.003V390.787V406.356L458.384 414.141V421.925L466.168 429.71L481.738 437.495L489.522 453.064L497.307 468.633L551.799 507.555H559.583L567.368 499.771L582.937 507.555H590.721L598.506 499.771L606.29 491.986L621.859 499.771L629.644 515.34L645.213 499.771L637.428 484.202L645.213 476.417L652.998 468.633H645.213H629.644L621.859 453.064V445.279L637.428 437.495H652.998L684.136 421.925L699.705 406.356L691.92 375.218L676.351 367.434V351.865V344.08H645.213H629.644L606.29 312.942L590.721 289.588L575.152 297.373H551.799V289.588V274.019H536.229L528.445 266.234L520.66 258.45V250.665L512.876 242.881L505.091 235.096H497.307V227.312H481.738L458.384 235.096V219.527L450.599 211.743L442.815 203.958L435.03 196.174L427.246 188.389H419.461V180.605L411.677 165.035Z" fill="#E11E28" stroke="white" stroke-width="2"/>
</svg>
