<svg width="800" height="517" viewBox="0 0 800 517" fill="none" xmlns="http://www.w3.org/2000/svg">
<path d="M428.544 39.8377L447.572 20.8086L390.486 1.78003L371.457 20.8086L390.486 39.8377H428.544ZM561.746 58.8665H542.717L523.688 77.8954L466.601 39.8377V115.953L447.572 173.04L409.514 211.098V192.069V173.04V154.011L352.428 173.04L333.399 154.011L352.428 134.982H371.457L352.428 20.8086H314.37L276.312 39.8377L295.341 58.8665L276.312 77.8954L257.284 96.9242H219.226V115.953V134.982L200.197 173.04V230.127V268.184L219.226 287.213L162.139 325.271L105.052 382.358V401.386V420.415V458.474L162.139 515.56L219.226 496.531L333.399 458.474L428.544 496.531L542.717 420.415L675.919 363.329V344.3L694.948 306.242L618.833 211.098V115.953L561.746 58.8665Z" fill="#E11E28" stroke="white" stroke-width="2"/>
</svg>
