<svg width="800" height="517" viewBox="0 0 800 517" fill="none" xmlns="http://www.w3.org/2000/svg">
<path d="M487.543 4.2104V1.34009H484.673H481.803L467.451 7.08067V15.6915L478.932 18.5618L487.543 15.6915V12.8212V7.08067V4.2104ZM524.857 75.9673V64.4863L527.727 55.8754V50.1348L524.857 47.2645L521.986 55.8754L519.116 70.2268L510.505 78.8377L496.154 81.7079L493.284 84.5782H490.413L487.543 90.3187L484.673 93.1891L481.803 96.0593L478.932 98.9296V101.8L481.803 104.67V107.54L478.932 113.281L481.803 124.762V136.243L473.192 144.854L467.451 150.595L464.581 159.205L461.711 164.946L458.84 170.687V176.427V182.168L455.97 187.908L453.1 196.519H458.84H461.711L464.581 199.389L467.451 202.26L473.192 199.389H478.932L496.154 210.87L504.765 228.092V230.962L501.894 233.833L504.765 242.444V251.054H501.894H499.024L490.413 256.795L487.543 265.406L499.024 276.887L507.635 282.627H501.894L496.154 279.757L490.413 282.627H487.543V279.757V274.017L484.673 268.276V265.406L487.543 259.665V253.925L490.413 251.054L493.284 248.184H490.413V245.314L493.284 242.444V239.573V230.962L490.413 225.222V219.481V213.741H476.062H458.84L453.1 222.352L450.23 228.092V236.703L444.489 256.795L438.748 262.536L430.138 265.406L427.267 274.017L421.527 279.757L412.916 282.627L404.305 288.368L398.564 285.498L395.694 288.368L389.954 296.979H381.343V294.109L378.472 291.238L366.991 288.368L358.381 282.627L352.64 279.757L349.77 274.017L346.899 265.406V256.795L358.381 262.536L372.732 268.276L369.862 271.146H364.121V274.017L372.732 279.757H384.213V274.017L387.083 268.276H389.954L395.694 265.406L398.564 262.536H401.435V259.665V256.795L412.916 251.054L424.397 245.314L427.267 236.703V230.962L435.878 225.222L441.619 216.611L435.878 205.13L433.008 187.908L441.619 173.557L447.359 159.205L453.1 141.984L455.97 139.114L458.84 136.243L467.451 119.022L464.581 104.67V90.3187L476.062 78.8377L493.284 50.1348V44.3943V41.524L487.543 32.9132L473.192 27.1726L467.451 24.3023L461.711 21.432H458.84L461.711 18.5618H458.84V15.6915L444.489 32.9132L430.138 53.0051L407.175 70.2268L389.954 78.8377H392.824L389.954 84.5782H387.083L384.213 90.3187H389.954L392.824 93.1891L387.083 101.8L381.343 113.281V119.022L378.472 124.762L375.602 121.892H372.732L366.991 127.632L364.121 136.243V139.114L366.991 136.243H369.862L372.732 141.984L375.602 147.724H378.472V153.465L375.602 156.335V170.687L381.343 176.427V179.297L364.121 199.389H358.381L361.251 196.519V193.649L358.381 190.779L355.51 187.908L352.64 167.816L346.899 159.205L338.289 147.724H341.159L346.899 153.465V156.335L341.159 144.854L329.678 136.243L323.937 139.114L321.067 144.854H318.197L323.937 153.465L326.807 159.205V164.946L321.067 170.687L315.326 176.427L312.456 187.908L318.197 196.519L321.067 205.13L309.586 210.87L295.234 219.481L292.364 222.352L289.494 228.092H286.624H283.753H280.883H278.013L266.532 230.962H257.921L252.18 236.703V239.573L243.569 242.444L234.959 248.184V251.054L229.218 248.184H220.607L223.477 256.795V262.536L226.348 268.276V271.146L220.607 276.887L217.737 288.368H211.996L209.126 294.109L211.996 299.849L220.607 302.719L217.737 308.46L220.607 314.201H223.477H226.348H229.218L232.088 317.071L237.829 314.201H243.569V317.071L246.44 319.941L249.31 317.071H252.18L260.791 319.941L269.402 325.682L272.272 328.552L278.013 331.422L275.142 334.293L269.402 337.163L275.142 345.774L283.753 354.384L289.494 351.514L295.234 348.644L303.845 351.514H306.716L309.586 348.644H315.326V351.514L318.197 354.384H321.067L326.807 360.125L323.937 362.995L321.067 368.736V377.347L323.937 383.087L329.678 388.828V400.309V408.92L344.029 411.79L358.381 408.92L364.121 417.531L366.991 426.141L372.732 431.882L378.472 434.752L392.824 437.623L404.305 446.233L418.656 454.844L421.527 463.455L427.267 472.066H435.878H447.359L453.1 474.936L458.84 477.807L476.062 472.066L487.543 466.325H490.413V469.196V474.936L499.024 483.547H504.765H510.505L516.246 492.158L521.986 500.769H527.727H533.468L539.208 506.509L544.949 515.12L559.3 506.509L567.911 495.028L570.781 489.288V486.417L573.651 483.547L576.522 477.807L570.781 474.936L567.911 472.066V466.325L570.781 463.455H576.522L588.003 446.233L590.873 429.012L588.003 420.401L582.262 423.271L576.522 420.401L573.651 414.66H567.911L565.041 406.049H567.911L570.781 400.309V394.568V391.698V385.957V383.087V380.217L562.17 377.347L559.3 368.736V348.644L562.17 337.163L559.3 322.811L556.43 314.201L553.56 311.33V308.46L559.3 302.719V299.849L556.43 296.979V291.238V288.368V285.498L567.911 279.757L573.651 265.406L576.522 245.314L579.392 230.962L576.522 228.092L573.651 225.222V222.352L570.781 219.481L565.041 225.222H559.3H556.43L550.689 219.481L542.078 213.741L539.208 205.13L536.338 199.389V193.649V190.779L542.078 187.908V185.038L544.949 182.168L556.43 176.427L562.17 170.687L567.911 173.557H573.651L576.522 159.205V141.984L570.781 139.114L565.041 133.373V127.632V121.892H570.781H573.651L579.392 116.151V107.54L573.651 101.8L567.911 96.0593L565.041 90.3187L562.17 84.5782H553.56L544.949 90.3187H547.819H550.689L553.56 96.0593V101.8L542.078 98.9296L539.208 90.3187L527.727 93.1891L524.857 104.67L527.727 116.151L533.468 124.762H539.208L544.949 130.503L542.078 144.854L539.208 139.114L536.338 133.373L519.116 124.762L504.765 113.281L507.635 110.411L513.376 98.9296L510.505 93.1891L519.116 84.5782L524.857 75.9673ZM556.43 81.7079L559.3 78.8377V73.0971L556.43 70.2268L542.078 75.9673L553.56 81.7079H556.43ZM527.727 38.6537L516.246 35.7834L519.116 44.3943H521.986L524.857 38.6537H527.727ZM542.078 24.3023L544.949 27.1726L547.819 24.3023L542.078 21.432L539.208 24.3023H542.078Z" fill="#E11E28"/>
<path d="M346.899 159.205L352.64 167.816L355.51 187.908L358.381 190.779L361.251 193.649V196.519L358.381 199.389H364.121L381.343 179.297V176.427L375.602 170.687V156.335L378.472 153.465V147.724H375.602L372.732 141.984L369.862 136.243H366.991L364.121 139.114V136.243L366.991 127.632L372.732 121.892H375.602L378.472 124.762L381.343 119.022V113.281L387.083 101.8L392.824 93.1891L389.954 90.3187H384.213L387.083 84.5782H389.954L392.824 78.8377H389.954L407.175 70.2268L430.138 53.0051L444.489 32.9132L458.84 15.6915V18.5618H461.711L458.84 21.432H461.711L467.451 24.3023L473.192 27.1726L487.543 32.9132L493.284 41.524V44.3943V50.1348L476.062 78.8377L464.581 90.3187V104.67L467.451 119.022L458.84 136.243L455.97 139.114L453.1 141.984L447.359 159.205L441.619 173.557L433.008 187.908L435.878 205.13L441.619 216.611L435.878 225.222L427.267 230.962V236.703L424.397 245.314L412.916 251.054L401.435 256.795V259.665V262.536H398.564L395.694 265.406L389.954 268.276H387.083L384.213 274.017V279.757H372.732L364.121 274.017V271.146H369.862L372.732 268.276L358.381 262.536L346.899 256.795V265.406L349.77 274.017L352.64 279.757L358.381 282.627L366.991 288.368L378.472 291.238L381.343 294.109V296.979H389.954L395.694 288.368L398.564 285.498L404.305 288.368L412.916 282.627L421.527 279.757L427.267 274.017L430.138 265.406L438.748 262.536L444.489 256.795L450.23 236.703V228.092L453.1 222.352L458.84 213.741H476.062H490.413V219.481V225.222L493.284 230.962V239.573V242.444L490.413 245.314V248.184H493.284L490.413 251.054L487.543 253.925V259.665L484.673 265.406V268.276L487.543 274.017V279.757V282.627H490.413L496.154 279.757L501.894 282.627H507.635L499.024 276.887L487.543 265.406L490.413 256.795L499.024 251.054H501.894H504.765V242.444L501.894 233.833L504.765 230.962V228.092L496.154 210.87L478.932 199.389H473.192L467.451 202.26L464.581 199.389L461.711 196.519H458.84H453.1L455.97 187.908L458.84 182.168V176.427V170.687L461.711 164.946L464.581 159.205L467.451 150.595L473.192 144.854L481.803 136.243V124.762L478.932 113.281L481.803 107.54V104.67L478.932 101.8V98.9296L481.803 96.0593L484.673 93.1891L487.543 90.3187L490.413 84.5782H493.284L496.154 81.7079L510.505 78.8377L519.116 70.2268L521.986 55.8754L524.857 47.2645L527.727 50.1348V55.8754L524.857 64.4863V75.9673L519.116 84.5782L510.505 93.1891L513.376 98.9296L507.635 110.411L504.765 113.281L519.116 124.762L536.338 133.373L539.208 139.114L542.078 144.854L544.949 130.503L539.208 124.762H533.468L527.727 116.151L524.857 104.67L527.727 93.1891L539.208 90.3187L542.078 98.9296L553.56 101.8V96.0593L550.689 90.3187H547.819H544.949L553.56 84.5782H562.17L565.041 90.3187L567.911 96.0593L573.651 101.8L579.392 107.54V116.151L573.651 121.892H570.781H565.041V127.632V133.373L570.781 139.114L576.522 141.984V159.205L573.651 173.557H567.911L562.17 170.687L556.43 176.427L544.949 182.168L542.078 185.038V187.908L536.338 190.779V193.649V199.389L539.208 205.13L542.078 213.741L550.689 219.481L556.43 225.222H559.3H565.041L570.781 219.481L573.651 222.352V225.222L576.522 228.092L579.392 230.962L576.522 245.314L573.651 265.406L567.911 279.757L556.43 285.498V288.368V291.238V296.979L559.3 299.849V302.719L553.56 308.46V311.33L556.43 314.201L559.3 322.811L562.17 337.163L559.3 348.644V368.736L562.17 377.347L570.781 380.217V383.087V385.957V391.698V394.568V400.309L567.911 406.049H565.041L567.911 414.66H573.651L576.522 420.401L582.262 423.271L588.003 420.401L590.873 429.012L588.003 446.233L576.522 463.455H570.781L567.911 466.325V472.066L570.781 474.936L576.522 477.807L573.651 483.547L570.781 486.417V489.288L567.911 495.028L559.3 506.509L544.949 515.12L539.208 506.509L533.468 500.769H527.727H521.986L516.246 492.158L510.505 483.547H504.765H499.024L490.413 474.936V469.196V466.325H487.543L476.062 472.066L458.84 477.807L453.1 474.936L447.359 472.066H435.878H427.267L421.527 463.455L418.656 454.844L404.305 446.233L392.824 437.623L378.472 434.752L372.732 431.882L366.991 426.141L364.121 417.531L358.381 408.92L344.029 411.79L329.678 408.92V400.309V388.828L323.937 383.087L321.067 377.347V368.736L323.937 362.995L326.807 360.125L321.067 354.384H318.197L315.326 351.514V348.644H309.586L306.716 351.514H303.845L295.234 348.644L289.494 351.514L283.753 354.384L275.142 345.774L269.402 337.163L275.142 334.293L278.013 331.422L272.272 328.552L269.402 325.682L260.791 319.941L252.18 317.071H249.31L246.44 319.941L243.569 317.071V314.201H237.829L232.088 317.071L229.218 314.201H226.348H223.477H220.607L217.737 308.46L220.607 302.719L211.996 299.849L209.126 294.109L211.996 288.368H217.737L220.607 276.887L226.348 271.146V268.276L223.477 262.536V256.795L220.607 248.184H229.218L234.959 251.054V248.184L243.569 242.444L252.18 239.573V236.703L257.921 230.962H266.532L278.013 228.092H280.883H283.753H286.624H289.494L292.364 222.352L295.234 219.481L309.586 210.87L321.067 205.13L318.197 196.519L312.456 187.908L315.326 176.427L321.067 170.687L326.807 164.946V159.205L323.937 153.465L318.197 144.854H321.067L323.937 139.114L329.678 136.243L341.159 144.854L346.899 156.335M346.899 159.205L338.289 147.724H341.159L346.899 153.465V156.335M346.899 159.205V156.335M487.543 4.2104V1.34009H484.673H481.803L467.451 7.08067V15.6915L478.932 18.5618L487.543 15.6915V12.8212V7.08067V4.2104ZM556.43 81.7079L559.3 78.8377V73.0971L556.43 70.2268L542.078 75.9673L553.56 81.7079H556.43ZM527.727 38.6537L516.246 35.7834L519.116 44.3943H521.986L524.857 38.6537H527.727ZM542.078 24.3023L544.949 27.1726L547.819 24.3023L542.078 21.432L539.208 24.3023H542.078Z" stroke="white" stroke-width="2"/>
</svg>
