<svg width="800" height="516" viewBox="0 0 800 516" fill="none" xmlns="http://www.w3.org/2000/svg">
<path d="M584.96 104.556H564.409H523.307L502.756 84.0053H461.653L400 22.3519L379.449 1.80078H338.347L297.244 22.3519L256.142 1.80078H215.04L194.487 42.903L173.936 63.4542H153.385L91.7318 104.556H71.1807L50.6296 125.108L30.0785 186.762L9.52734 227.864V268.966V310.068L30.0785 330.619L71.1807 371.722V392.273V412.825L91.7318 453.927L112.283 474.477L132.834 495.028L173.936 515.581L215.04 495.028H235.591L358.898 433.376H379.449H400L420.551 392.273V351.171L461.653 330.619L502.756 289.517H523.307H543.858L584.96 207.313L646.615 166.21H687.717H728.819L790.473 125.108L769.921 84.0053L749.37 42.903L708.268 63.4542H687.717H646.615H626.062L584.96 104.556Z" fill="#E11E28" stroke="white" stroke-width="2"/>
</svg>
