<svg width="800" height="517" viewBox="0 0 800 517" fill="none" xmlns="http://www.w3.org/2000/svg">
<path d="M462.216 6.0344L450.174 2.02051L442.146 10.0483L450.174 18.0761L446.16 22.09H442.146V30.1179V34.1317H438.132V38.1457L442.146 66.2429H446.16H450.174V78.2848V90.3264H446.16L442.146 86.3125L434.119 94.3403L430.105 98.3542L422.077 94.3403H418.063H410.035H406.021L397.993 98.3542V106.382L393.979 110.396H397.993L402.007 114.41L406.021 118.424V126.452L402.007 130.466H406.021L410.035 138.493V142.507L414.049 150.535L410.035 154.549L414.049 166.591L426.091 174.618L446.16 190.674V222.785H438.132L426.091 226.799H422.077L414.049 230.813L393.979 250.883L369.896 270.952L365.882 274.966L361.868 278.98L369.896 295.036L377.924 319.119L357.854 335.175L333.771 339.189L329.757 343.203L321.729 351.23L317.715 347.216H313.701L309.687 355.244L305.673 363.272L297.646 367.286L285.604 371.3L281.59 379.328L273.562 387.356L269.548 391.369L261.521 387.356H249.479L237.437 395.383L229.409 403.411H225.395L217.367 399.397H201.312L197.298 407.425L201.312 419.467V423.481L193.284 427.495L185.256 435.523L197.298 443.55L205.326 451.578L197.298 455.592H189.27L181.242 467.634V483.689L189.27 491.717L205.326 507.773L233.423 511.787L261.521 515.801H265.534L269.548 511.787L273.562 515.801H281.59L289.618 511.787L301.66 503.759L329.757 495.731L357.854 487.703L365.882 471.648L393.979 447.564L414.049 451.578L430.105 459.606H446.16L470.244 455.592L490.313 467.634L518.411 471.648L526.438 459.606L538.48 447.564L550.522 439.536L558.55 431.508V427.495V423.481H554.536V419.467L562.563 387.356L570.591 351.23L582.633 335.175L590.661 319.119L586.647 315.105L582.633 311.091V303.063L578.619 299.05L566.577 303.063L562.563 291.022L566.577 282.994L578.619 270.952V266.938L582.633 262.924L598.689 254.897L618.758 242.855L610.73 230.813L598.689 218.771L602.703 210.744V206.73V202.716V198.702L606.717 194.688L610.73 190.674L598.689 182.646H594.675L590.661 178.632L598.689 158.563L590.661 138.493L582.633 142.507H578.619L574.605 130.466L566.577 118.424L554.536 122.438L546.508 126.452V130.466H542.494L534.466 122.438V114.41H538.48L542.494 110.396L534.466 106.382L526.438 102.368L522.424 98.3542V90.3264H518.411H514.397L518.411 74.2709L506.369 58.2152L502.355 42.1596H498.341L494.327 46.1735L486.299 30.1179V22.09V6.0344L470.244 10.0483L462.216 6.0344Z" fill="#E11E28" stroke="white" stroke-width="2"/>
</svg>
