<svg width="44" height="45" viewBox="0 0 44 45" fill="none" xmlns="http://www.w3.org/2000/svg">
<path d="M44 22.8911C44 10.7408 34.1503 0.891113 22 0.891113C9.84974 0.891113 0 10.7408 0 22.8911C0 35.0414 9.84974 44.8911 22 44.8911C34.1503 44.8911 44 35.0414 44 22.8911Z" fill="white"/>
<path d="M22 10.8911C16.762 10.8911 12.5001 15.1979 12.5001 20.4851C12.4657 28.2191 21.639 34.6319 22 34.8911C22 34.8911 31.5343 28.2191 31.4999 20.4911C31.4999 15.1979 27.238 10.8911 22 10.8911ZM22 25.2911C19.3757 25.2911 17.25 23.1431 17.25 20.4911C17.25 17.8391 19.3757 15.6912 22 15.6912C24.6243 15.6912 26.75 17.8391 26.75 20.4911C26.75 23.1431 24.6243 25.2911 22 25.2911Z" fill="#E11E28"/>
</svg>
